<?xml version="1.0" encoding="UTF-8" standalone="no"?>
<svg
   width="400"
   height="480"
   viewBox="0 0 400 480"
   fill="none"
   version="1.1"
   id="svg1"
   xmlns="http://www.w3.org/2000/svg"
   xmlns:svg="http://www.w3.org/2000/svg"
   xmlns:rdf="http://www.w3.org/1999/02/22-rdf-syntax-ns#"
   xmlns:cc="http://creativecommons.org/ns#"
   xmlns:dc="http://purl.org/dc/elements/1.1/">
  <title
     id="title1">FreeCAD-symbol-mono</title>
  <defs
     id="defs1" />
  <path
     fill-rule="evenodd"
     clip-rule="evenodd"
     d="m 80,0 h 320 v 159.922 c 0,4.482 -2.142,8.694 -5.767,11.328 l -43.46,31.574 c -3.626,2.634 -5.766,6.846 -5.767,11.328 v 11.709 c 0,4.482 2.142,8.683 5.767,11.317 l 37.91,27.544 c 4.907,3.565 6.959,9.889 5.085,15.658 l -12.981,39.935 c -1.874,5.769 -7.246,9.684 -13.312,9.684 l -46.86,-0.01 c -4.481,0 -8.683,2.152 -11.317,5.777 l -6.883,9.468 c -2.635,3.625 -3.38,8.295 -1.995,12.557 l 14.48,44.565 c 1.874,5.769 -0.178,12.083 -5.085,15.648 l -33.972,24.691 c -4.907,3.565 -11.558,3.565 -16.464,0 l -37.9,-27.544 c -3.626,-2.634 -8.295,-3.369 -12.557,-1.984 l -11.131,3.617 c -4.262,1.385 -7.607,4.72 -8.992,8.982 l -14.48,44.565 c -1.874,5.769 -7.246,9.674 -13.311,9.674 L 0,480 V 80 Z M 320,160 V 80 H 80 v 320 h 80 L 160.005,300.006 240,300 v -80 h -80 v -60 z"
     fill="#212529"
     id="path1"
     style="stroke:none" />
  <metadata
     id="metadata1">
    <rdf:RDF>
      <cc:Work
         rdf:about="">
        <dc:title>FreeCAD-symbol-mono</dc:title>
        <dc:date>2024-06-01</dc:date>
        <dc:creator>
          <cc:Agent>
            <dc:title>Sebastian Tabares Amaya (sytabaresa), Max Wilfinger (maxwxyz)</dc:title>
          </cc:Agent>
        </dc:creator>
        <dc:publisher>
          <cc:Agent>
            <dc:title>The FreeCAD project association AISBL (FPA)</dc:title>
          </cc:Agent>
        </dc:publisher>
        <dc:rights>
          <cc:Agent>
            <dc:title>Copyright (c) 2024 The FreeCAD Project Association AISBL.</dc:title>
          </cc:Agent>
        </dc:rights>
        <cc:license
           rdf:resource="http://creativecommons.org/licenses/by/4.0/" />
      </cc:Work>
      <cc:License
         rdf:about="http://creativecommons.org/licenses/by/4.0/">
        <cc:permits
           rdf:resource="http://creativecommons.org/ns#Reproduction" />
        <cc:permits
           rdf:resource="http://creativecommons.org/ns#Distribution" />
        <cc:requires
           rdf:resource="http://creativecommons.org/ns#Notice" />
        <cc:requires
           rdf:resource="http://creativecommons.org/ns#Attribution" />
        <cc:permits
           rdf:resource="http://creativecommons.org/ns#DerivativeWorks" />
      </cc:License>
    </rdf:RDF>
  </metadata>
</svg>
