<svg width="1800" height="480" viewBox="0 0 1800 480" fill="none" xmlns="http://www.w3.org/2000/svg">
<path fill-rule="evenodd" clip-rule="evenodd" d="M80 0H400V159.922C400 164.404 397.858 168.616 394.233 171.25L350.773 202.824C347.147 205.458 345.007 209.67 345.006 214.152V225.861C345.006 230.343 347.148 234.544 350.773 237.178L388.683 264.722C393.59 268.287 395.642 274.611 393.768 280.38L380.787 320.315C378.913 326.084 373.541 329.999 367.475 329.999L320.615 329.989C316.134 329.989 311.932 332.141 309.298 335.766L302.415 345.234C299.78 348.859 299.035 353.529 300.42 357.791L314.9 402.356C316.774 408.125 314.722 414.439 309.815 418.004L275.843 442.695C270.936 446.26 264.285 446.26 259.379 442.695L221.479 415.151C217.853 412.517 213.184 411.782 208.922 413.167L197.791 416.784C193.529 418.169 190.184 421.504 188.799 425.766L174.319 470.331C172.445 476.1 167.073 480.005 161.008 480.005L0 480V80L80 0ZM320 160V80H80V400H160L160.005 300.006H240V220.001H160.005V160.005L320 160Z" fill="#2D2926"/>
<path d="M502.8 358.5V136.8H615.3V156.9H525V237H612V257.1H525V358.5H502.8ZM641.283 358.5V194.4H663.483V217.8C672.183 199.8 686.283 191.7 709.983 190.5V212.4C679.083 215.4 663.483 232.2 663.483 262.8V358.5H641.283ZM887.421 283.8H738.921C740.721 316.2 768.921 342 802.821 342C827.721 342 850.821 327 860.121 304.5H883.221C871.221 339 839.121 362.4 803.421 362.4C754.821 362.4 716.721 324.3 716.721 275.7C716.721 228 754.221 190.5 801.621 190.5C834.021 190.5 863.121 207.6 877.521 235.2C884.721 249 887.421 261.9 887.421 283.8ZM739.521 263.7H865.221C857.721 231 833.421 210.9 801.621 210.9C770.421 210.9 745.521 232.2 739.521 263.7ZM1082.54 283.8H934.038C935.838 316.2 964.038 342 997.938 342C1022.84 342 1045.94 327 1055.24 304.5H1078.34C1066.34 339 1034.24 362.4 998.538 362.4C949.938 362.4 911.838 324.3 911.838 275.7C911.838 228 949.338 190.5 996.738 190.5C1029.14 190.5 1058.24 207.6 1072.64 235.2C1079.84 249 1082.54 261.9 1082.54 283.8ZM934.638 263.7H1060.34C1052.84 231 1028.54 210.9 996.738 210.9C965.538 210.9 940.638 232.2 934.638 263.7ZM1275.85 296.684C1275.85 296.684 1291.96 296.684 1324.19 296.684C1315.5 316.898 1301.92 332.914 1283.47 344.73C1265.11 356.547 1244.55 362.455 1221.8 362.455C1211.15 362.455 1200.75 361.088 1190.6 358.354C1180.54 355.619 1171.26 351.762 1162.76 346.781C1154.27 341.801 1146.41 335.795 1139.18 328.764C1132.05 321.635 1126 313.871 1121.02 305.473C1116.04 296.977 1112.13 287.748 1109.3 277.787C1106.56 267.729 1105.2 257.426 1105.2 246.879C1105.2 231.449 1108.22 216.703 1114.28 202.641C1120.33 188.578 1128.44 176.469 1138.59 166.312C1148.75 156.156 1160.86 148.051 1174.92 141.996C1188.98 135.941 1203.73 132.914 1219.16 132.914C1233.12 132.914 1246.55 135.258 1259.44 139.945C1272.43 144.535 1284.1 151.176 1294.45 159.867C1301.48 165.922 1307.15 171.879 1311.45 177.738C1315.74 183.598 1319.99 191.166 1324.19 200.443H1278.19C1270.67 190.678 1262.32 183.598 1253.14 179.203C1243.96 174.711 1232.93 172.465 1220.04 172.465C1196.89 172.465 1178.49 180.57 1164.81 196.781C1159.15 203.324 1154.66 211.088 1151.34 220.072C1148.12 229.057 1146.5 238.09 1146.5 247.172C1146.5 260.746 1149.82 273.344 1156.46 284.965C1163.11 296.586 1172.14 305.814 1183.56 312.65C1194.99 319.389 1207.44 322.758 1220.92 322.758C1231.56 322.758 1241.08 320.756 1249.48 316.752C1257.98 312.748 1266.77 306.059 1275.85 296.684ZM1328.73 358.5C1328.73 358.5 1359.54 284.623 1421.16 136.869C1421.16 136.869 1431.95 136.869 1453.54 136.869C1453.54 136.869 1484.54 210.746 1546.55 358.5C1546.55 358.5 1531.46 358.5 1501.29 358.5C1501.29 358.5 1493.38 339.408 1477.56 301.225C1477.56 301.225 1451.29 301.225 1398.75 301.225C1398.75 301.225 1390.55 320.316 1374.14 358.5C1374.14 358.5 1359 358.5 1328.73 358.5ZM1413.69 261.967C1413.69 261.967 1429.51 261.967 1461.15 261.967C1461.15 261.967 1453.24 239.555 1437.42 194.73C1437.42 194.73 1429.51 217.143 1413.69 261.967ZM1569.99 358.5C1569.99 358.5 1569.99 284.623 1569.99 136.869C1569.99 136.869 1586.93 136.869 1620.82 136.869C1657.05 136.869 1684 142.631 1701.68 154.154C1716.43 163.627 1727.75 176.518 1735.66 192.826C1743.67 209.037 1747.68 227.445 1747.68 248.051C1747.68 270.902 1742.7 291.068 1732.73 308.549C1722.87 325.932 1709.15 338.773 1691.57 347.074C1682.59 351.176 1672.72 354.105 1661.98 355.863C1651.34 357.621 1637.91 358.5 1621.7 358.5H1569.99ZM1611.15 319.242H1620.09C1643.72 319.242 1661.74 315.922 1674.14 309.281C1684 303.91 1691.82 295.707 1697.58 284.672C1703.34 273.637 1706.22 261.43 1706.22 248.051C1706.22 233.5 1703.1 220.609 1696.85 209.379C1690.6 198.051 1681.95 189.652 1670.92 184.184C1664.67 181.156 1657.69 179.057 1649.97 177.885C1642.26 176.713 1632 176.127 1619.21 176.127H1611.15V319.242Z" fill="#2D2926"/>
</svg>
