<svg width="1800" height="480" viewBox="0 0 1800 480" fill="none" xmlns="http://www.w3.org/2000/svg">
<path fill-rule="evenodd" clip-rule="evenodd" d="M80 0H400V159.922C400 164.404 397.858 168.616 394.233 171.25L350.773 202.824C347.147 205.458 345.007 209.67 345.006 214.152V225.861C345.006 230.343 347.148 234.544 350.773 237.178L388.683 264.722C393.59 268.287 395.642 274.611 393.768 280.38L380.787 320.315C378.913 326.084 373.541 329.999 367.475 329.999L320.615 329.989C316.134 329.989 311.932 332.141 309.298 335.766L302.415 345.234C299.78 348.859 299.035 353.529 300.42 357.791L314.9 402.356C316.774 408.125 314.722 414.439 309.815 418.004L275.843 442.695C270.936 446.26 264.285 446.26 259.379 442.695L221.479 415.151C217.853 412.517 213.184 411.782 208.922 413.167L197.791 416.784C193.529 418.169 190.184 421.504 188.799 425.766L174.319 470.331C172.445 476.1 167.073 480.005 161.008 480.005L0 480V80L80 0ZM320 160V80H80V400H160L160.005 300.006H240V220.001H160.005V160.005L320 160Z" fill="#212529"/>
<path d="M502.8 358.5V136.8H615.3V156.9H525V237H612V257.1H525V358.5H502.8ZM641.283 358.5V194.4H663.483V217.8C672.183 199.8 686.283 191.7 709.983 190.5V212.4C679.083 215.4 663.483 232.2 663.483 262.8V358.5H641.283ZM887.421 283.8H738.921C740.721 316.2 768.921 342 802.821 342C827.721 342 850.821 327 860.121 304.5H883.221C871.221 339 839.121 362.4 803.421 362.4C754.821 362.4 716.721 324.3 716.721 275.7C716.721 228 754.221 190.5 801.621 190.5C834.021 190.5 863.121 207.6 877.521 235.2C884.721 249 887.421 261.9 887.421 283.8ZM739.521 263.7H865.221C857.721 231 833.421 210.9 801.621 210.9C770.421 210.9 745.521 232.2 739.521 263.7ZM1082.54 283.8H934.038C935.838 316.2 964.038 342 997.938 342C1022.84 342 1045.94 327 1055.24 304.5H1078.34C1066.34 339 1034.24 362.4 998.538 362.4C949.938 362.4 911.838 324.3 911.838 275.7C911.838 228 949.338 190.5 996.738 190.5C1029.14 190.5 1058.24 207.6 1072.64 235.2C1079.84 249 1082.54 261.9 1082.54 283.8ZM934.638 263.7H1060.34C1052.84 231 1028.54 210.9 996.738 210.9C965.538 210.9 940.638 232.2 934.638 263.7ZM1275.86 296.7H1324.16C1306.76 337.2 1267.46 362.4 1221.86 362.4C1157.06 362.4 1105.16 311.1 1105.16 246.9C1105.16 184.2 1156.46 132.9 1219.16 132.9C1247.06 132.9 1273.76 142.5 1294.46 159.9C1308.56 171.9 1315.76 181.8 1324.16 200.4H1278.26C1263.26 180.9 1245.86 172.5 1220.06 172.5C1197.26 172.5 1178.36 180.9 1164.86 196.8C1153.46 210 1146.56 229.2 1146.56 247.2C1146.56 288.6 1179.86 322.8 1220.96 322.8C1242.26 322.8 1257.56 315.6 1275.86 296.7ZM1328.78 358.5L1421.18 136.8H1453.58L1546.58 358.5H1501.28L1477.58 301.2H1398.68L1374.08 358.5H1328.78ZM1413.68 261.9H1461.08L1437.38 194.7L1413.68 261.9ZM1570.05 358.5V136.8H1620.75C1657.05 136.8 1683.75 142.5 1701.75 154.2C1731.15 173.1 1747.65 207 1747.65 248.1C1747.65 294 1726.65 330.6 1691.55 347.1C1673.85 355.2 1654.35 358.5 1621.65 358.5H1570.05ZM1611.15 319.2H1620.15C1644.75 319.2 1661.85 315.9 1674.15 309.3C1693.95 298.5 1706.25 274.8 1706.25 248.1C1706.25 219 1692.75 195 1670.85 184.2C1658.25 178.2 1644.75 176.1 1619.25 176.1H1611.15V319.2Z" fill="#212529"/>
</svg>
