<svg width="400" height="476" viewBox="0 0 400 476" fill="none" xmlns="http://www.w3.org/2000/svg">
<path fill-rule="evenodd" clip-rule="evenodd" d="M80 -4H400V155.922C400 160.404 397.858 164.616 394.233 167.25L350.773 198.824C347.147 201.458 345.007 205.67 345.006 210.152V221.861C345.006 226.343 347.148 230.544 350.773 233.178L388.683 260.722C393.59 264.287 395.642 270.611 393.768 276.38L380.787 316.315C378.913 322.084 373.541 325.999 367.475 325.999L320.615 325.989C316.134 325.989 311.932 328.141 309.298 331.766L302.415 341.234C299.78 344.859 299.035 349.529 300.42 353.791L314.9 398.356C316.774 404.125 314.722 410.439 309.815 414.004L275.843 438.695C270.936 442.26 264.285 442.26 259.379 438.695L221.479 411.151C217.853 408.517 213.184 407.782 208.922 409.167L197.791 412.784C193.529 414.169 190.184 417.504 188.799 421.766L174.319 466.331C172.445 472.1 167.073 476.005 161.008 476.005L0 476V76L80 -4ZM320 156V76H80V396H160L160.005 296.006H240V216.001H160.005V156.005L320 156Z" fill="#FF585D"/>
</svg>
