<svg width="400" height="480" viewBox="0 0 400 480" fill="none" xmlns="http://www.w3.org/2000/svg">
<path fill-rule="evenodd" clip-rule="evenodd" d="M80 0H400V159.922C400 164.404 397.858 168.616 394.233 171.25L350.773 202.824C347.147 205.458 345.007 209.67 345.006 214.152V225.861C345.006 230.343 347.148 234.544 350.773 237.178L388.683 264.722C393.59 268.287 395.642 274.611 393.768 280.38L380.787 320.315C378.913 326.084 373.541 329.999 367.475 329.999L320.615 329.989C316.134 329.989 311.932 332.141 309.298 335.766L302.415 345.234C299.78 348.859 299.035 353.529 300.42 357.791L314.9 402.356C316.774 408.125 314.722 414.439 309.815 418.004L275.843 442.695C270.936 446.26 264.285 446.26 259.379 442.695L221.479 415.151C217.853 412.517 213.184 411.782 208.922 413.167L197.791 416.784C193.529 418.169 190.184 421.504 188.799 425.766L174.319 470.331C172.445 476.1 167.073 480.005 161.008 480.005L0 480V80L80 0ZM320 160V80H80V400H160L160.005 300.006H240V220.001H160.005V160.005L320 160Z" fill="#212529"/>
</svg>
