<?xml version="1.0" encoding="utf-8"?>
<!-- Generator: Adobe Illustrator 27.5.0, SVG Export Plug-In . SVG Version: 6.00 Build 0)  -->
<svg version="1.1"
	 id="svg1121" xmlns:dc="http://purl.org/dc/elements/1.1/" xmlns:inkscape="http://www.inkscape.org/namespaces/inkscape" xmlns:sodipodi="http://sodipodi.sourceforge.net/DTD/sodipodi-0.dtd" xmlns:svg="http://www.w3.org/2000/svg" xmlns:cc="http://creativecommons.org/ns#" xmlns:rdf="http://www.w3.org/1999/02/22-rdf-syntax-ns#"
	 xmlns="http://www.w3.org/2000/svg" xmlns:xlink="http://www.w3.org/1999/xlink" x="0px" y="0px" viewBox="0 0 246.7 110.4"
	 style="enable-background:new 0 0 246.7 110.4;" xml:space="preserve">
<style type="text/css">
	
		.st0{fill-rule:evenodd;clip-rule:evenodd;fill:url(#path3659-5-9-6-6_00000062159559406065373850000005023399515258205082_);stroke:#000137;stroke-width:2.8117;stroke-linecap:round;stroke-linejoin:round;stroke-miterlimit:11.3386;}
	.st1{fill:none;stroke:#729FCF;stroke-width:2.8117;stroke-linecap:round;stroke-linejoin:round;stroke-miterlimit:11.3386;}
	
		.st2{fill-rule:evenodd;clip-rule:evenodd;fill:url(#rect3663-8-7-7-1_00000045601676350928402770000017772596137064687295_);stroke:#280000;stroke-width:2.8117;stroke-miterlimit:11.3386;}
	.st3{fill:none;stroke:#EF2929;stroke-width:2.8117;stroke-miterlimit:11.3386;}
	.st4{enable-background:new    ;}
</style>
<sodipodi:namedview  bordercolor="#666666" borderopacity="1.0" id="base" inkscape:current-layer="layer1" inkscape:cx="207.08193" inkscape:cy="-2.6080848" inkscape:deskcolor="#d1d1d1" inkscape:document-units="mm" inkscape:guide-bbox="true" inkscape:pagecheckerboard="0" inkscape:pageopacity="0.0" inkscape:pageshadow="2" inkscape:showpageshadow="2" inkscape:snap-global="false" inkscape:window-height="1016" inkscape:window-maximized="1" inkscape:window-width="1850" inkscape:window-x="70" inkscape:window-y="27" inkscape:zoom="0.9585578" pagecolor="#ffffff" showgrid="false" showguides="true">
	<sodipodi:guide  id="guide2227" inkscape:locked="false" orientation="1,0" position="35.233146,5.492605"></sodipodi:guide>
	<sodipodi:guide  id="guide2229" inkscape:locked="false" orientation="0,1" position="-0.46835528,36.607695"></sodipodi:guide>
	<sodipodi:guide  id="guide2231" inkscape:locked="false" orientation="0,1" position="-10.295736,-39.365516"></sodipodi:guide>
	<sodipodi:guide  id="guide2237" inkscape:locked="false" orientation="1,0" position="-0.046430287,2.5526402"></sodipodi:guide>
</sodipodi:namedview>
<g id="layer1" transform="translate(-38.265973,-166.53193)" inkscape:groupmode="layer" inkscape:label="Layer 1">
	<g id="g2681">
		
			<linearGradient id="path3659-5-9-6-6_00000163033941777555048220000001062811979554868920_" gradientUnits="userSpaceOnUse" x1="-103.599" y1="290.6566" x2="-114.1793" y2="322.3974" gradientTransform="matrix(1.2072 0 0 -1.2072 375.2048 1046.1187)">
			<stop  offset="0" style="stop-color:#204A87"/>
			<stop  offset="1" style="stop-color:#729FCF"/>
		</linearGradient>
		
			<path id="path3659-5-9-6-6" inkscape:connector-curvature="0" style="fill-rule:evenodd;clip-rule:evenodd;fill:url(#path3659-5-9-6-6_00000163033941777555048220000001062811979554868920_);stroke:#000137;stroke-width:2.8117;stroke-linecap:round;stroke-linejoin:round;stroke-miterlimit:11.3386;" d="
			M109.2,196.1l-8.7,5l-3.8-1.3l-3.7-9.4l-5.8,0.3l-2.6,9.7l-3.7,1.8l-9.2-4l-3.9,4.3l5,8.7l-1.4,3.8l-9.4,3.7l0.3,5.8l9.7,2.6
			l1.8,3.7l-4,9.2l4.3,3.9l8.7-5l3.9,1.4l3.6,9.3l5.8-0.3l2.6-9.7l3.7-1.8l9.2,4.1l3.9-4.3l-5-8.7l1.3-3.9l9.3-3.6l-0.3-5.8
			l-9.7-2.6l-1.8-3.7l4-9.2L109.2,196.1z M96.2,210.4l1.8,1l1.5,1.4l1.2,1.7l0.9,1.9l0.5,2l0.1,2.1l-0.3,2.1l-0.7,1.9l-1.1,1.8
			l-1.4,1.5l-1.7,1.2l-1.9,0.9l-2,0.5l-2.1,0.1l-2.1-0.3l-1.9-0.7l-1.8-1.1l-1.5-1.4l-1.2-1.6l-0.9-1.9l-0.5-2l-0.1-2.1l0.3-2.1
			l0.7-1.9l1.1-1.8l1.4-1.6l1.7-1.2l1.9-0.9l2-0.5l2.1-0.1l2.1,0.3L96.2,210.4L96.2,210.4z"/>
		<path id="path3659-5-6-1-1-2" inkscape:connector-curvature="0" class="st1" d="M108.9,199.5l-8.1,4.6l-6.1-2.2l-3.6-8.6l-1.7,0.1
			l-2.5,9.1l-6,2.7l-8.5-3.7l-1.1,1.3l4.7,8.2l-2.3,6l-8.5,3.4l0.1,1.8l9,2.5l2.8,6l-3.7,8.4l1.3,1.1l8-4.6l6.4,2.3l3.2,8.6l1.7,0
			l2.5-9l5.9-2.9l8.8,3.8l1.1-1.1l-4.7-8l2-6.3l8.8-3.5l-0.1-1.8l-8.9-2.3l-2.9-6l3.7-8.6L108.9,199.5z"/>
		<circle id="path3898-2-8-9" class="st1" cx="91.7" cy="219.9" r="13.5"/>
		
			<linearGradient id="rect3663-8-7-7-1_00000016760554600544868350000012949121973764354696_" gradientUnits="userSpaceOnUse" x1="-247.7092" y1="261.5721" x2="-252.4116" y2="322.7025" gradientTransform="matrix(1.1959 0 0 -1.1959 397.8662 1034.6733)">
			<stop  offset="0" style="stop-color:#A40000"/>
			<stop  offset="1" style="stop-color:#EF2929"/>
		</linearGradient>
		
			<path id="rect3663-8-7-7-1" inkscape:connector-curvature="0" style="fill-rule:evenodd;clip-rule:evenodd;fill:url(#rect3663-8-7-7-1_00000016760554600544868350000012949121973764354696_);stroke:#280000;stroke-width:2.8117;stroke-miterlimit:11.3386;" d="
			M39.7,167.9l0,81.5h16.9v-33.7h16.9v-16.9H56.5v-14.1h28.1v-16.9L39.7,167.9z"/>
		<path id="rect3663-8-3-0-9-2" inkscape:connector-curvature="0" class="st3" d="M42.5,170.7v75.9h11.2v-33.7h16.9v-11.2H53.7V182
			h28.1v-11.2H42.5z"/>
		<g class="st4">
			<path d="M138,250.4v-49.6h25.2v4.5H143v17.9h19.5v4.5H143v22.7H138z"/>
			<path d="M170.6,250.4v-49.6h13.7c3.2,0,5.8,0.2,7.9,0.6c2,0.4,3.8,1.1,5.4,2c1.9,1.1,3.3,2.8,4.4,4.9c1,2.2,1.5,4.7,1.5,7.5
				c0,2.5-0.4,4.7-1.3,6.7c-0.9,2-2.1,3.5-3.7,4.7c-1.5,1.1-3.3,1.9-5.3,2.4c-2,0.5-4.7,0.7-8.1,0.7h-9.5v20.1H170.6z M175.5,225.8
				h9.2c4.5,0,7.6-0.6,9.5-1.7c1.3-0.7,2.3-1.8,3-3.2c0.7-1.5,1.1-3.2,1.1-5.2c0-2.4-0.5-4.5-1.4-6.1c-1-1.6-2.3-2.7-4.1-3.3
				c-2.1-0.7-5.6-1.1-10.2-1.1h-7.1V225.8z"/>
			<path d="M201.9,250.4l21.3-49.6h5.6l21.4,49.6h-5.4l-7.2-16.7h-23.1l-7.3,16.7H201.9z M216.3,229.2h19.3l-9.5-22.8L216.3,229.2z"
				/>
		</g>
		<g class="st4">
			<path d="M56.6,273.7v-12.4h6.3v1.1h-5.1v4.5h4.9v1.1h-4.9v5.7H56.6z"/>
			<path d="M64.3,273.7v-9.2h1.2v1.3c0.2-0.5,0.6-0.9,1-1.1c0.4-0.2,1-0.4,1.6-0.4v1.2c-1.7,0.2-2.6,1.1-2.6,2.8v5.4H64.3z"/>
			<path d="M78.1,269.5h-8.3c0,0.9,0.4,1.7,1.1,2.3c0.7,0.6,1.5,0.9,2.5,0.9c0.7,0,1.3-0.2,1.9-0.6c0.6-0.4,1-0.9,1.3-1.5h1.3
				c-0.3,1-0.9,1.8-1.7,2.4s-1.7,0.9-2.7,0.9c-0.7,0-1.3-0.1-1.9-0.4c-0.6-0.3-1.1-0.6-1.6-1c-0.4-0.4-0.8-0.9-1-1.5
				c-0.3-0.6-0.4-1.2-0.4-1.9c0-0.9,0.2-1.7,0.6-2.4c0.4-0.7,1-1.3,1.7-1.7c0.7-0.4,1.5-0.6,2.4-0.6c0.9,0,1.7,0.2,2.5,0.7
				c0.8,0.4,1.3,1.1,1.7,1.8c0.2,0.4,0.3,0.8,0.4,1.2C78,268.4,78.1,268.9,78.1,269.5z M69.8,268.4h7c-0.2-0.9-0.6-1.6-1.3-2.2
				c-0.6-0.5-1.4-0.8-2.3-0.8c-0.9,0-1.6,0.3-2.3,0.8C70.4,266.8,70,267.5,69.8,268.4z"/>
			<path d="M89,269.5h-8.3c0,0.9,0.4,1.7,1.1,2.3c0.7,0.6,1.5,0.9,2.5,0.9c0.7,0,1.3-0.2,1.9-0.6c0.6-0.4,1-0.9,1.3-1.5h1.3
				c-0.3,1-0.9,1.8-1.7,2.4s-1.7,0.9-2.7,0.9c-0.7,0-1.3-0.1-1.9-0.4c-0.6-0.3-1.1-0.6-1.6-1c-0.4-0.4-0.8-0.9-1-1.5
				c-0.3-0.6-0.4-1.2-0.4-1.9c0-0.9,0.2-1.7,0.6-2.4c0.4-0.7,1-1.3,1.7-1.7c0.7-0.4,1.5-0.6,2.4-0.6c0.9,0,1.7,0.2,2.5,0.7
				c0.8,0.4,1.3,1.1,1.7,1.8c0.2,0.4,0.3,0.8,0.4,1.2C89,268.4,89,268.9,89,269.5z M80.7,268.4h7c-0.2-0.9-0.6-1.6-1.3-2.2
				c-0.6-0.5-1.4-0.8-2.3-0.8c-0.9,0-1.6,0.3-2.3,0.8C81.3,266.8,80.9,267.5,80.7,268.4z"/>
			<path d="M101.2,270.4h1.4c-1.3,2.3-3.1,3.5-5.7,3.5c-0.9,0-1.8-0.2-2.6-0.5c-0.8-0.3-1.5-0.8-2.1-1.3c-0.6-0.6-1-1.2-1.4-2
				c-0.3-0.8-0.5-1.6-0.5-2.5c0-1.2,0.3-2.3,0.8-3.3c0.6-1,1.3-1.8,2.3-2.3s2.1-0.8,3.3-0.8c1.3,0,2.4,0.3,3.5,0.9
				c1,0.6,1.8,1.5,2.3,2.5h-1.4c-0.2-0.4-0.5-0.7-0.7-0.9s-0.5-0.4-0.8-0.6c-0.8-0.5-1.8-0.8-2.8-0.8c-0.7,0-1.4,0.1-2.1,0.4
				c-0.6,0.3-1.2,0.6-1.7,1.1c-0.5,0.5-0.8,1-1.1,1.7c-0.3,0.7-0.4,1.3-0.4,2.1c0,0.7,0.1,1.4,0.4,2.1c0.3,0.7,0.6,1.2,1.1,1.7
				c0.5,0.5,1,0.8,1.7,1.1c0.6,0.3,1.3,0.4,2,0.4c0.6,0,1.1-0.1,1.7-0.3c0.5-0.2,1-0.5,1.5-0.8C100.4,271.4,100.8,270.9,101.2,270.4
				z"/>
			<path d="M103.1,273.7l5.3-12.4h1.4l5.3,12.4h-1.4l-1.8-4.2h-5.8l-1.8,4.2H103.1z M106.7,268.4h4.8l-2.4-5.7L106.7,268.4z"/>
			<path d="M116.7,273.7v-12.4h2.9c1.2,0,2.1,0.1,2.9,0.2c0.7,0.2,1.4,0.4,2,0.8c0.9,0.6,1.5,1.3,2,2.1c0.5,0.9,0.7,1.9,0.7,3
				c0,1.2-0.3,2.2-0.8,3.1c-0.5,0.9-1.3,1.6-2.2,2.2c-1,0.6-2.4,0.9-4.2,0.9H116.7z M117.9,272.6h1.7c1.1,0,2.1-0.1,2.8-0.3
				s1.3-0.5,1.8-0.9c0.5-0.5,1-1,1.2-1.7c0.3-0.7,0.4-1.4,0.4-2.2c0-0.9-0.2-1.8-0.6-2.6s-1-1.4-1.7-1.8c-0.5-0.3-1-0.4-1.6-0.6
				c-0.6-0.1-1.4-0.2-2.3-0.2h-1.7V272.6z"/>
			<path d="M133.8,273.7v-12.4h3.4c0.8,0,1.5,0,2,0.1c0.5,0.1,1,0.3,1.3,0.5c0.5,0.3,0.8,0.7,1.1,1.2c0.3,0.5,0.4,1.2,0.4,1.9
				c0,0.6-0.1,1.2-0.3,1.7c-0.2,0.5-0.5,0.9-0.9,1.2c-0.4,0.3-0.8,0.5-1.3,0.6c-0.5,0.1-1.2,0.2-2,0.2H135v5H133.8z M135,267.5h2.3
				c1.1,0,1.9-0.1,2.4-0.4c0.3-0.2,0.6-0.4,0.8-0.8s0.3-0.8,0.3-1.3c0-0.6-0.1-1.1-0.4-1.5s-0.6-0.7-1-0.8c-0.5-0.2-1.4-0.3-2.6-0.3
				H135V267.5z"/>
			<path d="M143.5,273.7v-9.2h1.2v1.3c0.2-0.5,0.6-0.9,1-1.1c0.4-0.2,1-0.4,1.6-0.4v1.2c-1.7,0.2-2.6,1.1-2.6,2.8v5.4H143.5z"/>
			<path d="M152.6,264.3c0.9,0,1.7,0.2,2.4,0.6c0.7,0.4,1.3,1,1.7,1.7c0.4,0.7,0.6,1.6,0.6,2.5c0,1.4-0.4,2.5-1.3,3.4
				c-0.9,0.9-2,1.4-3.4,1.4c-0.9,0-1.8-0.2-2.5-0.6c-0.7-0.4-1.3-1-1.8-1.7c-0.4-0.7-0.6-1.6-0.6-2.5c0-1.4,0.5-2.5,1.4-3.5
				C150.1,264.7,151.2,264.3,152.6,264.3z M152.5,265.4c-1,0-1.8,0.4-2.5,1.1c-0.7,0.7-1,1.6-1,2.6c0,1,0.3,1.9,1,2.6
				c0.7,0.7,1.5,1,2.6,1c1,0,1.8-0.3,2.5-1s1-1.5,1-2.6c0-1.1-0.3-2-1-2.7C154.4,265.8,153.6,265.4,152.5,265.4z"/>
			<path d="M160.4,264.5v8.5c0,0.9-0.1,1.6-0.3,2.1c-0.2,0.5-0.5,0.9-1,1.2c-0.5,0.3-1.1,0.5-1.8,0.6v-1.2c0.7,0,1.2-0.3,1.5-0.6
				c0.3-0.4,0.4-1.1,0.4-2v-8.5H160.4z M159.2,263.4v-2.1h1.2v2.1H159.2z"/>
			<path d="M171.7,269.5h-8.3c0,0.9,0.4,1.7,1.1,2.3c0.7,0.6,1.5,0.9,2.5,0.9c0.7,0,1.3-0.2,1.9-0.6c0.6-0.4,1-0.9,1.3-1.5h1.3
				c-0.3,1-0.9,1.8-1.7,2.4s-1.7,0.9-2.7,0.9c-0.7,0-1.3-0.1-1.9-0.4c-0.6-0.3-1.1-0.6-1.6-1c-0.4-0.4-0.8-0.9-1-1.5
				s-0.4-1.2-0.4-1.9c0-0.9,0.2-1.7,0.6-2.4c0.4-0.7,1-1.3,1.7-1.7c0.7-0.4,1.5-0.6,2.4-0.6c0.9,0,1.7,0.2,2.5,0.7
				c0.8,0.4,1.3,1.1,1.7,1.8c0.2,0.4,0.3,0.8,0.4,1.2C171.7,268.4,171.7,268.9,171.7,269.5z M163.5,268.4h7
				c-0.2-0.9-0.6-1.6-1.3-2.2c-0.6-0.5-1.4-0.8-2.3-0.8c-0.9,0-1.6,0.3-2.3,0.8C164,266.8,163.6,267.5,163.5,268.4z"/>
			<path d="M181.2,271h1.4c-0.3,0.5-0.5,0.9-0.7,1.2s-0.5,0.5-0.8,0.8c-0.8,0.7-1.8,1-3,1c-0.9,0-1.8-0.2-2.5-0.6s-1.4-1-1.8-1.7
				c-0.4-0.7-0.7-1.6-0.7-2.5c0-0.9,0.2-1.7,0.7-2.4c0.4-0.7,1-1.3,1.8-1.7c0.8-0.4,1.6-0.6,2.5-0.6c1,0,2,0.3,2.8,0.8
				c0.8,0.5,1.4,1.3,1.8,2.2h-1.4c-0.4-0.6-0.8-1.1-1.4-1.4c-0.5-0.3-1.2-0.5-1.8-0.5c-1,0-1.9,0.4-2.6,1.1s-1.1,1.6-1.1,2.6
				c0,1,0.4,1.9,1.1,2.6c0.7,0.7,1.6,1.1,2.6,1.1c0.7,0,1.2-0.1,1.7-0.4S180.7,271.6,181.2,271z"/>
			<path d="M185.4,273.7v-8.1h-2v-1.1h2v-3.2h1.2v3.2h2.1v1.1h-2.1v8.1H185.4z"/>
			<path d="M193.8,273.7l5.3-12.4h1.4l5.3,12.4h-1.4l-1.8-4.2h-5.8l-1.8,4.2H193.8z M197.4,268.4h4.8l-2.4-5.7L197.4,268.4z"/>
			<path d="M206.3,271h1.2c0,0.6,0.2,1,0.5,1.3s0.7,0.5,1.2,0.5c0.5,0,0.8-0.1,1.1-0.4c0.3-0.3,0.4-0.7,0.4-1.1c0-0.4-0.1-0.7-0.3-1
				c-0.2-0.2-0.7-0.5-1.4-0.8c-0.7-0.3-1.1-0.5-1.2-0.5c-0.1-0.1-0.3-0.2-0.5-0.4c-0.5-0.4-0.7-1-0.7-1.6c0-0.8,0.2-1.4,0.7-1.9
				c0.5-0.5,1.1-0.7,1.9-0.7c0.7,0,1.3,0.2,1.8,0.7c0.5,0.5,0.7,1.1,0.8,1.8h-1.3c0-0.4-0.2-0.8-0.4-1c-0.2-0.2-0.5-0.3-0.9-0.3
				c-0.4,0-0.7,0.1-0.9,0.4c-0.3,0.3-0.4,0.6-0.4,0.9c0,0.5,0.3,0.9,0.9,1.2c0.7,0.3,1.2,0.5,1.7,0.7c1.1,0.4,1.6,1.2,1.6,2.3
				c0,0.8-0.3,1.5-0.8,2.1s-1.2,0.8-2,0.8c-0.9,0-1.6-0.3-2.1-0.8S206.3,271.9,206.3,271z"/>
			<path d="M212.8,271h1.2c0,0.6,0.2,1,0.5,1.3s0.7,0.5,1.2,0.5c0.5,0,0.8-0.1,1.1-0.4c0.3-0.3,0.4-0.7,0.4-1.1c0-0.4-0.1-0.7-0.3-1
				c-0.2-0.2-0.7-0.5-1.4-0.8c-0.7-0.3-1.1-0.5-1.2-0.5c-0.1-0.1-0.3-0.2-0.5-0.4c-0.5-0.4-0.7-1-0.7-1.6c0-0.8,0.2-1.4,0.7-1.9
				c0.5-0.5,1.1-0.7,1.9-0.7c0.7,0,1.3,0.2,1.8,0.7c0.5,0.5,0.7,1.1,0.8,1.8h-1.3c0-0.4-0.2-0.8-0.4-1c-0.2-0.2-0.5-0.3-0.9-0.3
				c-0.4,0-0.7,0.1-0.9,0.4c-0.3,0.3-0.4,0.6-0.4,0.9c0,0.5,0.3,0.9,0.9,1.2c0.7,0.3,1.2,0.5,1.7,0.7c1.1,0.4,1.6,1.2,1.6,2.3
				c0,0.8-0.3,1.5-0.8,2.1s-1.2,0.8-2,0.8c-0.9,0-1.6-0.3-2.1-0.8S212.9,271.9,212.8,271z"/>
			<path d="M224.6,264.3c0.9,0,1.7,0.2,2.4,0.6c0.7,0.4,1.3,1,1.7,1.7s0.6,1.6,0.6,2.5c0,1.4-0.4,2.5-1.3,3.4
				c-0.9,0.9-2,1.4-3.4,1.4c-0.9,0-1.8-0.2-2.5-0.6c-0.7-0.4-1.3-1-1.8-1.7c-0.4-0.7-0.6-1.6-0.6-2.5c0-1.4,0.5-2.5,1.4-3.5
				C222.1,264.7,223.2,264.3,224.6,264.3z M224.5,265.4c-1,0-1.8,0.4-2.5,1.1c-0.7,0.7-1,1.6-1,2.6c0,1,0.3,1.9,1,2.6
				c0.7,0.7,1.5,1,2.6,1c1,0,1.8-0.3,2.5-1c0.6-0.7,1-1.5,1-2.6c0-1.1-0.3-2-1-2.7S225.6,265.4,224.5,265.4z"/>
			<path d="M238.9,271h1.4c-0.3,0.5-0.5,0.9-0.7,1.2s-0.5,0.5-0.8,0.8c-0.8,0.7-1.8,1-3,1c-0.9,0-1.8-0.2-2.5-0.6s-1.4-1-1.8-1.7
				c-0.4-0.7-0.7-1.6-0.7-2.5c0-0.9,0.2-1.7,0.7-2.4c0.4-0.7,1-1.3,1.8-1.7c0.8-0.4,1.6-0.6,2.5-0.6c1,0,2,0.3,2.8,0.8
				c0.8,0.5,1.4,1.3,1.8,2.2h-1.4c-0.4-0.6-0.8-1.1-1.4-1.4c-0.5-0.3-1.2-0.5-1.8-0.5c-1,0-1.9,0.4-2.6,1.1s-1.1,1.6-1.1,2.6
				c0,1,0.4,1.9,1.1,2.6c0.7,0.7,1.6,1.1,2.6,1.1c0.7,0,1.2-0.1,1.7-0.4S238.4,271.6,238.9,271z"/>
			<path d="M242,263.4v-2.1h1.2v2.1H242z M242,273.7v-9.2h1.2v9.2H242z"/>
			<path d="M254.7,264.5v9.2h-1.2v-1.6c-0.5,0.7-1,1.1-1.5,1.4s-1.2,0.4-2,0.4c-0.9,0-1.8-0.2-2.5-0.6c-0.8-0.4-1.3-1-1.8-1.7
				c-0.4-0.7-0.6-1.5-0.6-2.5c0-0.9,0.2-1.7,0.6-2.5c0.4-0.7,1-1.3,1.7-1.7c0.7-0.4,1.6-0.6,2.5-0.6c0.8,0,1.5,0.1,2.1,0.4
				c0.6,0.3,1.1,0.8,1.6,1.4v-1.6H254.7z M249.8,265.4c-1,0-1.8,0.4-2.5,1.1c-0.7,0.7-1,1.6-1,2.6c0,1,0.4,1.9,1.1,2.6
				c0.7,0.7,1.6,1.1,2.6,1.1c1,0,1.8-0.4,2.5-1.1c0.7-0.7,1-1.6,1-2.6c0-1-0.3-1.9-1-2.6C251.7,265.8,250.9,265.4,249.8,265.4z"/>
			<path d="M257.9,273.7v-8.1h-2v-1.1h2v-3.2h1.2v3.2h2.1v1.1h-2.1v8.1H257.9z"/>
			<path d="M262.5,263.4v-2.1h1.2v2.1H262.5z M262.5,273.7v-9.2h1.2v9.2H262.5z"/>
			<path d="M270.4,264.3c0.9,0,1.7,0.2,2.4,0.6c0.7,0.4,1.3,1,1.7,1.7c0.4,0.7,0.6,1.6,0.6,2.5c0,1.4-0.4,2.5-1.3,3.4
				c-0.9,0.9-2,1.4-3.4,1.4c-0.9,0-1.8-0.2-2.5-0.6c-0.7-0.4-1.3-1-1.8-1.7c-0.4-0.7-0.6-1.6-0.6-2.5c0-1.4,0.5-2.5,1.4-3.5
				S269,264.3,270.4,264.3z M270.3,265.4c-1,0-1.8,0.4-2.5,1.1c-0.7,0.7-1,1.6-1,2.6c0,1,0.3,1.9,1,2.6c0.7,0.7,1.5,1,2.6,1
				c1,0,1.8-0.3,2.5-1s1-1.5,1-2.6c0-1.1-0.3-2-1-2.7C272.2,265.8,271.3,265.4,270.3,265.4z"/>
			<path d="M276.9,273.7v-9.2h1.2v1.2c0.8-0.9,1.7-1.4,3-1.4c0.7,0,1.2,0.1,1.8,0.4c0.5,0.2,1,0.6,1.3,1.1c0.3,0.4,0.5,0.8,0.6,1.3
				c0.1,0.5,0.2,1.1,0.2,1.9v4.8h-1.2v-4.8c0-0.6,0-1.1-0.2-1.5c-0.1-0.4-0.3-0.7-0.5-1c-0.5-0.6-1.2-0.9-2.2-0.9
				c-0.5,0-1,0.1-1.4,0.3c-0.4,0.2-0.7,0.5-1,0.9c-0.2,0.3-0.3,0.5-0.3,0.8c-0.1,0.3-0.1,0.7-0.1,1.2v5.1H276.9z"/>
		</g>
	</g>
</g>
</svg>
