<?xml version="1.0" encoding="UTF-8" standalone="no"?>
<!-- Generator: Adobe Illustrator 27.5.0, SVG Export Plug-In . SVG Version: 6.00 Build 0)  -->

<svg
   version="1.1"
   id="svg1121"
   x="0px"
   y="0px"
   viewBox="0 0 246.7 110.4"
   style="enable-background:new 0 0 246.7 110.4;"
   xml:space="preserve"
   xmlns="http://www.w3.org/2000/svg"
   xmlns:svg="http://www.w3.org/2000/svg"><defs
   id="defs31" />
<style
   type="text/css"
   id="style1">
	
		.st0{fill-rule:evenodd;clip-rule:evenodd;fill:url(#path3659-5-9-6-6_00000062159559406065373850000005023399515258205082_);stroke:#000137;stroke-width:2.8117;stroke-linecap:round;stroke-linejoin:round;stroke-miterlimit:11.3386;}
	.st1{fill:none;stroke:#729FCF;stroke-width:2.8117;stroke-linecap:round;stroke-linejoin:round;stroke-miterlimit:11.3386;}
	
		.st2{fill-rule:evenodd;clip-rule:evenodd;fill:url(#rect3663-8-7-7-1_00000045601676350928402770000017772596137064687295_);stroke:#280000;stroke-width:2.8117;stroke-miterlimit:11.3386;}
	.st3{fill:none;stroke:#EF2929;stroke-width:2.8117;stroke-miterlimit:11.3386;}
	.st4{enable-background:new    ;}
</style>

<g
   id="layer1"
   transform="translate(-38.265973,-166.53193)"><g
   id="text32-2"
   style="font-size:13.3333px;font-family:Evolventa;-inkscape-font-specification:'Evolventa, Normal';font-variant-ligatures:no-common-ligatures;fill:#212529;stroke-width:2;stroke-linecap:round;stroke-linejoin:round"
   aria-label="FreeCAD Project Association"><path
     d="m 99.606272,268.04034 h 0.986668 v -4.50665 h 3.86665 v -0.89333 h -3.86665 v -3.55999 h 4.01332 v -0.89333 h -4.999988 z m 6.146668,0 h 0.98666 v -4.25332 c 0,-1.35999 0.69333,-2.10666 2.06666,-2.23999 v -0.97333 c -1.05333,0.0533 -1.67999,0.41333 -2.06666,1.21333 v -1.04 h -0.98666 z m 10.94664,-3.31999 c 0,-0.97333 -0.12,-1.54666 -0.43999,-2.15999 -0.64,-1.22667 -1.93333,-1.98666 -3.37333,-1.98666 -2.10666,0 -3.77332,1.66666 -3.77332,3.78665 0,2.16 1.69333,3.85333 3.85332,3.85333 1.58666,0 3.01333,-1.04 3.54666,-2.57333 h -1.02667 c -0.41333,1 -1.43999,1.66666 -2.54666,1.66666 -1.50666,0 -2.75999,-1.14666 -2.83999,-2.58666 z m -6.57331,-0.89333 c 0.26666,-1.39999 1.37333,-2.34666 2.75999,-2.34666 1.41333,0 2.49333,0.89333 2.82666,2.34666 z m 15.23995,0.89333 c 0,-0.97333 -0.12,-1.54666 -0.44,-2.15999 -0.63999,-1.22667 -1.93332,-1.98666 -3.37332,-1.98666 -2.10666,0 -3.77332,1.66666 -3.77332,3.78665 0,2.16 1.69333,3.85333 3.85332,3.85333 1.58666,0 3.01333,-1.04 3.54666,-2.57333 h -1.02667 c -0.41333,1 -1.43999,1.66666 -2.54666,1.66666 -1.50666,0 -2.75999,-1.14666 -2.83999,-2.58666 z m -6.57331,-0.89333 c 0.26666,-1.39999 1.37333,-2.34666 2.75999,-2.34666 1.41333,0 2.49333,0.89333 2.82666,2.34666 z"
     id="path4" /><path
     d="m 135.05953,265.45368 c -0.38667,0.50667 -0.62667,0.74667 -0.93333,1 -0.68,0.54667 -1.57333,0.85333 -2.49333,0.85333 -2.29333,0 -4.15999,-1.87999 -4.15999,-4.19999 0,-2.37332 1.78666,-4.18665 4.14666,-4.18665 0.83999,0 1.59999,0.21333 2.25332,0.62666 0.46667,0.29333 0.74667,0.58667 1.13333,1.2 h 1.10667 c -0.76,-1.69333 -2.49333,-2.73333 -4.53332,-2.73333 -2.93333,0 -5.10666,2.18666 -5.10666,5.13332 0,2.88 2.22666,5.06666 5.17332,5.06666 2,0 3.51999,-0.93333 4.50666,-2.76 z m 1.52,2.58666 h 1.03999 l 1.44,-3.31999 h 4.58666 l 1.42666,3.31999 h 1.08 l -4.23999,-9.8533 h -1.10667 z m 2.85332,-4.21332 1.93333,-4.51999 1.89333,4.51999 z m 7.87998,4.21332 h 2.65333 c 1.42666,0 2.43999,-0.21333 3.29332,-0.67999 1.54666,-0.85334 2.37333,-2.33333 2.37333,-4.21333 0,-1.81333 -0.73333,-3.23999 -2.13333,-4.11999 -0.96,-0.61333 -2.02666,-0.83999 -3.86666,-0.83999 h -2.31999 z m 0.98666,-0.89333 v -8.06664 h 1.37333 c 1.44,0 2.36,0.17333 3.08,0.58666 1.18666,0.66667 1.87999,1.93333 1.87999,3.43999 0,1.25333 -0.48,2.36 -1.33333,3.09333 -0.8,0.68 -1.82666,0.94666 -3.62666,0.94666 z"
     id="path5" /><path
     d="m 160.92613,268.04034 h 0.98666 v -3.98665 h 1.89333 c 1.33333,0 2.05333,-0.17334 2.65333,-0.61333 0.64,-0.46667 0.98666,-1.28 0.98666,-2.26667 0,-1.13333 -0.42666,-2.02666 -1.17333,-2.46666 -0.61333,-0.37333 -1.35999,-0.51999 -2.62666,-0.51999 h -2.71999 z m 0.98666,-4.87998 v -4.07999 h 1.4 c 0.97333,0 1.58666,0.0667 2.02666,0.21333 0.70667,0.22667 1.10667,0.90666 1.10667,1.86666 0,0.77333 -0.29334,1.38666 -0.81333,1.66666 -0.41334,0.24 -0.98667,0.33334 -1.89333,0.33334 z m 6.73333,4.87998 h 0.98666 v -4.25332 c 0,-1.35999 0.69334,-2.10666 2.06667,-2.23999 v -0.97333 c -1.05334,0.0533 -1.68,0.41333 -2.06667,1.21333 v -1.04 h -0.98666 z m 7.23999,-7.46664 c -2.24,0 -3.86666,1.61333 -3.86666,3.82665 0,2.18666 1.66666,3.81333 3.89332,3.81333 2.14666,0 3.71999,-1.61333 3.71999,-3.79999 0,-2.2 -1.59999,-3.83999 -3.74665,-3.83999 z m -0.08,0.90666 c 1.65332,0 2.82665,1.22666 2.82665,2.94666 0,1.68 -1.14666,2.87999 -2.74665,2.87999 -1.65333,0 -2.86666,-1.22666 -2.86666,-2.89332 0,-1.68 1.18666,-2.93333 2.78666,-2.93333 z m 6.25332,-0.73333 h -0.98666 v 6.78665 c 0,1.52 -0.37333,2.05333 -1.48,2.11999 v 0.94667 c 0.61334,-0.0267 1.04,-0.16 1.46667,-0.45333 0.75999,-0.53334 0.99999,-1.14667 0.99999,-2.61333 z m -0.98666,-0.88 h 0.98666 v -1.67999 h -0.98666 z m 9.9733,4.85332 c 0,-0.97333 -0.12,-1.54666 -0.44,-2.15999 -0.64,-1.22667 -1.93333,-1.98666 -3.37333,-1.98666 -2.10666,0 -3.77332,1.66666 -3.77332,3.78665 0,2.16 1.69333,3.85333 3.85332,3.85333 1.58667,0 3.01333,-1.04 3.54666,-2.57333 h -1.02666 c -0.41333,1 -1.44,1.66666 -2.54666,1.66666 -1.50667,0 -2.76,-1.14666 -2.84,-2.58666 z m -6.57332,-0.89333 c 0.26667,-1.39999 1.37333,-2.34666 2.75999,-2.34666 1.41333,0 2.49333,0.89333 2.82666,2.34666 z m 14.07995,2.06666 c -0.75999,1.01333 -1.45333,1.41333 -2.49332,1.41333 -1.64,0 -2.93333,-1.27999 -2.93333,-2.90666 0,-1.63999 1.26666,-2.91999 2.89333,-2.91999 1.07999,0 1.97333,0.52 2.53332,1.48 h 1.10667 c -0.58667,-1.46667 -1.97333,-2.38666 -3.62666,-2.38666 -2.18666,0 -3.90666,1.67999 -3.90666,3.79999 0,2.17332 1.73333,3.83999 3.97333,3.83999 0.87999,0 1.70666,-0.26667 2.37332,-0.78667 0.49334,-0.37333 0.78667,-0.76 1.2,-1.53333 z m 3.37332,2.14666 h 0.98667 v -6.39998 h 1.63999 v -0.89333 h -1.63999 v -2.55999 h -0.98667 v 2.55999 h -1.57332 v 0.89333 h 1.57332 z m 6.62667,0 h 1.03999 l 1.44,-3.31999 h 4.58666 l 1.42666,3.31999 h 1.08 l -4.23999,-9.8533 h -1.10667 z m 2.85332,-4.21332 1.93333,-4.51999 1.89333,4.51999 z m 7.10665,2.06666 c 0.0133,1.41333 0.93333,2.32 2.34666,2.32 1.32,0 2.22666,-0.93333 2.22666,-2.26666 0,-0.89333 -0.41333,-1.50667 -1.26666,-1.86667 -1.09333,-0.45333 -1.14667,-0.47999 -1.36,-0.57333 -0.46667,-0.24 -0.68,-0.54666 -0.68,-0.97333 0,-0.58666 0.46667,-1.05333 1.05333,-1.05333 0.64,0 1.01333,0.37333 1.06667,1.06666 h 0.99999 c -0.04,-1.17333 -0.87999,-1.97332 -2.05332,-1.97332 -1.2,0 -2.06667,0.86666 -2.06667,2.05332 0,0.53334 0.18667,0.97334 0.54667,1.30667 0.30667,0.28 0.32,0.28 1.34666,0.70666 1.14667,0.46667 1.41333,0.73333 1.41333,1.4 0,0.73333 -0.50666,1.26666 -1.22666,1.26666 -0.82667,0 -1.32,-0.50666 -1.37333,-1.41333 z m 5.17333,0 c 0.0133,1.41333 0.93333,2.32 2.34666,2.32 1.32,0 2.22666,-0.93333 2.22666,-2.26666 0,-0.89333 -0.41333,-1.50667 -1.26666,-1.86667 -1.09333,-0.45333 -1.14666,-0.47999 -1.36,-0.57333 -0.46666,-0.24 -0.68,-0.54666 -0.68,-0.97333 0,-0.58666 0.46667,-1.05333 1.05334,-1.05333 0.63999,0 1.01333,0.37333 1.06666,1.06666 h 1 c -0.04,-1.17333 -0.88,-1.97332 -2.05333,-1.97332 -1.2,0 -2.06666,0.86666 -2.06666,2.05332 0,0.53334 0.18666,0.97334 0.54666,1.30667 0.30667,0.28 0.32,0.28 1.34667,0.70666 1.14666,0.46667 1.41333,0.73333 1.41333,1.4 0,0.73333 -0.50667,1.26666 -1.22667,1.26666 -0.82666,0 -1.32,-0.50666 -1.37333,-1.41333 z m 9.35997,-5.31998 c -2.23999,0 -3.86665,1.61333 -3.86665,3.82665 0,2.18666 1.66666,3.81333 3.89332,3.81333 2.14666,0 3.71999,-1.61333 3.71999,-3.79999 0,-2.2 -1.59999,-3.83999 -3.74666,-3.83999 z m -0.08,0.90666 c 1.65333,0 2.82666,1.22666 2.82666,2.94666 0,1.68 -1.14666,2.87999 -2.74666,2.87999 -1.65333,0 -2.86666,-1.22666 -2.86666,-2.89332 0,-1.68 1.18667,-2.93333 2.78666,-2.93333 z m 11.37332,4.41332 c -0.76,1.01333 -1.45333,1.41333 -2.49333,1.41333 -1.63999,0 -2.93332,-1.27999 -2.93332,-2.90666 0,-1.63999 1.26666,-2.91999 2.89332,-2.91999 1.08,0 1.97333,0.52 2.53333,1.48 h 1.10666 c -0.58666,-1.46667 -1.97332,-2.38666 -3.62665,-2.38666 -2.18667,0 -3.90666,1.67999 -3.90666,3.79999 0,2.17332 1.73333,3.83999 3.97332,3.83999 0.88,0 1.70666,-0.26667 2.37333,-0.78667 0.49333,-0.37333 0.78666,-0.76 1.2,-1.53333 z m 2.48,2.14666 h 0.98666 v -7.29331 h -0.98666 z m 0,-8.17331 h 0.98666 v -1.67999 h -0.98666 z m 10.09332,0.88 h -0.98667 v 1.29333 c -0.73333,-1.02666 -1.61333,-1.46666 -2.87999,-1.46666 -2.18666,0 -3.83999,1.65333 -3.83999,3.83999 0,2.18666 1.66666,3.79999 3.91999,3.79999 1.24,0 2.02666,-0.41334 2.79999,-1.45333 v 1.27999 h 0.98667 z m -3.87999,0.73333 c 1.65333,0 2.89332,1.24 2.89332,2.89333 0,1.65333 -1.22666,2.93332 -2.81332,2.93332 -1.61333,0 -2.90666,-1.29333 -2.90666,-2.93332 0,-1.6 1.26666,-2.89333 2.82666,-2.89333 z m 6.45331,6.55998 h 0.98667 v -6.39998 h 1.63999 v -0.89333 h -1.63999 v -2.55999 h -0.98667 v 2.55999 h -1.57333 v 0.89333 h 1.57333 z m 3.62668,0 h 0.98666 v -7.29331 h -0.98666 z m 0,-8.17331 h 0.98666 v -1.67999 h -0.98666 z m 6.25331,0.70667 c -2.23999,0 -3.86666,1.61333 -3.86666,3.82665 0,2.18666 1.66667,3.81333 3.89333,3.81333 2.14666,0 3.71999,-1.61333 3.71999,-3.79999 0,-2.2 -1.6,-3.83999 -3.74666,-3.83999 z m -0.08,0.90666 c 1.65333,0 2.82666,1.22666 2.82666,2.94666 0,1.68 -1.14666,2.87999 -2.74666,2.87999 -1.65333,0 -2.86666,-1.22666 -2.86666,-2.89332 0,-1.68 1.18666,-2.93333 2.78666,-2.93333 z m 5.22666,6.55998 h 0.98667 v -4.01332 c 0,-0.78666 0.0933,-1.21333 0.34666,-1.61333 0.38667,-0.58666 1.08,-0.93333 1.88,-0.93333 0.70666,0 1.33333,0.26667 1.73333,0.74667 0.37333,0.45333 0.52,0.99999 0.52,1.98666 v 3.82665 h 0.98666 v -3.82665 c 0,-1.22667 -0.17333,-1.88 -0.64,-2.50666 -0.57333,-0.73333 -1.45333,-1.13333 -2.47999,-1.13333 -0.96,0 -1.73333,0.36 -2.34666,1.11999 v -0.94666 h -0.98667 z"
     id="path6" /></g>
	<g
   id="g32"
   transform="matrix(0.79999999,0,0,0.79999999,-2.6379067,31.016612)"
   style="stroke-width:1.25"><path
     d="m 130.44994,185.14117 -15.74701,15.74905 H 83.206869 v 11.81027 h 15.747016 v 15.74902 H 83.206869 v 19.68378 l -15.749047,15.74905 h 15.946393 c 1.193938,0 2.251508,-0.76878 2.620434,-1.90429 l 2.850334,-8.77276 c 0.272638,-0.83893 0.93106,-1.49539 1.770012,-1.76798 l 2.191154,-0.71205 c 0.839008,-0.27284 1.758177,-0.12796 2.471913,0.39055 l 7.460508,5.42192 c 0.96586,0.7017 2.27507,0.7017 3.24096,0 l 6.68738,-4.86042 c 0.96599,-0.70175 1.36994,-1.9447 1.00098,-3.08025 l -2.85033,-8.77275 c -0.27268,-0.83897 -0.12587,-1.75815 0.39267,-2.47189 l 1.35497,-1.86362 c 0.5185,-0.71367 1.34564,-1.1372 2.22778,-1.13729 l 9.22442,0.002 c 1.194,4e-5 2.25151,-0.77074 2.62043,-1.90629 l 2.55532,-7.8613 c 0.3689,-1.13552 -0.0351,-2.38051 -1.00096,-3.0823 l -7.46255,-5.42189 c -0.71371,-0.51852 -1.13526,-1.34558 -1.13524,-2.22778 v -2.30508 c 7e-5,-0.88216 0.4215,-1.71135 1.13524,-2.2298 l 8.55505,-6.2154 c 0.71369,-0.51855 1.13525,-1.34764 1.13525,-2.2298 z"
     style="fill:#418fde;fill-opacity:1;fill-rule:evenodd;stroke:none;stroke-width:3.30708;stroke-linecap:square"
     id="path8-3" /><path
     id="path7-6"
     style="display:inline;fill:#ff585d;fill-opacity:1;fill-rule:evenodd;stroke:none;stroke-width:3.30708;stroke-linecap:square"
     d="m 114.70191,169.39415 -15.748025,15.74803 h 15.748025 v 15.74804 l 15.74803,-15.74804 v -15.74803 z m -47.244088,62.99213 -15.74803,15.74803 v 15.74803 h 15.74803 L 83.205853,248.13431 H 67.457822 Z" /><path
     d="m 67.457822,169.39415 -15.74803,15.74803 v 62.99213 l 15.74803,-15.74803 v -47.2441 h 31.496063 l 15.748025,-15.74803 z"
     style="fill:#cb333b;fill-rule:evenodd;stroke-width:3.30708;stroke-linecap:square"
     id="path3" /><path
     d="M 67.457822,248.13329 H 83.206869 V 228.44951 H 98.953885 V 212.70049 H 83.206869 V 200.89022 H 114.70293 V 185.14117 H 67.457822 Z"
     style="fill:#fefefe;fill-opacity:1;fill-rule:evenodd;stroke:none;stroke-width:3.30708;stroke-linecap:square"
     id="path9-6" /></g>
<path
   d="m 137.99807,229.9752 h 8.768 v -19.392 h 14.592 v -8.384 h -14.592 v -11.136 h 15.296 v -8.384 h -24.064 z m 31.68005,0 h 8.768 v -17.984 h 2.816 c 6.464,0 9.472,-0.512 12.032,-1.92 4.096,-2.304 6.592,-7.168 6.592,-12.8 0,-5.312 -2.176,-9.664 -6.016,-12.16 -2.816,-1.792 -6.016,-2.432 -12.48,-2.432 h -11.712 z m 8.768,-26.368 v -12.544 h 2.944 c 2.88,0 4.224,0.128 5.568,0.448 2.56,0.704 4.096,2.944 4.096,5.952 0,2.688 -1.536,4.8 -4.032,5.504 -1.408,0.448 -3.456,0.64 -6.016,0.64 z m 17.66396,26.368 h 9.664 l 5.248,-12.224 h 16.832 l 5.056,12.224 h 9.664 l -19.84,-47.296 h -6.912 z m 18.112,-20.608 5.056,-14.336 5.056,14.336 z"
   id="text32"
   style="font-weight:bold;font-size:64px;font-family:Evolventa;-inkscape-font-specification:'Evolventa, Bold';font-variant-ligatures:no-common-ligatures;fill:#212529;stroke-width:2;stroke-linecap:round;stroke-linejoin:round"
   aria-label="FPA" /></g>
</svg>
