<?xml version="1.0" encoding="UTF-8" standalone="no"?>
<!-- Created with Inkscape (http://www.inkscape.org/) -->

<svg
   width="133.4877mm"
   height="39.894917mm"
   viewBox="0 0 133.4877 39.894917"
   version="1.1"
   id="svg1121"
   inkscape:version="1.2.2 (b0a8486, 2022-12-01)"
   sodipodi:docname="FreeCADLogo.svg"
   xmlns:inkscape="http://www.inkscape.org/namespaces/inkscape"
   xmlns:sodipodi="http://sodipodi.sourceforge.net/DTD/sodipodi-0.dtd"
   xmlns:xlink="http://www.w3.org/1999/xlink"
   xmlns="http://www.w3.org/2000/svg"
   xmlns:svg="http://www.w3.org/2000/svg"
   xmlns:rdf="http://www.w3.org/1999/02/22-rdf-syntax-ns#"
   xmlns:cc="http://creativecommons.org/ns#"
   xmlns:dc="http://purl.org/dc/elements/1.1/">
  <defs
     id="defs1115">
    <linearGradient
       xlink:href="#linearGradient3864-9"
       id="linearGradient3808-5"
       x1="-146.74467"
       y1="58.261547"
       x2="-157.32494"
       y2="26.520763"
       gradientUnits="userSpaceOnUse"
       gradientTransform="matrix(1.0094494,0,0,1.0094493,58.906453,391.02962)" />
    <linearGradient
       id="linearGradient3864-9">
      <stop
         style="stop-color:#204a87;stop-opacity:1"
         offset="0"
         id="stop3866-1" />
      <stop
         style="stop-color:#729fcf;stop-opacity:1"
         offset="1"
         id="stop3868-1" />
    </linearGradient>
    <linearGradient
       xlink:href="#linearGradient3682-0"
       id="linearGradient3806-5-6"
       x1="-206.69949"
       y1="68.841812"
       x2="-211.40184"
       y2="7.7114096"
       gradientUnits="userSpaceOnUse" />
    <linearGradient
       id="linearGradient3682-0">
      <stop
         id="stop3684-0"
         offset="0"
         style="stop-color:#a40000;stop-opacity:1" />
      <stop
         id="stop3686-0"
         offset="1"
         style="stop-color:#ef2929;stop-opacity:1" />
    </linearGradient>
    <linearGradient
       xlink:href="#linearGradient3682-0"
       id="linearGradient3806-5-6-7"
       x1="-206.69949"
       y1="68.841812"
       x2="-211.40184"
       y2="7.7114096"
       gradientUnits="userSpaceOnUse"
       gradientTransform="matrix(0.42187476,0,0,0.42187476,163.84534,280.54128)" />
    <linearGradient
       xlink:href="#linearGradient3682-0"
       id="linearGradient3806-5-6-0"
       x1="-206.69949"
       y1="68.841812"
       x2="-211.40184"
       y2="7.7114096"
       gradientUnits="userSpaceOnUse"
       gradientTransform="translate(79.214426,387.30361)" />
    <linearGradient
       xlink:href="#linearGradient3864-9"
       id="linearGradient3808-5-3"
       x1="-146.74467"
       y1="58.261547"
       x2="-157.32494"
       y2="26.520763"
       gradientUnits="userSpaceOnUse"
       gradientTransform="matrix(1.0094494,0,0,1.0094493,70.39661,219.46532)" />
    <linearGradient
       xlink:href="#linearGradient3682-0"
       id="linearGradient3806-5-6-0-5"
       x1="-206.69949"
       y1="68.841812"
       x2="-211.40184"
       y2="7.7114096"
       gradientUnits="userSpaceOnUse"
       gradientTransform="translate(90.704587,215.73931)" />
  </defs>
  <sodipodi:namedview
     id="base"
     pagecolor="#ffffff"
     bordercolor="#666666"
     borderopacity="1.0"
     inkscape:pageopacity="0.0"
     inkscape:pageshadow="2"
     inkscape:zoom="1.9171156"
     inkscape:cx="234.98844"
     inkscape:cy="115.53816"
     inkscape:document-units="mm"
     inkscape:current-layer="layer1"
     showgrid="false"
     showguides="true"
     inkscape:guide-bbox="true"
     inkscape:snap-global="false"
     inkscape:window-width="1850"
     inkscape:window-height="1016"
     inkscape:window-x="70"
     inkscape:window-y="27"
     inkscape:window-maximized="1"
     inkscape:showpageshadow="2"
     inkscape:pagecheckerboard="0"
     inkscape:deskcolor="#d1d1d1">
    <sodipodi:guide
       position="35.233145,-41.669149"
       orientation="1,0"
       id="guide2227"
       inkscape:locked="false" />
    <sodipodi:guide
       position="-0.46835726,-10.554058"
       orientation="0,1"
       id="guide2229"
       inkscape:locked="false" />
    <sodipodi:guide
       position="-10.295738,-86.527272"
       orientation="0,1"
       id="guide2231"
       inkscape:locked="false" />
    <sodipodi:guide
       position="-0.046432258,-44.609114"
       orientation="1,0"
       id="guide2237"
       inkscape:locked="false" />
  </sodipodi:namedview>
  <metadata
     id="metadata1118">
    <rdf:RDF>
      <cc:Work
         rdf:about="">
        <dc:format>image/svg+xml</dc:format>
        <dc:type
           rdf:resource="http://purl.org/dc/dcmitype/StillImage" />
      </cc:Work>
    </rdf:RDF>
  </metadata>
  <g
     inkscape:label="Layer 1"
     inkscape:groupmode="layer"
     id="layer1"
     transform="translate(-38.265975,-118.41709)">
    <g
       id="g2464"
       transform="translate(9.9389917,-21.084028)">
      <g
         transform="matrix(0.42187476,0,0,0.42187476,120.48778,138.23167)"
         id="g3813-3-2-2">
        <path
           style="display:inline;overflow:visible;visibility:visible;fill:url(#linearGradient3808-5-3);fill-opacity:1;fill-rule:evenodd;stroke:#000137;stroke-width:2.35117;stroke-linecap:round;stroke-linejoin:round;stroke-miterlimit:4;stroke-dasharray:none;stroke-dashoffset:0;stroke-opacity:1;marker:none;enable-background:accumulate"
           d="m -159.14682,27.762572 -7.26628,4.168914 -3.20873,-1.113515 -3.06139,-7.823962 -4.81574,0.253068 -2.19659,8.090466 -3.07424,1.472191 -7.66769,-3.354213 -3.23863,3.598875 4.16893,7.266276 -1.13925,3.199324 -7.82397,3.061399 0.27879,4.825129 8.09048,2.196583 1.47219,3.074238 -3.37993,7.658303 3.59887,3.238623 7.26627,-4.168916 3.22506,1.148635 3.03567,7.81457 4.85085,-0.269405 2.17086,-8.099855 3.07425,-1.472193 7.68401,3.389334 3.23863,-3.598876 -4.16892,-7.266274 1.1229,-3.234445 7.81458,-3.035677 -0.24366,-4.841457 -8.09987,-2.170857 -1.4722,-3.074238 3.36361,-7.693423 z m -10.88267,11.915801 1.49161,0.865459 1.29232,1.171703 1.03462,1.398312 0.74426,1.554681 0.43759,1.67593 0.0725,1.71754 -0.24807,1.717095 -0.56614,1.630089 -0.90058,1.507949 -1.13658,1.275982 -1.39832,1.034618 -1.55468,0.744257 -1.67593,0.43758 -1.72693,0.09823 -1.71711,-0.248055 -1.63008,-0.566152 -1.50794,-0.900579 -1.26661,-1.162311 -1.04399,-1.372584 -0.74428,-1.554679 -0.42818,-1.701656 -0.0982,-1.726934 0.24806,-1.717099 0.56616,-1.630085 0.89118,-1.482225 1.14599,-1.301706 1.3983,-1.034618 1.55468,-0.744261 1.70165,-0.428183 1.71754,-0.0725 1.7171,0.248053 1.63009,0.566153 z"
           id="path3659-5-9-6"
           inkscape:connector-curvature="0" />
        <path
           style="display:inline;overflow:visible;visibility:visible;fill:none;stroke:#729fcf;stroke-width:2.35117;stroke-linecap:round;stroke-linejoin:round;stroke-miterlimit:4;stroke-dasharray:none;stroke-dashoffset:0;stroke-opacity:1;marker:none;enable-background:accumulate"
           d="m -159.40722,30.604211 -6.78206,3.885229 -5.11355,-1.83873 -2.97765,-7.211069 -1.43915,0.07782 -2.07148,7.584439 -4.99186,2.2766 -7.06968,-3.072549 -0.94649,1.083504 3.90414,6.857637 -1.95648,5.010571 -7.1355,2.845405 0.0822,1.531739 7.52777,2.062954 2.33329,4.991861 -3.11471,7.061187 1.0457,0.908702 6.7065,-3.828556 5.39281,1.889398 2.65209,7.164787 1.44166,-0.01704 2.09636,-7.536257 4.8974,-2.446633 7.38672,3.161002 0.88982,-0.951258 -3.90413,-6.687603 1.6772,-5.250163 7.33482,-2.916596 -0.0504,-1.508727 -7.44181,-1.907432 -2.46554,-5.048537 3.11884,-7.22521 z"
           id="path3659-5-6-1-1"
           inkscape:connector-curvature="0" />
        <circle
           style="fill:none;stroke:#729fcf;stroke-width:1.81197;stroke-linecap:round;stroke-linejoin:round;stroke-miterlimit:4;stroke-dasharray:none;stroke-dashoffset:6;stroke-opacity:1"
           id="path3898-2-8"
           transform="matrix(1.2975787,0,0,1.2975787,-227.20403,-4.4100648)"
           cx="41.15683"
           cy="40.103004"
           r="8.6941996" />
        <path
           style="display:inline;overflow:visible;visibility:visible;fill:url(#linearGradient3806-5-6-0-5);fill-opacity:1;fill-rule:evenodd;stroke:#280000;stroke-width:2.35117;stroke-linecap:butt;stroke-linejoin:miter;stroke-miterlimit:4;stroke-dasharray:none;stroke-dashoffset:0;stroke-opacity:1;marker:none;enable-background:accumulate"
           d="m -217.27976,4.1846558 1e-5,68.1839092 14.10701,-2e-6 v -28.21403 h 14.10701 V 30.047518 h -14.10701 V 18.291671 h 23.51169 V 4.1846558 Z"
           id="rect3663-8-7-7"
           inkscape:connector-curvature="0" />
        <path
           style="display:inline;overflow:visible;visibility:visible;fill:none;stroke:#ef2929;stroke-width:2.35117;stroke-linecap:butt;stroke-linejoin:miter;stroke-miterlimit:4;stroke-dasharray:none;stroke-dashoffset:0;stroke-opacity:1;marker:none;enable-background:accumulate"
           d="m -214.92859,6.535825 v 63.481569 h 9.40468 v -28.21403 h 14.10701 v -9.404677 h -14.10701 V 15.940502 h 23.51169 V 6.535825 Z"
           id="rect3663-8-3-0-9"
           inkscape:connector-curvature="0" />
      </g>
      <g
         aria-label="Free"
         id="text4997"
         style="font-size:23.5409px;line-height:4.23333px;font-family:Evolventa;-inkscape-font-specification:Evolventa;letter-spacing:0px;word-spacing:0px;stroke-width:1.4713px"
         transform="translate(14.563948,104.01408)">
        <path
           d="m 49.217877,64.961708 h 1.742026 v -7.956824 h 6.826861 v -1.57724 h -6.826861 v -6.28542 h 7.085811 v -1.57724 h -8.827837 z"
           id="path985"
           inkscape:connector-curvature="0" />
        <path
           d="m 60.070163,64.961708 h 1.742027 v -7.509547 c 0,-2.401172 1.224127,-3.719462 3.648839,-3.954871 v -1.718486 c -1.859731,0.09416 -2.966153,0.729768 -3.648839,2.142222 v -1.83619 h -1.742027 z"
           id="path987"
           inkscape:connector-curvature="0" />
        <path
           d="m 79.397169,59.100024 c 0,-1.718485 -0.211868,-2.730744 -0.77685,-3.813626 -1.129963,-2.165762 -3.41343,-3.507594 -5.955847,-3.507594 -3.719462,0 -6.662075,2.942613 -6.662075,6.685616 0,3.813626 2.989694,6.80332 6.80332,6.80332 2.801367,0 5.320243,-1.83619 6.261879,-4.543394 h -1.812649 c -0.729768,1.765568 -2.542417,2.942613 -4.496312,2.942613 -2.660121,0 -4.872966,-2.024518 -5.014211,-4.566935 z m -11.605663,-1.57724 c 0.470818,-2.471795 2.424712,-4.143198 4.872966,-4.143198 2.495335,0 4.402148,1.57724 4.99067,4.143198 z"
           id="path989"
           inkscape:connector-curvature="0" />
        <path
           d="m 94.698744,59.100024 c 0,-1.718485 -0.211868,-2.730744 -0.77685,-3.813626 -1.129963,-2.165762 -3.41343,-3.507594 -5.955848,-3.507594 -3.719462,0 -6.662074,2.942613 -6.662074,6.685616 0,3.813626 2.989694,6.80332 6.80332,6.80332 2.801367,0 5.320243,-1.83619 6.261879,-4.543394 h -1.812649 c -0.729768,1.765568 -2.542417,2.942613 -4.496312,2.942613 -2.660122,0 -4.872966,-2.024518 -5.014211,-4.566935 z M 83.09308,57.522784 c 0.470818,-2.471795 2.424713,-4.143198 4.872966,-4.143198 2.495336,0 4.402149,1.57724 4.990671,4.143198 z"
           id="path991"
           inkscape:connector-curvature="0" />
      </g>
      <g
         aria-label="CAD"
         id="text4997-3"
         style="font-size:23.5409px;line-height:4.23333px;font-family:Evolventa;-inkscape-font-specification:Evolventa;letter-spacing:0px;word-spacing:0px;stroke-width:1.4713px"
         transform="translate(14.563948,104.01408)">
        <path
           d="m 110.22097,60.112283 c -1.436,1.483076 -2.63659,2.048058 -4.30799,2.048058 -3.2251,0 -5.83814,-2.683662 -5.83814,-5.932307 0,-1.412454 0.54144,-2.919071 1.43599,-3.954871 1.05934,-1.247667 2.54242,-1.906812 4.33153,-1.906812 2.02452,0 3.38989,0.659145 4.56693,2.189303 h 3.60176 c -0.65914,-1.459536 -1.22413,-2.236385 -2.33055,-3.178021 -1.62432,-1.365372 -3.71946,-2.118681 -5.90876,-2.118681 -4.92005,0 -8.945546,4.025494 -8.945546,8.945542 0,5.037752 4.072576,9.063246 9.157406,9.063246 3.57822,0 6.66208,-1.977436 8.02745,-5.155457 z"
           style="font-weight:bold;-inkscape-font-specification:'Evolventa Bold'"
           id="path1012"
           inkscape:connector-curvature="0" />
        <path
           d="m 114.38765,64.961708 h 3.55468 l 1.93035,-4.496312 h 6.19126 l 1.85973,4.496312 h 3.55467 l -7.29768,-17.396724 h -2.54241 z m 6.66207,-7.580169 1.85974,-5.273162 1.85973,5.273162 z"
           style="font-weight:bold;-inkscape-font-specification:'Evolventa Bold'"
           id="path1014"
           inkscape:connector-curvature="0" />
        <path
           d="m 133.31453,64.961708 h 4.04903 c 2.56596,0 4.09612,-0.25895 5.48503,-0.894554 2.75429,-1.29475 4.40215,-4.166739 4.40215,-7.768497 0,-3.225103 -1.29475,-5.885225 -3.60176,-7.368301 -1.41245,-0.918095 -3.50759,-1.365372 -6.35604,-1.365372 h -3.97841 z m 3.2251,-3.083858 V 50.648841 h 0.6356 c 2.00098,0 3.06032,0.164787 4.04904,0.635605 1.71849,0.847472 2.77783,2.730744 2.77783,5.014211 0,2.09514 -0.96518,3.954871 -2.51888,4.802344 -0.96518,0.517899 -2.30701,0.776849 -4.23736,0.776849 z"
           style="font-weight:bold;-inkscape-font-specification:'Evolventa Bold'"
           id="path1016"
           inkscape:connector-curvature="0" />
      </g>
      <g
         aria-label="Open Source parametric 3D CAD modeler"
         id="text11736"
         style="font-size:5.93508px;line-height:4.23333px;font-family:Evolventa;-inkscape-font-specification:Evolventa;letter-spacing:0px;word-spacing:0px;stroke-width:0.370943px"
         transform="translate(14.563948,104.01408)">
        <path
           d="m 20.676386,69.779244 c -1.305717,0 -2.350292,1.008963 -2.350292,2.273135 0,1.240432 1.05051,2.267201 2.320617,2.267201 1.270107,0 2.314681,-1.020834 2.314681,-2.267201 0,-1.240431 -1.044574,-2.273135 -2.285006,-2.273135 z m -0.05342,0.403585 c 1.05051,0 1.893291,0.836847 1.893291,1.875486 0,1.014898 -0.848716,1.85768 -1.86955,1.85768 -1.026769,0 -1.875486,-0.842782 -1.875486,-1.863616 0,-1.008963 0.848717,-1.86955 1.851745,-1.86955 z"
           id="path1037"
           inkscape:connector-curvature="0" />
        <path
           d="m 23.596442,70.995935 v 4.386024 h 0.439196 v -1.697433 c 0.284884,0.415456 0.72408,0.635054 1.264172,0.635054 0.973353,0 1.721174,-0.741885 1.721174,-1.697433 0,-0.967418 -0.741886,-1.703368 -1.709304,-1.703368 -0.557897,0 -1.003028,0.219598 -1.276042,0.635054 v -0.557898 z m 1.679628,0.32643 c 0.753755,0 1.299783,0.546027 1.299783,1.311652 0,0.730015 -0.551963,1.281978 -1.281978,1.281978 -0.730015,0 -1.287912,-0.563833 -1.287912,-1.293848 0,-0.730015 0.557897,-1.299782 1.270107,-1.299782 z"
           id="path1039"
           inkscape:connector-curvature="0" />
        <path
           d="m 30.896586,72.764589 c 0,-0.433261 -0.05342,-0.688469 -0.195858,-0.961483 -0.284883,-0.546027 -0.860586,-0.884327 -1.501575,-0.884327 -0.937742,0 -1.679627,0.741885 -1.679627,1.685563 0,0.961483 0.753755,1.715238 1.715238,1.715238 0.706274,0 1.341328,-0.462936 1.578731,-1.14547 h -0.457001 c -0.183988,0.445131 -0.640989,0.741885 -1.1336,0.741885 -0.670664,0 -1.228562,-0.510417 -1.264172,-1.151406 z m -2.925994,-0.39765 c 0.118701,-0.623184 0.611313,-1.044574 1.228561,-1.044574 0.629119,0 1.10986,0.39765 1.258237,1.044574 z"
           id="path1041"
           inkscape:connector-curvature="0" />
        <path
           d="m 31.501962,74.242424 h 0.439196 v -1.786459 c 0,-0.35017 0.04154,-0.540092 0.154312,-0.718145 0.172117,-0.261143 0.480741,-0.415455 0.836846,-0.415455 0.314559,0 0.593508,0.118701 0.771561,0.332364 0.166182,0.201793 0.231468,0.445131 0.231468,0.884327 v 1.703368 h 0.439196 v -1.703368 c 0,-0.546027 -0.07716,-0.836846 -0.284884,-1.115795 -0.255209,-0.326429 -0.646924,-0.504482 -1.103925,-0.504482 -0.427326,0 -0.771561,0.160247 -1.044574,0.498547 v -0.421391 h -0.439196 z"
           id="path1043"
           inkscape:connector-curvature="0" />
        <path
           d="m 36.523024,73.013862 c 0.04155,0.789366 0.581638,1.305718 1.371003,1.305718 0.759691,0 1.323523,-0.551962 1.323523,-1.299782 0,-0.385781 -0.160247,-0.730015 -0.43326,-0.937743 -0.183988,-0.130572 -0.367975,-0.213663 -0.819042,-0.35017 -0.39765,-0.118701 -0.528222,-0.172117 -0.646923,-0.273014 -0.124637,-0.112766 -0.207728,-0.308624 -0.207728,-0.510416 0,-0.445131 0.320494,-0.765626 0.75969,-0.765626 0.445131,0 0.753755,0.308624 0.783431,0.783431 h 0.457001 c -0.01781,-0.71221 -0.510417,-1.187016 -1.228562,-1.187016 -0.706274,0 -1.216691,0.492611 -1.216691,1.181081 0,0.302689 0.112766,0.593508 0.308624,0.777495 0.172117,0.166182 0.302689,0.231468 0.819041,0.391716 0.344235,0.100896 0.534157,0.183987 0.682534,0.284883 0.189923,0.136507 0.296754,0.36204 0.296754,0.629119 0,0.504482 -0.36204,0.872457 -0.866521,0.872457 -0.273014,0 -0.534158,-0.112767 -0.694405,-0.308625 -0.130571,-0.154312 -0.189922,-0.314559 -0.219598,-0.593508 z"
           id="path1045"
           inkscape:connector-curvature="0" />
        <path
           d="m 41.318562,70.918779 c -0.997093,0 -1.721173,0.718145 -1.721173,1.703368 0,0.973353 0.741885,1.697433 1.733044,1.697433 0.955548,0 1.655887,-0.718145 1.655887,-1.691498 0,-0.979288 -0.71221,-1.709303 -1.667758,-1.709303 z m -0.03561,0.403586 c 0.73595,0 1.258237,0.546027 1.258237,1.311652 0,0.74782 -0.510417,1.281978 -1.222627,1.281978 -0.735949,0 -1.276042,-0.546028 -1.276042,-1.287913 0,-0.74782 0.528222,-1.305717 1.240432,-1.305717 z"
           id="path1047"
           inkscape:connector-curvature="0" />
        <path
           d="m 46.470205,70.995935 h -0.439196 v 1.667758 c 0,0.39765 -0.05935,0.646923 -0.195858,0.848716 -0.183987,0.261144 -0.474806,0.403586 -0.819041,0.403586 -0.35017,0 -0.646924,-0.142442 -0.801236,-0.385781 -0.112766,-0.172117 -0.166182,-0.439196 -0.166182,-0.78343 v -1.750849 h -0.439196 v 1.750849 c 0,0.468871 0.07122,0.789365 0.237403,1.026769 0.237404,0.356104 0.635054,0.546027 1.139536,0.546027 0.504482,0 0.824976,-0.178052 1.044574,-0.581638 v 0.504482 h 0.439196 z"
           id="path1049"
           inkscape:connector-curvature="0" />
        <path
           d="m 47.218024,74.242424 h 0.439196 v -1.893291 c 0,-0.605378 0.308624,-0.937742 0.919938,-0.997093 v -0.433261 c -0.468872,0.02374 -0.74782,0.183988 -0.919938,0.540092 v -0.462936 h -0.439196 z"
           id="path1051"
           inkscape:connector-curvature="0" />
        <path
           d="m 51.562491,73.286876 c -0.3383,0.451066 -0.646924,0.629119 -1.10986,0.629119 -0.730015,0 -1.305718,-0.569768 -1.305718,-1.293848 0,-0.730015 0.563833,-1.299782 1.287913,-1.299782 0.480741,0 0.878392,0.231468 1.127665,0.658794 h 0.492612 c -0.261144,-0.652859 -0.878392,-1.06238 -1.614342,-1.06238 -0.973353,0 -1.738979,0.74782 -1.738979,1.691498 0,0.967418 0.771561,1.709303 1.768654,1.709303 0.391715,0 0.75969,-0.118702 1.056444,-0.35017 0.219598,-0.166182 0.35017,-0.338299 0.534158,-0.682534 z"
           id="path1053"
           inkscape:connector-curvature="0" />
        <path
           d="m 55.918835,72.764589 c 0,-0.433261 -0.05342,-0.688469 -0.195857,-0.961483 -0.284884,-0.546027 -0.860587,-0.884327 -1.501576,-0.884327 -0.937742,0 -1.679627,0.741885 -1.679627,1.685563 0,0.961483 0.753755,1.715238 1.715238,1.715238 0.706274,0 1.341328,-0.462936 1.578731,-1.14547 h -0.457001 c -0.183987,0.445131 -0.640989,0.741885 -1.1336,0.741885 -0.670664,0 -1.228562,-0.510417 -1.264172,-1.151406 z m -2.925994,-0.39765 c 0.118701,-0.623184 0.611313,-1.044574 1.228561,-1.044574 0.629119,0 1.10986,0.39765 1.258237,1.044574 z"
           id="path1055"
           inkscape:connector-curvature="0" />
        <path
           d="m 58.16822,70.995935 v 4.386024 h 0.439196 v -1.697433 c 0.284883,0.415456 0.724079,0.635054 1.264172,0.635054 0.973353,0 1.721173,-0.741885 1.721173,-1.697433 0,-0.967418 -0.741885,-1.703368 -1.709303,-1.703368 -0.557898,0 -1.003029,0.219598 -1.276042,0.635054 v -0.557898 z m 1.679627,0.32643 c 0.753755,0 1.299783,0.546027 1.299783,1.311652 0,0.730015 -0.551963,1.281978 -1.281977,1.281978 -0.730015,0 -1.287913,-0.563833 -1.287913,-1.293848 0,-0.730015 0.557898,-1.299782 1.270107,-1.299782 z"
           id="path1057"
           inkscape:connector-curvature="0" />
        <path
           d="m 65.521781,70.995935 h -0.439196 v 0.575703 c -0.326429,-0.457001 -0.718144,-0.652859 -1.281977,-0.652859 -0.973353,0 -1.709303,0.73595 -1.709303,1.709303 0,0.973353 0.741885,1.691498 1.744913,1.691498 0.551963,0 0.902133,-0.183987 1.246367,-0.646924 v 0.569768 h 0.439196 z m -1.727108,0.32643 c 0.73595,0 1.287912,0.551962 1.287912,1.287912 0,0.73595 -0.546027,1.305718 -1.252302,1.305718 -0.718144,0 -1.293847,-0.575703 -1.293847,-1.305718 0,-0.71221 0.563832,-1.287912 1.258237,-1.287912 z"
           id="path1059"
           inkscape:connector-curvature="0" />
        <path
           d="m 66.269591,74.242424 h 0.439196 v -1.893291 c 0,-0.605378 0.308625,-0.937742 0.919938,-0.997093 v -0.433261 c -0.468872,0.02374 -0.74782,0.183988 -0.919938,0.540092 v -0.462936 h -0.439196 z"
           id="path1061"
           inkscape:connector-curvature="0" />
        <path
           d="m 71.195689,70.995935 h -0.439196 v 0.575703 c -0.326429,-0.457001 -0.718144,-0.652859 -1.281977,-0.652859 -0.973353,0 -1.709303,0.73595 -1.709303,1.709303 0,0.973353 0.741885,1.691498 1.744914,1.691498 0.551962,0 0.902132,-0.183987 1.246366,-0.646924 v 0.569768 h 0.439196 z m -1.727108,0.32643 c 0.73595,0 1.287912,0.551962 1.287912,1.287912 0,0.73595 -0.546027,1.305718 -1.252301,1.305718 -0.718145,0 -1.293848,-0.575703 -1.293848,-1.305718 0,-0.71221 0.563833,-1.287912 1.258237,-1.287912 z"
           id="path1063"
           inkscape:connector-curvature="0" />
        <path
           d="m 71.943503,74.242424 h 0.439196 v -1.893291 c 0,-0.646923 0.32643,-1.026768 0.872457,-1.026768 0.261144,0 0.498547,0.100896 0.658794,0.278948 0.154312,0.172118 0.219598,0.397651 0.219598,0.74782 v 1.893291 h 0.439196 v -1.88142 c 0,-0.296754 0.04154,-0.492612 0.136507,-0.646924 0.154312,-0.243338 0.439196,-0.391715 0.753755,-0.391715 0.273014,0 0.522287,0.106831 0.664729,0.290819 0.130572,0.166182 0.195858,0.40952 0.195858,0.74782 v 1.88142 h 0.439195 v -1.928901 c 0,-0.409521 -0.07122,-0.682534 -0.243338,-0.914002 -0.225533,-0.308624 -0.599443,-0.480742 -1.038639,-0.480742 -0.498547,0 -0.848716,0.189923 -1.12173,0.623184 -0.255208,-0.439196 -0.569768,-0.623184 -1.062379,-0.623184 -0.409521,0 -0.658794,0.124637 -0.914003,0.451066 v -0.37391 h -0.439196 z"
           id="path1065"
           inkscape:connector-curvature="0" />
        <path
           d="m 80.763028,72.764589 c 0,-0.433261 -0.05342,-0.688469 -0.195858,-0.961483 -0.284884,-0.546027 -0.860586,-0.884327 -1.501575,-0.884327 -0.937743,0 -1.679628,0.741885 -1.679628,1.685563 0,0.961483 0.753755,1.715238 1.715238,1.715238 0.706275,0 1.341329,-0.462936 1.578732,-1.14547 h -0.457001 c -0.183988,0.445131 -0.640989,0.741885 -1.133601,0.741885 -0.670664,0 -1.228561,-0.510417 -1.264172,-1.151406 z m -2.925995,-0.39765 c 0.118702,-0.623184 0.611314,-1.044574 1.228562,-1.044574 0.629118,0 1.10986,0.39765 1.258237,1.044574 z"
           id="path1067"
           inkscape:connector-curvature="0" />
        <path
           d="m 81.635477,74.242424 h 0.439196 v -2.848838 h 0.730015 V 70.995935 H 82.074673 V 69.8564 h -0.439196 v 1.139535 h -0.70034 v 0.397651 h 0.70034 z"
           id="path1069"
           inkscape:connector-curvature="0" />
        <path
           d="m 83.249812,74.242424 h 0.439196 v -1.893291 c 0,-0.605378 0.308624,-0.937742 0.919938,-0.997093 v -0.433261 c -0.468872,0.02374 -0.747821,0.183988 -0.919938,0.540092 v -0.462936 h -0.439196 z"
           id="path1071"
           inkscape:connector-curvature="0" />
        <path
           d="m 85.071864,74.242424 h 0.439196 v -3.246489 h -0.439196 z m 0,-3.638204 H 85.51106 V 69.8564 h -0.439196 z"
           id="path1073"
           inkscape:connector-curvature="0" />
        <path
           d="m 88.994948,73.286876 c -0.3383,0.451066 -0.646924,0.629119 -1.10986,0.629119 -0.730015,0 -1.305718,-0.569768 -1.305718,-1.293848 0,-0.730015 0.563833,-1.299782 1.287913,-1.299782 0.480741,0 0.878391,0.231468 1.127665,0.658794 h 0.492611 c -0.261143,-0.652859 -0.878391,-1.06238 -1.614341,-1.06238 -0.973353,0 -1.738979,0.74782 -1.738979,1.691498 0,0.967418 0.771561,1.709303 1.768654,1.709303 0.391715,0 0.75969,-0.118702 1.056444,-0.35017 0.219598,-0.166182 0.35017,-0.338299 0.534158,-0.682534 z"
           id="path1075"
           inkscape:connector-curvature="0" />
        <path
           d="m 92.288904,70.948455 c 0.0059,-0.492612 0.249274,-0.771561 0.6766,-0.771561 0.391715,0 0.664729,0.284884 0.664729,0.688469 0,0.427326 -0.290819,0.694405 -0.747821,0.694405 -0.03561,0 -0.04154,0 -0.213662,-0.01187 v 0.391715 c 0.290819,0.0059 0.391715,0.01187 0.510416,0.03561 0.439196,0.106832 0.741885,0.498547 0.741885,0.961483 0,0.557898 -0.40952,0.985224 -0.949612,0.985224 -0.320495,0 -0.605378,-0.148377 -0.783431,-0.403586 -0.118701,-0.166182 -0.166182,-0.326429 -0.189922,-0.646923 h -0.433261 c 0.01187,0.302689 0.05935,0.516351 0.172117,0.730014 0.237403,0.445131 0.706275,0.718145 1.252302,0.718145 0.765625,0 1.371003,-0.617248 1.371003,-1.406614 0,-0.528222 -0.249273,-0.931807 -0.741885,-1.181081 0.308625,-0.213663 0.451066,-0.480741 0.451066,-0.842781 0,-0.652859 -0.451066,-1.10986 -1.103924,-1.10986 -0.658794,0 -1.08612,0.451066 -1.10986,1.169211 z"
           id="path1077"
           inkscape:connector-curvature="0" />
        <path
           d="m 95.108058,74.242424 h 1.181081 c 0.635054,0 1.08612,-0.09496 1.465965,-0.302689 0.688469,-0.379845 1.056444,-1.038639 1.056444,-1.875485 0,-0.807171 -0.326429,-1.442225 -0.949613,-1.83394 -0.427326,-0.273014 -0.902132,-0.37391 -1.721173,-0.37391 h -1.032704 z m 0.439196,-0.39765 V 70.25405 h 0.611313 c 0.640989,0 1.050509,0.07716 1.371004,0.261144 0.528222,0.296754 0.836846,0.860586 0.836846,1.53125 0,0.557898 -0.213663,1.05051 -0.593508,1.376939 -0.356105,0.302689 -0.813106,0.421391 -1.614342,0.421391 z"
           id="path1079"
           inkscape:connector-curvature="0" />
        <path
           d="m 104.80003,73.091018 c -0.17211,0.225534 -0.27894,0.332365 -0.41545,0.445131 -0.30269,0.243339 -0.70034,0.379846 -1.10986,0.379846 -1.02083,0 -1.85175,-0.836847 -1.85175,-1.869551 0,-1.056444 0.7953,-1.863615 1.84581,-1.863615 0.37391,0 0.71221,0.09496 1.00303,0.278949 0.20773,0.130572 0.33237,0.261144 0.50448,0.534157 h 0.49262 c -0.3383,-0.753755 -1.10986,-1.216691 -2.01793,-1.216691 -1.30572,0 -2.27314,0.973353 -2.27314,2.285006 0,1.281977 0.99116,2.25533 2.30281,2.25533 0.89027,0 1.56687,-0.415456 2.00606,-1.228562 z"
           id="path1081"
           inkscape:connector-curvature="0" />
        <path
           d="m 105.47663,74.242424 h 0.46293 l 0.64099,-1.477835 h 2.04167 l 0.63505,1.477835 h 0.48074 L 107.85066,69.8564 h -0.49261 z m 1.2701,-1.875485 0.86059,-2.011992 0.84278,2.011992 z"
           id="path1083"
           inkscape:connector-curvature="0" />
        <path
           d="m 110.25436,74.242424 h 1.18108 c 0.63505,0 1.08612,-0.09496 1.46597,-0.302689 0.68846,-0.379845 1.05644,-1.038639 1.05644,-1.875485 0,-0.807171 -0.32643,-1.442225 -0.94961,-1.83394 -0.42733,-0.273014 -0.90214,-0.37391 -1.72118,-0.37391 h -1.0327 z m 0.4392,-0.39765 V 70.25405 h 0.61131 c 0.64099,0 1.05051,0.07716 1.371,0.261144 0.52822,0.296754 0.83685,0.860586 0.83685,1.53125 0,0.557898 -0.21366,1.05051 -0.59351,1.376939 -0.3561,0.302689 -0.81311,0.421391 -1.61434,0.421391 z"
           id="path1085"
           inkscape:connector-curvature="0" />
        <path
           d="m 116.23691,74.242424 h 0.4392 v -1.893291 c 0,-0.646923 0.32643,-1.026768 0.87245,-1.026768 0.26115,0 0.49855,0.100896 0.6588,0.278948 0.15431,0.172118 0.2196,0.397651 0.2196,0.74782 v 1.893291 h 0.43919 v -1.88142 c 0,-0.296754 0.0416,-0.492612 0.13651,-0.646924 0.15431,-0.243338 0.43919,-0.391715 0.75375,-0.391715 0.27302,0 0.52229,0.106831 0.66473,0.290819 0.13057,0.166182 0.19586,0.40952 0.19586,0.74782 v 1.88142 h 0.4392 v -1.928901 c 0,-0.409521 -0.0712,-0.682534 -0.24334,-0.914002 -0.22554,-0.308624 -0.59945,-0.480742 -1.03864,-0.480742 -0.49855,0 -0.84872,0.189923 -1.12173,0.623184 -0.25521,-0.439196 -0.56977,-0.623184 -1.06238,-0.623184 -0.40952,0 -0.65879,0.124637 -0.914,0.451066 v -0.37391 h -0.4392 z"
           id="path1087"
           inkscape:connector-curvature="0" />
        <path
           d="m 123.40055,70.918779 c -0.9971,0 -1.72118,0.718145 -1.72118,1.703368 0,0.973353 0.74189,1.697433 1.73305,1.697433 0.95555,0 1.65589,-0.718145 1.65589,-1.691498 0,-0.979288 -0.71221,-1.709303 -1.66776,-1.709303 z m -0.0356,0.403586 c 0.73595,0 1.25823,0.546027 1.25823,1.311652 0,0.74782 -0.51041,1.281978 -1.22262,1.281978 -0.73595,0 -1.27604,-0.546028 -1.27604,-1.287913 0,-0.74782 0.52822,-1.305717 1.24043,-1.305717 z"
           id="path1089"
           inkscape:connector-curvature="0" />
        <path
           d="M 129.0092,69.8564 H 128.57 v 1.655887 c -0.32049,-0.38578 -0.76563,-0.593508 -1.27604,-0.593508 -0.98523,0 -1.72711,0.73595 -1.72711,1.709303 0,0.961483 0.76562,1.691498 1.76865,1.691498 0.54603,0 0.90213,-0.195858 1.2345,-0.664729 v 0.587573 h 0.4392 z m -1.74492,1.465965 c 0.74189,0 1.32352,0.569767 1.32352,1.287912 0,0.718145 -0.56976,1.305718 -1.26417,1.305718 -0.73595,0 -1.31165,-0.569768 -1.31165,-1.299783 0,-0.718145 0.5579,-1.293847 1.2523,-1.293847 z"
           id="path1091"
           inkscape:connector-curvature="0" />
        <path
           d="m 133.00944,72.764589 c 0,-0.433261 -0.0534,-0.688469 -0.19586,-0.961483 -0.28488,-0.546027 -0.86059,-0.884327 -1.50157,-0.884327 -0.93775,0 -1.67963,0.741885 -1.67963,1.685563 0,0.961483 0.75375,1.715238 1.71524,1.715238 0.70627,0 1.34132,-0.462936 1.57873,-1.14547 h -0.457 c -0.18399,0.445131 -0.64099,0.741885 -1.1336,0.741885 -0.67067,0 -1.22857,-0.510417 -1.26418,-1.151406 z m -2.926,-0.39765 c 0.11871,-0.623184 0.61132,-1.044574 1.22857,-1.044574 0.62911,0 1.10986,0.39765 1.25823,1.044574 z"
           id="path1093"
           inkscape:connector-curvature="0" />
        <path
           d="m 133.61481,74.242424 h 0.4392 V 69.8564 h -0.4392 z"
           id="path1095"
           inkscape:connector-curvature="0" />
        <path
           d="m 138.05425,72.764589 c 0,-0.433261 -0.0534,-0.688469 -0.19586,-0.961483 -0.28489,-0.546027 -0.86059,-0.884327 -1.50158,-0.884327 -0.93774,0 -1.67962,0.741885 -1.67962,1.685563 0,0.961483 0.75375,1.715238 1.71523,1.715238 0.70628,0 1.34133,-0.462936 1.57873,-1.14547 h -0.457 c -0.18398,0.445131 -0.64099,0.741885 -1.1336,0.741885 -0.67066,0 -1.22856,-0.510417 -1.26417,-1.151406 z m -2.926,-0.39765 c 0.1187,-0.623184 0.61131,-1.044574 1.22856,-1.044574 0.62912,0 1.10986,0.39765 1.25824,1.044574 z"
           id="path1097"
           inkscape:connector-curvature="0" />
        <path
           d="m 138.65962,74.242424 h 0.43919 v -1.893291 c 0,-0.605378 0.30863,-0.937742 0.91994,-0.997093 v -0.433261 c -0.46887,0.02374 -0.74782,0.183988 -0.91994,0.540092 v -0.462936 h -0.43919 z"
           id="path1099"
           inkscape:connector-curvature="0" />
      </g>
    </g>
  </g>
</svg>
