<?xml version="1.0" encoding="UTF-8" standalone="no"?>
<!-- Created with Inkscape (http://www.inkscape.org/) -->

<svg
   width="210mm"
   height="297mm"
   viewBox="0 0 210 297"
   version="1.1"
   id="svg5"
   inkscape:version="1.1.2 (0a00cf5339, 2022-02-04)"
   sodipodi:docname="freecad_logo_official.svg"
   xmlns:inkscape="http://www.inkscape.org/namespaces/inkscape"
   xmlns:sodipodi="http://sodipodi.sourceforge.net/DTD/sodipodi-0.dtd"
   xmlns:xlink="http://www.w3.org/1999/xlink"
   xmlns="http://www.w3.org/2000/svg"
   xmlns:svg="http://www.w3.org/2000/svg">
  <sodipodi:namedview
     id="namedview7"
     pagecolor="#ffffff"
     bordercolor="#666666"
     borderopacity="1.0"
     inkscape:pageshadow="2"
     inkscape:pageopacity="0.0"
     inkscape:pagecheckerboard="0"
     inkscape:document-units="mm"
     showgrid="false"
     showguides="true"
     inkscape:guide-bbox="true"
     inkscape:zoom="0.59330808"
     inkscape:cx="451.70462"
     inkscape:cy="572.21537"
     inkscape:window-width="1920"
     inkscape:window-height="1051"
     inkscape:window-x="0"
     inkscape:window-y="0"
     inkscape:window-maximized="1"
     inkscape:current-layer="layer1" />
  <defs
     id="defs2">
    <marker
       style="overflow:visible;"
       id="Arrow1Lend"
       refX="0.0"
       refY="0.0"
       orient="auto"
       inkscape:stockid="Arrow1Lend"
       inkscape:isstock="true">
      <path
         transform="scale(0.8) rotate(180) translate(12.5,0)"
         style="fill-rule:evenodd;fill:context-stroke;stroke:context-stroke;stroke-width:1.0pt;"
         d="M 0.0,0.0 L 5.0,-5.0 L -12.5,0.0 L 5.0,5.0 L 0.0,0.0 z "
         id="path26444" />
    </marker>
    <marker
       style="overflow:visible"
       id="Arrow1Lstart"
       refX="0.0"
       refY="0.0"
       orient="auto"
       inkscape:stockid="Arrow1Lstart"
       inkscape:isstock="true">
      <path
         transform="scale(0.8) translate(12.5,0)"
         style="fill-rule:evenodd;fill:context-stroke;stroke:context-stroke;stroke-width:1.0pt"
         d="M 0.0,0.0 L 5.0,-5.0 L -12.5,0.0 L 5.0,5.0 L 0.0,0.0 z "
         id="path26441" />
    </marker>
    <linearGradient
       id="linearGradient3864">
      <stop
         id="stop3866"
         offset="0"
         style="stop-color:#71b2f8;stop-opacity:1;" />
      <stop
         id="stop3868"
         offset="1"
         style="stop-color:#002795;stop-opacity:1;" />
    </linearGradient>
    <linearGradient
       id="linearGradient3682">
      <stop
         style="stop-color:#ff6d0f;stop-opacity:1;"
         offset="0"
         id="stop3684" />
      <stop
         style="stop-color:#ff1000;stop-opacity:1;"
         offset="1"
         id="stop3686" />
    </linearGradient>
    <inkscape:perspective
       sodipodi:type="inkscape:persp3d"
       inkscape:vp_x="0 : 32 : 1"
       inkscape:vp_y="0 : 1000 : 0"
       inkscape:vp_z="64 : 32 : 1"
       inkscape:persp3d-origin="32 : 21.333333 : 1"
       id="perspective3148" />
    <linearGradient
       id="linearGradient3864-9">
      <stop
         style="stop-color:#204a87;stop-opacity:1"
         offset="0"
         id="stop3866-1" />
      <stop
         style="stop-color:#729fcf;stop-opacity:1"
         offset="1"
         id="stop3868-1" />
    </linearGradient>
    <linearGradient
       id="linearGradient3682-0">
      <stop
         id="stop3684-0"
         offset="0"
         style="stop-color:#a40000;stop-opacity:1" />
      <stop
         id="stop3686-0"
         offset="1"
         style="stop-color:#ef2929;stop-opacity:1" />
    </linearGradient>
    <inkscape:perspective
       id="perspective3148-5"
       inkscape:persp3d-origin="32 : 21.333333 : 1"
       inkscape:vp_z="64 : 32 : 1"
       inkscape:vp_y="0 : 1000 : 0"
       inkscape:vp_x="0 : 32 : 1"
       sodipodi:type="inkscape:persp3d" />
    <radialGradient
       r="19.571428"
       fy="33.899986"
       fx="270.58316"
       cy="33.899986"
       cx="270.58316"
       gradientTransform="matrix(1.2361257,0.30001695,-0.83232803,3.3883821,-499.9452,-167.33108)"
       gradientUnits="userSpaceOnUse"
       id="radialGradient3817-5-3"
       xlink:href="#linearGradient3682-0-6"
       inkscape:collect="always" />
    <linearGradient
       id="linearGradient3682-0-6">
      <stop
         id="stop3684-0-7"
         offset="0"
         style="stop-color:#ff390f;stop-opacity:1" />
      <stop
         id="stop3686-0-5"
         offset="1"
         style="stop-color:#ff1000;stop-opacity:1;" />
    </linearGradient>
    <linearGradient
       inkscape:collect="always"
       xlink:href="#linearGradient3864-9"
       id="linearGradient3808-5"
       x1="-146.74467"
       y1="58.261547"
       x2="-157.32494"
       y2="26.520763"
       gradientUnits="userSpaceOnUse"
       gradientTransform="matrix(1.0094494,0,0,1.0094493,-20.307973,3.7260081)" />
    <linearGradient
       inkscape:collect="always"
       xlink:href="#linearGradient3682-0"
       id="linearGradient3806-5-6"
       x1="-206.69949"
       y1="68.841812"
       x2="-211.40184"
       y2="7.7114096"
       gradientUnits="userSpaceOnUse" />
    <linearGradient
       inkscape:collect="always"
       xlink:href="#linearGradient3864-9"
       id="linearGradient3808-5-7"
       x1="-146.74467"
       y1="58.261547"
       x2="-157.32494"
       y2="26.520763"
       gradientUnits="userSpaceOnUse"
       gradientTransform="matrix(1.0094494,0,0,1.0094493,-20.307973,3.7260081)" />
    <linearGradient
       inkscape:collect="always"
       xlink:href="#linearGradient3682-0"
       id="linearGradient3806-5-6-5"
       x1="-206.69949"
       y1="68.841812"
       x2="-211.40184"
       y2="7.7114096"
       gradientUnits="userSpaceOnUse" />
    <marker
       style="overflow:visible"
       id="Arrow1Lend-6"
       refX="0"
       refY="0"
       orient="auto"
       inkscape:stockid="Arrow1Lend"
       inkscape:isstock="true">
      <path
         transform="matrix(-0.8,0,0,-0.8,-10,0)"
         style="fill:context-stroke;fill-rule:evenodd;stroke:context-stroke;stroke-width:1pt"
         d="M 0,0 5,-5 -12.5,0 5,5 Z"
         id="path26444-8" />
    </marker>
    <linearGradient
       inkscape:collect="always"
       xlink:href="#linearGradient3682-0"
       id="linearGradient3806-5-6-4"
       x1="-206.69949"
       y1="68.841812"
       x2="-211.40184"
       y2="7.7114096"
       gradientUnits="userSpaceOnUse" />
    <linearGradient
       inkscape:collect="always"
       xlink:href="#linearGradient3864-9"
       id="linearGradient27231"
       gradientUnits="userSpaceOnUse"
       gradientTransform="matrix(1.0094494,0,0,1.0094493,-20.307973,3.7260081)"
       x1="-146.74467"
       y1="58.261547"
       x2="-157.32494"
       y2="26.520763" />
    <linearGradient
       inkscape:collect="always"
       xlink:href="#linearGradient3682-0"
       id="linearGradient3806-5-6-0"
       x1="-206.69949"
       y1="68.841812"
       x2="-211.40184"
       y2="7.7114096"
       gradientUnits="userSpaceOnUse" />
    <linearGradient
       inkscape:collect="always"
       xlink:href="#linearGradient3864-9"
       id="linearGradient27341"
       gradientUnits="userSpaceOnUse"
       gradientTransform="matrix(1.0094494,0,0,1.0094493,-20.307973,3.7260081)"
       x1="-146.74467"
       y1="58.261547"
       x2="-157.32494"
       y2="26.520763" />
    <linearGradient
       inkscape:collect="always"
       xlink:href="#linearGradient3682-0"
       id="linearGradient3806-5-6-0-0"
       x1="-206.69949"
       y1="68.841812"
       x2="-211.40184"
       y2="7.7114096"
       gradientUnits="userSpaceOnUse" />
    <linearGradient
       inkscape:collect="always"
       xlink:href="#linearGradient3864-9"
       id="linearGradient58625"
       gradientUnits="userSpaceOnUse"
       gradientTransform="matrix(1.0094494,0,0,1.0094493,-20.307973,3.7260081)"
       x1="-146.74467"
       y1="58.261547"
       x2="-157.32494"
       y2="26.520763" />
  </defs>
  <g
     inkscape:label="Layer 1"
     inkscape:groupmode="layer"
     id="layer1">
    <g
       transform="matrix(0.42187476,0,0,0.42187476,105.92384,34.217596)"
       id="g3813-3-2-2">
      <path
         style="display:inline;overflow:visible;visibility:visible;fill:url(#linearGradient3808-5);fill-opacity:1;fill-rule:evenodd;stroke:#000137;stroke-width:2.35117;stroke-linecap:round;stroke-linejoin:round;stroke-miterlimit:4;stroke-dasharray:none;stroke-dashoffset:0;stroke-opacity:1;marker:none;enable-background:accumulate"
         d="m -159.14682,27.762572 -7.26628,4.168914 -3.20873,-1.113515 -3.06139,-7.823962 -4.81574,0.253068 -2.19659,8.090466 -3.07424,1.472191 -7.66769,-3.354213 -3.23863,3.598875 4.16893,7.266276 -1.13925,3.199324 -7.82397,3.061399 0.27879,4.825129 8.09048,2.196583 1.47219,3.074238 -3.37993,7.658303 3.59887,3.238623 7.26627,-4.168916 3.22506,1.148635 3.03567,7.81457 4.85085,-0.269405 2.17086,-8.099855 3.07425,-1.472193 7.68401,3.389334 3.23863,-3.598876 -4.16892,-7.266274 1.1229,-3.234445 7.81458,-3.035677 -0.24366,-4.841457 -8.09987,-2.170857 -1.4722,-3.074238 3.36361,-7.693423 z m -10.88267,11.915801 1.49161,0.865459 1.29232,1.171703 1.03462,1.398312 0.74426,1.554681 0.43759,1.67593 0.0725,1.71754 -0.24807,1.717095 -0.56614,1.630089 -0.90058,1.507949 -1.13658,1.275982 -1.39832,1.034618 -1.55468,0.744257 -1.67593,0.43758 -1.72693,0.09823 -1.71711,-0.248055 -1.63008,-0.566152 -1.50794,-0.900579 -1.26661,-1.162311 -1.04399,-1.372584 -0.74428,-1.554679 -0.42818,-1.701656 -0.0982,-1.726934 0.24806,-1.717099 0.56616,-1.630085 0.89118,-1.482225 1.14599,-1.301706 1.3983,-1.034618 1.55468,-0.744261 1.70165,-0.428183 1.71754,-0.0725 1.7171,0.248053 1.63009,0.566153 z"
         id="path3659-5-9-6"
         inkscape:connector-curvature="0" />
      <path
         style="display:inline;overflow:visible;visibility:visible;fill:none;stroke:#729fcf;stroke-width:2.35117;stroke-linecap:round;stroke-linejoin:round;stroke-miterlimit:4;stroke-dasharray:none;stroke-dashoffset:0;stroke-opacity:1;marker:none;enable-background:accumulate"
         d="m -159.40722,30.604211 -6.78206,3.885229 -5.11355,-1.83873 -2.97765,-7.211069 -1.43915,0.07782 -2.07148,7.584439 -4.99186,2.2766 -7.06968,-3.072549 -0.94649,1.083504 3.90414,6.857637 -1.95648,5.010571 -7.1355,2.845405 0.0822,1.531739 7.52777,2.062954 2.33329,4.991861 -3.11471,7.061187 1.0457,0.908702 6.7065,-3.828556 5.39281,1.889398 2.65209,7.164787 1.44166,-0.01704 2.09636,-7.536257 4.8974,-2.446633 7.38672,3.161002 0.88982,-0.951258 -3.90413,-6.687603 1.6772,-5.250163 7.33482,-2.916596 -0.0504,-1.508727 -7.44181,-1.907432 -2.46554,-5.048537 3.11884,-7.22521 z"
         id="path3659-5-6-1-1"
         inkscape:connector-curvature="0"
         sodipodi:nodetypes="ccccccccccccccccccccccccccccccccc" />
      <circle
         style="fill:none;stroke:#729fcf;stroke-width:1.81197;stroke-linecap:round;stroke-linejoin:round;stroke-miterlimit:4;stroke-dasharray:none;stroke-dashoffset:6;stroke-opacity:1"
         id="path3898-2-8"
         transform="matrix(1.2975787,0,0,1.2975787,-227.20403,-4.4100648)"
         cx="41.15683"
         cy="40.103004"
         r="8.6941996" />
      <path
         style="display:inline;overflow:visible;visibility:visible;fill:url(#linearGradient3806-5-6);fill-opacity:1;fill-rule:evenodd;stroke:#280000;stroke-width:2.35117;stroke-linecap:butt;stroke-linejoin:miter;stroke-miterlimit:4;stroke-dasharray:none;stroke-dashoffset:0;stroke-opacity:1;marker:none;enable-background:accumulate"
         d="m -217.27976,4.1846558 1e-5,68.1839092 14.10701,-2e-6 v -28.21403 h 14.10701 V 30.047518 h -14.10701 V 18.291671 h 23.51169 V 4.1846558 Z"
         id="rect3663-8-7-7"
         sodipodi:nodetypes="ccccccccccc"
         inkscape:connector-curvature="0" />
      <path
         style="display:inline;overflow:visible;visibility:visible;fill:none;stroke:#ef2929;stroke-width:2.35117;stroke-linecap:butt;stroke-linejoin:miter;stroke-miterlimit:4;stroke-dasharray:none;stroke-dashoffset:0;stroke-opacity:1;marker:none;enable-background:accumulate"
         d="m -214.92859,6.535825 v 63.481569 h 9.40468 v -28.21403 h 14.10701 v -9.404677 h -14.10701 V 15.940502 h 23.51169 V 6.535825 Z"
         id="rect3663-8-3-0-9"
         sodipodi:nodetypes="ccccccccccc"
         inkscape:connector-curvature="0" />
    </g>
    <g
       transform="matrix(0.05410887,0,0,0.05410887,20.840043,6.7574021)"
       id="g3813-3-2-2-06">
      <path
         style="display:inline;overflow:visible;visibility:visible;fill:url(#linearGradient27231);fill-opacity:1;fill-rule:evenodd;stroke:#000137;stroke-width:2.35117;stroke-linecap:round;stroke-linejoin:round;stroke-miterlimit:4;stroke-dasharray:none;stroke-dashoffset:0;stroke-opacity:1;marker:none;enable-background:accumulate"
         d="m -159.14682,27.762572 -7.26628,4.168914 -3.20873,-1.113515 -3.06139,-7.823962 -4.81574,0.253068 -2.19659,8.090466 -3.07424,1.472191 -7.66769,-3.354213 -3.23863,3.598875 4.16893,7.266276 -1.13925,3.199324 -7.82397,3.061399 0.27879,4.825129 8.09048,2.196583 1.47219,3.074238 -3.37993,7.658303 3.59887,3.238623 7.26627,-4.168916 3.22506,1.148635 3.03567,7.81457 4.85085,-0.269405 2.17086,-8.099855 3.07425,-1.472193 7.68401,3.389334 3.23863,-3.598876 -4.16892,-7.266274 1.1229,-3.234445 7.81458,-3.035677 -0.24366,-4.841457 -8.09987,-2.170857 -1.4722,-3.074238 3.36361,-7.693423 z m -10.88267,11.915801 1.49161,0.865459 1.29232,1.171703 1.03462,1.398312 0.74426,1.554681 0.43759,1.67593 0.0725,1.71754 -0.24807,1.717095 -0.56614,1.630089 -0.90058,1.507949 -1.13658,1.275982 -1.39832,1.034618 -1.55468,0.744257 -1.67593,0.43758 -1.72693,0.09823 -1.71711,-0.248055 -1.63008,-0.566152 -1.50794,-0.900579 -1.26661,-1.162311 -1.04399,-1.372584 -0.74428,-1.554679 -0.42818,-1.701656 -0.0982,-1.726934 0.24806,-1.717099 0.56616,-1.630085 0.89118,-1.482225 1.14599,-1.301706 1.3983,-1.034618 1.55468,-0.744261 1.70165,-0.428183 1.71754,-0.0725 1.7171,0.248053 1.63009,0.566153 z"
         id="path3659-5-9-6-8"
         inkscape:connector-curvature="0" />
      <path
         style="display:inline;overflow:visible;visibility:visible;fill:none;stroke:#729fcf;stroke-width:2.35117;stroke-linecap:round;stroke-linejoin:round;stroke-miterlimit:4;stroke-dasharray:none;stroke-dashoffset:0;stroke-opacity:1;marker:none;enable-background:accumulate"
         d="m -159.40722,30.604211 -6.78206,3.885229 -5.11355,-1.83873 -2.97765,-7.211069 -1.43915,0.07782 -2.07148,7.584439 -4.99186,2.2766 -7.06968,-3.072549 -0.94649,1.083504 3.90414,6.857637 -1.95648,5.010571 -7.1355,2.845405 0.0822,1.531739 7.52777,2.062954 2.33329,4.991861 -3.11471,7.061187 1.0457,0.908702 6.7065,-3.828556 5.39281,1.889398 2.65209,7.164787 1.44166,-0.01704 2.09636,-7.536257 4.8974,-2.446633 7.38672,3.161002 0.88982,-0.951258 -3.90413,-6.687603 1.6772,-5.250163 7.33482,-2.916596 -0.0504,-1.508727 -7.44181,-1.907432 -2.46554,-5.048537 3.11884,-7.22521 z"
         id="path3659-5-6-1-1-9"
         inkscape:connector-curvature="0"
         sodipodi:nodetypes="ccccccccccccccccccccccccccccccccc" />
      <circle
         style="fill:none;stroke:#729fcf;stroke-width:1.81197;stroke-linecap:round;stroke-linejoin:round;stroke-miterlimit:4;stroke-dasharray:none;stroke-dashoffset:6;stroke-opacity:1"
         id="path3898-2-8-2"
         transform="matrix(1.2975787,0,0,1.2975787,-227.20403,-4.4100648)"
         cx="41.15683"
         cy="40.103004"
         r="8.6941996" />
      <path
         style="display:inline;overflow:visible;visibility:visible;fill:url(#linearGradient3806-5-6-4);fill-opacity:1;fill-rule:evenodd;stroke:#280000;stroke-width:2.35117;stroke-linecap:butt;stroke-linejoin:miter;stroke-miterlimit:4;stroke-dasharray:none;stroke-dashoffset:0;stroke-opacity:1;marker:none;enable-background:accumulate"
         d="m -217.27976,4.1846558 1e-5,68.1839092 14.10701,-2e-6 v -28.21403 h 14.10701 V 30.047518 h -14.10701 V 18.291671 h 23.51169 V 4.1846558 Z"
         id="rect3663-8-7-7-6"
         sodipodi:nodetypes="ccccccccccc"
         inkscape:connector-curvature="0" />
      <path
         style="display:inline;overflow:visible;visibility:visible;fill:none;stroke:#ef2929;stroke-width:2.35117;stroke-linecap:butt;stroke-linejoin:miter;stroke-miterlimit:4;stroke-dasharray:none;stroke-dashoffset:0;stroke-opacity:1;marker:none;enable-background:accumulate"
         d="m -214.92859,6.535825 v 63.481569 h 9.40468 v -28.21403 h 14.10701 v -9.404677 h -14.10701 V 15.940502 h 23.51169 V 6.535825 Z"
         id="rect3663-8-3-0-9-6"
         sodipodi:nodetypes="ccccccccccc"
         inkscape:connector-curvature="0" />
    </g>
    <g
       aria-label="Free"
       id="text4997"
       style="font-size:23.5409px;line-height:4.23333px;font-family:Evolventa;-inkscape-font-specification:Evolventa;letter-spacing:0px;word-spacing:0px;stroke-width:1.4713px">
      <path
         d="m 49.217877,64.961708 h 1.742026 v -7.956824 h 6.826861 v -1.57724 h -6.826861 v -6.28542 h 7.085811 v -1.57724 h -8.827837 z"
         id="path985" />
      <path
         d="m 60.070163,64.961708 h 1.742027 v -7.509547 c 0,-2.401172 1.224127,-3.719462 3.648839,-3.954871 v -1.718486 c -1.859731,0.09416 -2.966153,0.729768 -3.648839,2.142222 v -1.83619 h -1.742027 z"
         id="path987" />
      <path
         d="m 79.397169,59.100024 c 0,-1.718485 -0.211868,-2.730744 -0.77685,-3.813626 -1.129963,-2.165762 -3.41343,-3.507594 -5.955847,-3.507594 -3.719462,0 -6.662075,2.942613 -6.662075,6.685616 0,3.813626 2.989694,6.80332 6.80332,6.80332 2.801367,0 5.320243,-1.83619 6.261879,-4.543394 h -1.812649 c -0.729768,1.765568 -2.542417,2.942613 -4.496312,2.942613 -2.660121,0 -4.872966,-2.024518 -5.014211,-4.566935 z m -11.605663,-1.57724 c 0.470818,-2.471795 2.424712,-4.143198 4.872966,-4.143198 2.495335,0 4.402148,1.57724 4.99067,4.143198 z"
         id="path989" />
      <path
         d="m 94.698744,59.100024 c 0,-1.718485 -0.211868,-2.730744 -0.77685,-3.813626 -1.129963,-2.165762 -3.41343,-3.507594 -5.955848,-3.507594 -3.719462,0 -6.662074,2.942613 -6.662074,6.685616 0,3.813626 2.989694,6.80332 6.80332,6.80332 2.801367,0 5.320243,-1.83619 6.261879,-4.543394 h -1.812649 c -0.729768,1.765568 -2.542417,2.942613 -4.496312,2.942613 -2.660122,0 -4.872966,-2.024518 -5.014211,-4.566935 z M 83.09308,57.522784 c 0.470818,-2.471795 2.424713,-4.143198 4.872966,-4.143198 2.495336,0 4.402149,1.57724 4.990671,4.143198 z"
         id="path991" />
    </g>
    <g
       aria-label="CAD"
       id="text4997-3"
       style="font-size:23.5409px;line-height:4.23333px;font-family:Evolventa;-inkscape-font-specification:Evolventa;letter-spacing:0px;word-spacing:0px;stroke-width:1.4713px">
      <path
         d="m 110.22097,60.112283 c -1.436,1.483076 -2.63659,2.048058 -4.30799,2.048058 -3.2251,0 -5.83814,-2.683662 -5.83814,-5.932307 0,-1.412454 0.54144,-2.919071 1.43599,-3.954871 1.05934,-1.247667 2.54242,-1.906812 4.33153,-1.906812 2.02452,0 3.38989,0.659145 4.56693,2.189303 h 3.60176 c -0.65914,-1.459536 -1.22413,-2.236385 -2.33055,-3.178021 -1.62432,-1.365372 -3.71946,-2.118681 -5.90876,-2.118681 -4.92005,0 -8.945546,4.025494 -8.945546,8.945542 0,5.037752 4.072576,9.063246 9.157406,9.063246 3.57822,0 6.66208,-1.977436 8.02745,-5.155457 z"
         style="font-weight:bold;-inkscape-font-specification:'Evolventa Bold'"
         id="path1012" />
      <path
         d="m 114.38765,64.961708 h 3.55468 l 1.93035,-4.496312 h 6.19126 l 1.85973,4.496312 h 3.55467 l -7.29768,-17.396724 h -2.54241 z m 6.66207,-7.580169 1.85974,-5.273162 1.85973,5.273162 z"
         style="font-weight:bold;-inkscape-font-specification:'Evolventa Bold'"
         id="path1014" />
      <path
         d="m 133.31453,64.961708 h 4.04903 c 2.56596,0 4.09612,-0.25895 5.48503,-0.894554 2.75429,-1.29475 4.40215,-4.166739 4.40215,-7.768497 0,-3.225103 -1.29475,-5.885225 -3.60176,-7.368301 -1.41245,-0.918095 -3.50759,-1.365372 -6.35604,-1.365372 h -3.97841 z m 3.2251,-3.083858 V 50.648841 h 0.6356 c 2.00098,0 3.06032,0.164787 4.04904,0.635605 1.71849,0.847472 2.77783,2.730744 2.77783,5.014211 0,2.09514 -0.96518,3.954871 -2.51888,4.802344 -0.96518,0.517899 -2.30701,0.776849 -4.23736,0.776849 z"
         style="font-weight:bold;-inkscape-font-specification:'Evolventa Bold'"
         id="path1016" />
    </g>
    <g
       aria-label="Open Source parametric 3D CAD modeler"
       id="text11736"
       style="font-size:5.93508px;line-height:4.23333px;font-family:Evolventa;-inkscape-font-specification:Evolventa;letter-spacing:0px;word-spacing:0px;stroke-width:0.370943px">
      <path
         d="m 20.676386,69.779244 c -1.305717,0 -2.350292,1.008963 -2.350292,2.273135 0,1.240432 1.05051,2.267201 2.320617,2.267201 1.270107,0 2.314681,-1.020834 2.314681,-2.267201 0,-1.240431 -1.044574,-2.273135 -2.285006,-2.273135 z m -0.05342,0.403585 c 1.05051,0 1.893291,0.836847 1.893291,1.875486 0,1.014898 -0.848716,1.85768 -1.86955,1.85768 -1.026769,0 -1.875486,-0.842782 -1.875486,-1.863616 0,-1.008963 0.848717,-1.86955 1.851745,-1.86955 z"
         id="path1037" />
      <path
         d="m 23.596442,70.995935 v 4.386024 h 0.439196 v -1.697433 c 0.284884,0.415456 0.72408,0.635054 1.264172,0.635054 0.973353,0 1.721174,-0.741885 1.721174,-1.697433 0,-0.967418 -0.741886,-1.703368 -1.709304,-1.703368 -0.557897,0 -1.003028,0.219598 -1.276042,0.635054 v -0.557898 z m 1.679628,0.32643 c 0.753755,0 1.299783,0.546027 1.299783,1.311652 0,0.730015 -0.551963,1.281978 -1.281978,1.281978 -0.730015,0 -1.287912,-0.563833 -1.287912,-1.293848 0,-0.730015 0.557897,-1.299782 1.270107,-1.299782 z"
         id="path1039" />
      <path
         d="m 30.896586,72.764589 c 0,-0.433261 -0.05342,-0.688469 -0.195858,-0.961483 -0.284883,-0.546027 -0.860586,-0.884327 -1.501575,-0.884327 -0.937742,0 -1.679627,0.741885 -1.679627,1.685563 0,0.961483 0.753755,1.715238 1.715238,1.715238 0.706274,0 1.341328,-0.462936 1.578731,-1.14547 h -0.457001 c -0.183988,0.445131 -0.640989,0.741885 -1.1336,0.741885 -0.670664,0 -1.228562,-0.510417 -1.264172,-1.151406 z m -2.925994,-0.39765 c 0.118701,-0.623184 0.611313,-1.044574 1.228561,-1.044574 0.629119,0 1.10986,0.39765 1.258237,1.044574 z"
         id="path1041" />
      <path
         d="m 31.501962,74.242424 h 0.439196 v -1.786459 c 0,-0.35017 0.04154,-0.540092 0.154312,-0.718145 0.172117,-0.261143 0.480741,-0.415455 0.836846,-0.415455 0.314559,0 0.593508,0.118701 0.771561,0.332364 0.166182,0.201793 0.231468,0.445131 0.231468,0.884327 v 1.703368 h 0.439196 v -1.703368 c 0,-0.546027 -0.07716,-0.836846 -0.284884,-1.115795 -0.255209,-0.326429 -0.646924,-0.504482 -1.103925,-0.504482 -0.427326,0 -0.771561,0.160247 -1.044574,0.498547 v -0.421391 h -0.439196 z"
         id="path1043" />
      <path
         d="m 36.523024,73.013862 c 0.04155,0.789366 0.581638,1.305718 1.371003,1.305718 0.759691,0 1.323523,-0.551962 1.323523,-1.299782 0,-0.385781 -0.160247,-0.730015 -0.43326,-0.937743 -0.183988,-0.130572 -0.367975,-0.213663 -0.819042,-0.35017 -0.39765,-0.118701 -0.528222,-0.172117 -0.646923,-0.273014 -0.124637,-0.112766 -0.207728,-0.308624 -0.207728,-0.510416 0,-0.445131 0.320494,-0.765626 0.75969,-0.765626 0.445131,0 0.753755,0.308624 0.783431,0.783431 h 0.457001 c -0.01781,-0.71221 -0.510417,-1.187016 -1.228562,-1.187016 -0.706274,0 -1.216691,0.492611 -1.216691,1.181081 0,0.302689 0.112766,0.593508 0.308624,0.777495 0.172117,0.166182 0.302689,0.231468 0.819041,0.391716 0.344235,0.100896 0.534157,0.183987 0.682534,0.284883 0.189923,0.136507 0.296754,0.36204 0.296754,0.629119 0,0.504482 -0.36204,0.872457 -0.866521,0.872457 -0.273014,0 -0.534158,-0.112767 -0.694405,-0.308625 -0.130571,-0.154312 -0.189922,-0.314559 -0.219598,-0.593508 z"
         id="path1045" />
      <path
         d="m 41.318562,70.918779 c -0.997093,0 -1.721173,0.718145 -1.721173,1.703368 0,0.973353 0.741885,1.697433 1.733044,1.697433 0.955548,0 1.655887,-0.718145 1.655887,-1.691498 0,-0.979288 -0.71221,-1.709303 -1.667758,-1.709303 z m -0.03561,0.403586 c 0.73595,0 1.258237,0.546027 1.258237,1.311652 0,0.74782 -0.510417,1.281978 -1.222627,1.281978 -0.735949,0 -1.276042,-0.546028 -1.276042,-1.287913 0,-0.74782 0.528222,-1.305717 1.240432,-1.305717 z"
         id="path1047" />
      <path
         d="m 46.470205,70.995935 h -0.439196 v 1.667758 c 0,0.39765 -0.05935,0.646923 -0.195858,0.848716 -0.183987,0.261144 -0.474806,0.403586 -0.819041,0.403586 -0.35017,0 -0.646924,-0.142442 -0.801236,-0.385781 -0.112766,-0.172117 -0.166182,-0.439196 -0.166182,-0.78343 v -1.750849 h -0.439196 v 1.750849 c 0,0.468871 0.07122,0.789365 0.237403,1.026769 0.237404,0.356104 0.635054,0.546027 1.139536,0.546027 0.504482,0 0.824976,-0.178052 1.044574,-0.581638 v 0.504482 h 0.439196 z"
         id="path1049" />
      <path
         d="m 47.218024,74.242424 h 0.439196 v -1.893291 c 0,-0.605378 0.308624,-0.937742 0.919938,-0.997093 v -0.433261 c -0.468872,0.02374 -0.74782,0.183988 -0.919938,0.540092 v -0.462936 h -0.439196 z"
         id="path1051" />
      <path
         d="m 51.562491,73.286876 c -0.3383,0.451066 -0.646924,0.629119 -1.10986,0.629119 -0.730015,0 -1.305718,-0.569768 -1.305718,-1.293848 0,-0.730015 0.563833,-1.299782 1.287913,-1.299782 0.480741,0 0.878392,0.231468 1.127665,0.658794 h 0.492612 c -0.261144,-0.652859 -0.878392,-1.06238 -1.614342,-1.06238 -0.973353,0 -1.738979,0.74782 -1.738979,1.691498 0,0.967418 0.771561,1.709303 1.768654,1.709303 0.391715,0 0.75969,-0.118702 1.056444,-0.35017 0.219598,-0.166182 0.35017,-0.338299 0.534158,-0.682534 z"
         id="path1053" />
      <path
         d="m 55.918835,72.764589 c 0,-0.433261 -0.05342,-0.688469 -0.195857,-0.961483 -0.284884,-0.546027 -0.860587,-0.884327 -1.501576,-0.884327 -0.937742,0 -1.679627,0.741885 -1.679627,1.685563 0,0.961483 0.753755,1.715238 1.715238,1.715238 0.706274,0 1.341328,-0.462936 1.578731,-1.14547 h -0.457001 c -0.183987,0.445131 -0.640989,0.741885 -1.1336,0.741885 -0.670664,0 -1.228562,-0.510417 -1.264172,-1.151406 z m -2.925994,-0.39765 c 0.118701,-0.623184 0.611313,-1.044574 1.228561,-1.044574 0.629119,0 1.10986,0.39765 1.258237,1.044574 z"
         id="path1055" />
      <path
         d="m 58.16822,70.995935 v 4.386024 h 0.439196 v -1.697433 c 0.284883,0.415456 0.724079,0.635054 1.264172,0.635054 0.973353,0 1.721173,-0.741885 1.721173,-1.697433 0,-0.967418 -0.741885,-1.703368 -1.709303,-1.703368 -0.557898,0 -1.003029,0.219598 -1.276042,0.635054 v -0.557898 z m 1.679627,0.32643 c 0.753755,0 1.299783,0.546027 1.299783,1.311652 0,0.730015 -0.551963,1.281978 -1.281977,1.281978 -0.730015,0 -1.287913,-0.563833 -1.287913,-1.293848 0,-0.730015 0.557898,-1.299782 1.270107,-1.299782 z"
         id="path1057" />
      <path
         d="m 65.521781,70.995935 h -0.439196 v 0.575703 c -0.326429,-0.457001 -0.718144,-0.652859 -1.281977,-0.652859 -0.973353,0 -1.709303,0.73595 -1.709303,1.709303 0,0.973353 0.741885,1.691498 1.744913,1.691498 0.551963,0 0.902133,-0.183987 1.246367,-0.646924 v 0.569768 h 0.439196 z m -1.727108,0.32643 c 0.73595,0 1.287912,0.551962 1.287912,1.287912 0,0.73595 -0.546027,1.305718 -1.252302,1.305718 -0.718144,0 -1.293847,-0.575703 -1.293847,-1.305718 0,-0.71221 0.563832,-1.287912 1.258237,-1.287912 z"
         id="path1059" />
      <path
         d="m 66.269591,74.242424 h 0.439196 v -1.893291 c 0,-0.605378 0.308625,-0.937742 0.919938,-0.997093 v -0.433261 c -0.468872,0.02374 -0.74782,0.183988 -0.919938,0.540092 v -0.462936 h -0.439196 z"
         id="path1061" />
      <path
         d="m 71.195689,70.995935 h -0.439196 v 0.575703 c -0.326429,-0.457001 -0.718144,-0.652859 -1.281977,-0.652859 -0.973353,0 -1.709303,0.73595 -1.709303,1.709303 0,0.973353 0.741885,1.691498 1.744914,1.691498 0.551962,0 0.902132,-0.183987 1.246366,-0.646924 v 0.569768 h 0.439196 z m -1.727108,0.32643 c 0.73595,0 1.287912,0.551962 1.287912,1.287912 0,0.73595 -0.546027,1.305718 -1.252301,1.305718 -0.718145,0 -1.293848,-0.575703 -1.293848,-1.305718 0,-0.71221 0.563833,-1.287912 1.258237,-1.287912 z"
         id="path1063" />
      <path
         d="m 71.943503,74.242424 h 0.439196 v -1.893291 c 0,-0.646923 0.32643,-1.026768 0.872457,-1.026768 0.261144,0 0.498547,0.100896 0.658794,0.278948 0.154312,0.172118 0.219598,0.397651 0.219598,0.74782 v 1.893291 h 0.439196 v -1.88142 c 0,-0.296754 0.04154,-0.492612 0.136507,-0.646924 0.154312,-0.243338 0.439196,-0.391715 0.753755,-0.391715 0.273014,0 0.522287,0.106831 0.664729,0.290819 0.130572,0.166182 0.195858,0.40952 0.195858,0.74782 v 1.88142 h 0.439195 v -1.928901 c 0,-0.409521 -0.07122,-0.682534 -0.243338,-0.914002 -0.225533,-0.308624 -0.599443,-0.480742 -1.038639,-0.480742 -0.498547,0 -0.848716,0.189923 -1.12173,0.623184 -0.255208,-0.439196 -0.569768,-0.623184 -1.062379,-0.623184 -0.409521,0 -0.658794,0.124637 -0.914003,0.451066 v -0.37391 h -0.439196 z"
         id="path1065" />
      <path
         d="m 80.763028,72.764589 c 0,-0.433261 -0.05342,-0.688469 -0.195858,-0.961483 -0.284884,-0.546027 -0.860586,-0.884327 -1.501575,-0.884327 -0.937743,0 -1.679628,0.741885 -1.679628,1.685563 0,0.961483 0.753755,1.715238 1.715238,1.715238 0.706275,0 1.341329,-0.462936 1.578732,-1.14547 h -0.457001 c -0.183988,0.445131 -0.640989,0.741885 -1.133601,0.741885 -0.670664,0 -1.228561,-0.510417 -1.264172,-1.151406 z m -2.925995,-0.39765 c 0.118702,-0.623184 0.611314,-1.044574 1.228562,-1.044574 0.629118,0 1.10986,0.39765 1.258237,1.044574 z"
         id="path1067" />
      <path
         d="m 81.635477,74.242424 h 0.439196 v -2.848838 h 0.730015 V 70.995935 H 82.074673 V 69.8564 h -0.439196 v 1.139535 h -0.70034 v 0.397651 h 0.70034 z"
         id="path1069" />
      <path
         d="m 83.249812,74.242424 h 0.439196 v -1.893291 c 0,-0.605378 0.308624,-0.937742 0.919938,-0.997093 v -0.433261 c -0.468872,0.02374 -0.747821,0.183988 -0.919938,0.540092 v -0.462936 h -0.439196 z"
         id="path1071" />
      <path
         d="m 85.071864,74.242424 h 0.439196 v -3.246489 h -0.439196 z m 0,-3.638204 H 85.51106 V 69.8564 h -0.439196 z"
         id="path1073" />
      <path
         d="m 88.994948,73.286876 c -0.3383,0.451066 -0.646924,0.629119 -1.10986,0.629119 -0.730015,0 -1.305718,-0.569768 -1.305718,-1.293848 0,-0.730015 0.563833,-1.299782 1.287913,-1.299782 0.480741,0 0.878391,0.231468 1.127665,0.658794 h 0.492611 c -0.261143,-0.652859 -0.878391,-1.06238 -1.614341,-1.06238 -0.973353,0 -1.738979,0.74782 -1.738979,1.691498 0,0.967418 0.771561,1.709303 1.768654,1.709303 0.391715,0 0.75969,-0.118702 1.056444,-0.35017 0.219598,-0.166182 0.35017,-0.338299 0.534158,-0.682534 z"
         id="path1075" />
      <path
         d="m 92.288904,70.948455 c 0.0059,-0.492612 0.249274,-0.771561 0.6766,-0.771561 0.391715,0 0.664729,0.284884 0.664729,0.688469 0,0.427326 -0.290819,0.694405 -0.747821,0.694405 -0.03561,0 -0.04154,0 -0.213662,-0.01187 v 0.391715 c 0.290819,0.0059 0.391715,0.01187 0.510416,0.03561 0.439196,0.106832 0.741885,0.498547 0.741885,0.961483 0,0.557898 -0.40952,0.985224 -0.949612,0.985224 -0.320495,0 -0.605378,-0.148377 -0.783431,-0.403586 -0.118701,-0.166182 -0.166182,-0.326429 -0.189922,-0.646923 h -0.433261 c 0.01187,0.302689 0.05935,0.516351 0.172117,0.730014 0.237403,0.445131 0.706275,0.718145 1.252302,0.718145 0.765625,0 1.371003,-0.617248 1.371003,-1.406614 0,-0.528222 -0.249273,-0.931807 -0.741885,-1.181081 0.308625,-0.213663 0.451066,-0.480741 0.451066,-0.842781 0,-0.652859 -0.451066,-1.10986 -1.103924,-1.10986 -0.658794,0 -1.08612,0.451066 -1.10986,1.169211 z"
         id="path1077" />
      <path
         d="m 95.108058,74.242424 h 1.181081 c 0.635054,0 1.08612,-0.09496 1.465965,-0.302689 0.688469,-0.379845 1.056444,-1.038639 1.056444,-1.875485 0,-0.807171 -0.326429,-1.442225 -0.949613,-1.83394 -0.427326,-0.273014 -0.902132,-0.37391 -1.721173,-0.37391 h -1.032704 z m 0.439196,-0.39765 V 70.25405 h 0.611313 c 0.640989,0 1.050509,0.07716 1.371004,0.261144 0.528222,0.296754 0.836846,0.860586 0.836846,1.53125 0,0.557898 -0.213663,1.05051 -0.593508,1.376939 -0.356105,0.302689 -0.813106,0.421391 -1.614342,0.421391 z"
         id="path1079" />
      <path
         d="m 104.80003,73.091018 c -0.17211,0.225534 -0.27894,0.332365 -0.41545,0.445131 -0.30269,0.243339 -0.70034,0.379846 -1.10986,0.379846 -1.02083,0 -1.85175,-0.836847 -1.85175,-1.869551 0,-1.056444 0.7953,-1.863615 1.84581,-1.863615 0.37391,0 0.71221,0.09496 1.00303,0.278949 0.20773,0.130572 0.33237,0.261144 0.50448,0.534157 h 0.49262 c -0.3383,-0.753755 -1.10986,-1.216691 -2.01793,-1.216691 -1.30572,0 -2.27314,0.973353 -2.27314,2.285006 0,1.281977 0.99116,2.25533 2.30281,2.25533 0.89027,0 1.56687,-0.415456 2.00606,-1.228562 z"
         id="path1081" />
      <path
         d="m 105.47663,74.242424 h 0.46293 l 0.64099,-1.477835 h 2.04167 l 0.63505,1.477835 h 0.48074 L 107.85066,69.8564 h -0.49261 z m 1.2701,-1.875485 0.86059,-2.011992 0.84278,2.011992 z"
         id="path1083" />
      <path
         d="m 110.25436,74.242424 h 1.18108 c 0.63505,0 1.08612,-0.09496 1.46597,-0.302689 0.68846,-0.379845 1.05644,-1.038639 1.05644,-1.875485 0,-0.807171 -0.32643,-1.442225 -0.94961,-1.83394 -0.42733,-0.273014 -0.90214,-0.37391 -1.72118,-0.37391 h -1.0327 z m 0.4392,-0.39765 V 70.25405 h 0.61131 c 0.64099,0 1.05051,0.07716 1.371,0.261144 0.52822,0.296754 0.83685,0.860586 0.83685,1.53125 0,0.557898 -0.21366,1.05051 -0.59351,1.376939 -0.3561,0.302689 -0.81311,0.421391 -1.61434,0.421391 z"
         id="path1085" />
      <path
         d="m 116.23691,74.242424 h 0.4392 v -1.893291 c 0,-0.646923 0.32643,-1.026768 0.87245,-1.026768 0.26115,0 0.49855,0.100896 0.6588,0.278948 0.15431,0.172118 0.2196,0.397651 0.2196,0.74782 v 1.893291 h 0.43919 v -1.88142 c 0,-0.296754 0.0416,-0.492612 0.13651,-0.646924 0.15431,-0.243338 0.43919,-0.391715 0.75375,-0.391715 0.27302,0 0.52229,0.106831 0.66473,0.290819 0.13057,0.166182 0.19586,0.40952 0.19586,0.74782 v 1.88142 h 0.4392 v -1.928901 c 0,-0.409521 -0.0712,-0.682534 -0.24334,-0.914002 -0.22554,-0.308624 -0.59945,-0.480742 -1.03864,-0.480742 -0.49855,0 -0.84872,0.189923 -1.12173,0.623184 -0.25521,-0.439196 -0.56977,-0.623184 -1.06238,-0.623184 -0.40952,0 -0.65879,0.124637 -0.914,0.451066 v -0.37391 h -0.4392 z"
         id="path1087" />
      <path
         d="m 123.40055,70.918779 c -0.9971,0 -1.72118,0.718145 -1.72118,1.703368 0,0.973353 0.74189,1.697433 1.73305,1.697433 0.95555,0 1.65589,-0.718145 1.65589,-1.691498 0,-0.979288 -0.71221,-1.709303 -1.66776,-1.709303 z m -0.0356,0.403586 c 0.73595,0 1.25823,0.546027 1.25823,1.311652 0,0.74782 -0.51041,1.281978 -1.22262,1.281978 -0.73595,0 -1.27604,-0.546028 -1.27604,-1.287913 0,-0.74782 0.52822,-1.305717 1.24043,-1.305717 z"
         id="path1089" />
      <path
         d="M 129.0092,69.8564 H 128.57 v 1.655887 c -0.32049,-0.38578 -0.76563,-0.593508 -1.27604,-0.593508 -0.98523,0 -1.72711,0.73595 -1.72711,1.709303 0,0.961483 0.76562,1.691498 1.76865,1.691498 0.54603,0 0.90213,-0.195858 1.2345,-0.664729 v 0.587573 h 0.4392 z m -1.74492,1.465965 c 0.74189,0 1.32352,0.569767 1.32352,1.287912 0,0.718145 -0.56976,1.305718 -1.26417,1.305718 -0.73595,0 -1.31165,-0.569768 -1.31165,-1.299783 0,-0.718145 0.5579,-1.293847 1.2523,-1.293847 z"
         id="path1091" />
      <path
         d="m 133.00944,72.764589 c 0,-0.433261 -0.0534,-0.688469 -0.19586,-0.961483 -0.28488,-0.546027 -0.86059,-0.884327 -1.50157,-0.884327 -0.93775,0 -1.67963,0.741885 -1.67963,1.685563 0,0.961483 0.75375,1.715238 1.71524,1.715238 0.70627,0 1.34132,-0.462936 1.57873,-1.14547 h -0.457 c -0.18399,0.445131 -0.64099,0.741885 -1.1336,0.741885 -0.67067,0 -1.22857,-0.510417 -1.26418,-1.151406 z m -2.926,-0.39765 c 0.11871,-0.623184 0.61132,-1.044574 1.22857,-1.044574 0.62911,0 1.10986,0.39765 1.25823,1.044574 z"
         id="path1093" />
      <path
         d="m 133.61481,74.242424 h 0.4392 V 69.8564 h -0.4392 z"
         id="path1095" />
      <path
         d="m 138.05425,72.764589 c 0,-0.433261 -0.0534,-0.688469 -0.19586,-0.961483 -0.28489,-0.546027 -0.86059,-0.884327 -1.50158,-0.884327 -0.93774,0 -1.67962,0.741885 -1.67962,1.685563 0,0.961483 0.75375,1.715238 1.71523,1.715238 0.70628,0 1.34133,-0.462936 1.57873,-1.14547 h -0.457 c -0.18398,0.445131 -0.64099,0.741885 -1.1336,0.741885 -0.67066,0 -1.22856,-0.510417 -1.26417,-1.151406 z m -2.926,-0.39765 c 0.1187,-0.623184 0.61131,-1.044574 1.22856,-1.044574 0.62912,0 1.10986,0.39765 1.25824,1.044574 z"
         id="path1097" />
      <path
         d="m 138.65962,74.242424 h 0.43919 v -1.893291 c 0,-0.605378 0.30863,-0.937742 0.91994,-0.997093 v -0.433261 c -0.46887,0.02374 -0.74782,0.183988 -0.91994,0.540092 v -0.462936 h -0.43919 z"
         id="path1099" />
    </g>
    <rect
       style="color:#000000;overflow:visible;fill:none;fill-opacity:1;stroke:#053f7e;stroke-width:0.107557;stroke-opacity:1;-inkscape-stroke:none;stop-color:#000000"
       id="rect16814"
       width="143.05531"
       height="45.622147"
       x="8.9694071"
       y="32.402523"
       rx="0.17650941"
       ry="0.15129384" />
    <g
       transform="matrix(0.55563016,0,0,0.55563016,136.68029,183.50605)"
       id="g3813-3-2-2-5">
      <path
         style="display:inline;overflow:visible;visibility:visible;fill:#000000;fill-opacity:1;fill-rule:evenodd;stroke:#000000;stroke-width:1.78518;stroke-linecap:round;stroke-linejoin:round;stroke-miterlimit:4;stroke-dasharray:none;stroke-dashoffset:0;stroke-opacity:1;marker:none;enable-background:accumulate"
         d="m -176.19,-37.531823 -5.51709,3.165342 -2.4363,-0.845461 -2.32443,-5.940521 -3.65646,0.192147 -1.66782,6.14287 -2.33418,1.117794 -5.82186,-2.546761 -2.459,2.732527 3.16534,5.517085 -0.865,2.429158 -5.94052,2.324436 0.21167,3.663589 6.14288,1.667805 1.11781,2.334185 -2.56629,5.8147392 2.73252,2.4589982 5.51707,-3.1653434 2.4487,0.8721266 2.30491,5.9333889 3.68311,-0.2045515 1.64827,-6.149998 2.3342,-1.117796 5.83426,2.5734288 2.459,-2.7325288 -3.16534,-5.517082 0.85259,-2.455826 5.93339,-2.304906 -0.185,-3.675986 -6.15001,-1.648272 -1.11781,-2.334185 2.55391,-5.841405 z m -8.26291,9.047342 1.13253,0.657118 0.98122,0.889643 0.78556,1.0617 0.56509,1.180426 0.33226,1.272488 0.0551,1.304081 -0.18836,1.303743 -0.42985,1.237682 -0.68378,1.144944 -0.86298,0.968819 -1.06171,0.785557 -1.18042,0.565094 -1.27248,0.332243 -1.31122,0.07458 -1.30375,-0.188341 -1.23767,-0.429865 -1.14494,-0.683784 -0.9617,-0.882511 -0.79268,-1.042166 -0.56512,-1.180424 -0.3251,-1.292021 -0.0746,-1.311214 0.18834,-1.303747 0.42987,-1.237678 0.67665,-1.125413 0.87012,-0.98835 1.06169,-0.785557 1.18043,-0.565097 1.29201,-0.325108 1.30409,-0.05505 1.30374,0.188341 1.23769,0.429864 z"
         id="path3659-5-9-6-9"
         inkscape:connector-curvature="0" />
      <path
         style="display:inline;overflow:visible;visibility:visible;fill:#000000;fill-opacity:1;fill-rule:evenodd;stroke:#000000;stroke-width:1.78518;stroke-linecap:butt;stroke-linejoin:miter;stroke-miterlimit:4;stroke-dasharray:none;stroke-dashoffset:0;stroke-opacity:1;marker:none;enable-background:accumulate"
         d="m -220.32876,-55.433889 10e-6,51.7701743 10.71107,-1.3e-6 v -21.42214 h 10.71106 v -10.711071 h -10.71106 v -8.925892 h 17.85179 v -10.71107 z"
         id="rect3663-8-7-7-9"
         sodipodi:nodetypes="ccccccccccc"
         inkscape:connector-curvature="0" />
    </g>
    <text
       xml:space="preserve"
       style="font-size:23.5409px;line-height:4.23333px;font-family:Evolventa;-inkscape-font-specification:Evolventa;letter-spacing:0px;word-spacing:0px;fill:#000000;fill-opacity:1;stroke:none;stroke-width:1.4713px;stroke-linecap:butt;stroke-linejoin:miter;stroke-opacity:1"
       x="47.428768"
       y="181.68387"
       id="text4997-361"><tspan
         sodipodi:role="line"
         id="tspan4995-2"
         style="fill:#000000;fill-opacity:1;stroke:none;stroke-width:1.4713px"
         x="47.428768"
         y="181.68387">Free</tspan></text>
    <text
       xml:space="preserve"
       style="font-size:23.5409px;line-height:4.23333px;font-family:Evolventa;-inkscape-font-specification:Evolventa;letter-spacing:0px;word-spacing:0px;fill:#000000;fill-opacity:1;stroke:none;stroke-width:1.4713px;stroke-linecap:butt;stroke-linejoin:miter;stroke-opacity:1"
       x="95.978722"
       y="181.68387"
       id="text4997-3-9"><tspan
         sodipodi:role="line"
         id="tspan4995-6-3"
         style="font-style:normal;font-variant:normal;font-weight:bold;font-stretch:normal;font-family:Evolventa;-inkscape-font-specification:'Evolventa Bold';fill:#000000;fill-opacity:1;stroke:none;stroke-width:1.4713px"
         x="95.978722"
         y="181.68387">CAD</tspan></text>
    <text
       xml:space="preserve"
       style="font-size:5.93508px;line-height:4.23333px;font-family:Evolventa;-inkscape-font-specification:Evolventa;letter-spacing:0px;word-spacing:0px;fill:#000000;fill-opacity:1;stroke:none;stroke-width:0.370943px;stroke-linecap:butt;stroke-linejoin:miter;stroke-opacity:1"
       x="18.064951"
       y="190.96458"
       id="text11736-1"><tspan
         sodipodi:role="line"
         id="tspan11734-9"
         style="fill:#000000;fill-opacity:1;stroke:none;stroke-width:0.370943px"
         x="18.064951"
         y="190.96458">Open Source parametric 3D CAD modeler</tspan></text>
    <rect
       style="color:#000000;overflow:visible;fill:none;fill-opacity:1;stroke:#053f7e;stroke-width:0.107557;stroke-opacity:1;-inkscape-stroke:none;stop-color:#000000"
       id="rect16814-4"
       width="143.05531"
       height="45.622147"
       x="8.9694071"
       y="149.12471"
       rx="0.17650941"
       ry="0.15129384" />
    <rect
       style="color:#000000;overflow:visible;fill:#000000;fill-opacity:1;stroke:#053f7e;stroke-width:0.107557;stroke-opacity:1;-inkscape-stroke:none;stop-color:#000000"
       id="rect16814-8"
       width="143.05531"
       height="45.622147"
       x="8.9694071"
       y="98.836403"
       rx="0.17650941"
       ry="0.15129384" />
    <g
       transform="matrix(0.42187476,0,0,0.42187476,105.92384,100.65148)"
       id="g3813-3-2-2-9">
      <path
         style="display:inline;overflow:visible;visibility:visible;fill:url(#linearGradient3808-5-7);fill-opacity:1;fill-rule:evenodd;stroke:#000137;stroke-width:2.35117;stroke-linecap:round;stroke-linejoin:round;stroke-miterlimit:4;stroke-dasharray:none;stroke-dashoffset:0;stroke-opacity:1;marker:none;enable-background:accumulate"
         d="m -159.14682,27.762572 -7.26628,4.168914 -3.20873,-1.113515 -3.06139,-7.823962 -4.81574,0.253068 -2.19659,8.090466 -3.07424,1.472191 -7.66769,-3.354213 -3.23863,3.598875 4.16893,7.266276 -1.13925,3.199324 -7.82397,3.061399 0.27879,4.825129 8.09048,2.196583 1.47219,3.074238 -3.37993,7.658303 3.59887,3.238623 7.26627,-4.168916 3.22506,1.148635 3.03567,7.81457 4.85085,-0.269405 2.17086,-8.099855 3.07425,-1.472193 7.68401,3.389334 3.23863,-3.598876 -4.16892,-7.266274 1.1229,-3.234445 7.81458,-3.035677 -0.24366,-4.841457 -8.09987,-2.170857 -1.4722,-3.074238 3.36361,-7.693423 z m -10.88267,11.915801 1.49161,0.865459 1.29232,1.171703 1.03462,1.398312 0.74426,1.554681 0.43759,1.67593 0.0725,1.71754 -0.24807,1.717095 -0.56614,1.630089 -0.90058,1.507949 -1.13658,1.275982 -1.39832,1.034618 -1.55468,0.744257 -1.67593,0.43758 -1.72693,0.09823 -1.71711,-0.248055 -1.63008,-0.566152 -1.50794,-0.900579 -1.26661,-1.162311 -1.04399,-1.372584 -0.74428,-1.554679 -0.42818,-1.701656 -0.0982,-1.726934 0.24806,-1.717099 0.56616,-1.630085 0.89118,-1.482225 1.14599,-1.301706 1.3983,-1.034618 1.55468,-0.744261 1.70165,-0.428183 1.71754,-0.0725 1.7171,0.248053 1.63009,0.566153 z"
         id="path3659-5-9-6-1"
         inkscape:connector-curvature="0" />
      <path
         style="display:inline;overflow:visible;visibility:visible;fill:none;stroke:#729fcf;stroke-width:2.35117;stroke-linecap:round;stroke-linejoin:round;stroke-miterlimit:4;stroke-dasharray:none;stroke-dashoffset:0;stroke-opacity:1;marker:none;enable-background:accumulate"
         d="m -159.40722,30.604211 -6.78206,3.885229 -5.11355,-1.83873 -2.97765,-7.211069 -1.43915,0.07782 -2.07148,7.584439 -4.99186,2.2766 -7.06968,-3.072549 -0.94649,1.083504 3.90414,6.857637 -1.95648,5.010571 -7.1355,2.845405 0.0822,1.531739 7.52777,2.062954 2.33329,4.991861 -3.11471,7.061187 1.0457,0.908702 6.7065,-3.828556 5.39281,1.889398 2.65209,7.164787 1.44166,-0.01704 2.09636,-7.536257 4.8974,-2.446633 7.38672,3.161002 0.88982,-0.951258 -3.90413,-6.687603 1.6772,-5.250163 7.33482,-2.916596 -0.0504,-1.508727 -7.44181,-1.907432 -2.46554,-5.048537 3.11884,-7.22521 z"
         id="path3659-5-6-1-1-2"
         inkscape:connector-curvature="0"
         sodipodi:nodetypes="ccccccccccccccccccccccccccccccccc" />
      <circle
         style="fill:none;stroke:#729fcf;stroke-width:1.81197;stroke-linecap:round;stroke-linejoin:round;stroke-miterlimit:4;stroke-dasharray:none;stroke-dashoffset:6;stroke-opacity:1"
         id="path3898-2-8-7"
         transform="matrix(1.2975787,0,0,1.2975787,-227.20403,-4.4100648)"
         cx="41.15683"
         cy="40.103004"
         r="8.6941996" />
      <path
         style="display:inline;overflow:visible;visibility:visible;fill:url(#linearGradient3806-5-6-5);fill-opacity:1;fill-rule:evenodd;stroke:#280000;stroke-width:2.35117;stroke-linecap:butt;stroke-linejoin:miter;stroke-miterlimit:4;stroke-dasharray:none;stroke-dashoffset:0;stroke-opacity:1;marker:none;enable-background:accumulate"
         d="m -217.27976,4.1846558 1e-5,68.1839092 14.10701,-2e-6 v -28.21403 h 14.10701 V 30.047518 h -14.10701 V 18.291671 h 23.51169 V 4.1846558 Z"
         id="rect3663-8-7-7-0"
         sodipodi:nodetypes="ccccccccccc"
         inkscape:connector-curvature="0" />
      <path
         style="display:inline;overflow:visible;visibility:visible;fill:none;stroke:#ef2929;stroke-width:2.35117;stroke-linecap:butt;stroke-linejoin:miter;stroke-miterlimit:4;stroke-dasharray:none;stroke-dashoffset:0;stroke-opacity:1;marker:none;enable-background:accumulate"
         d="m -214.92859,6.535825 v 63.481569 h 9.40468 v -28.21403 h 14.10701 v -9.404677 h -14.10701 V 15.940502 h 23.51169 V 6.535825 Z"
         id="rect3663-8-3-0-9-9"
         sodipodi:nodetypes="ccccccccccc"
         inkscape:connector-curvature="0" />
    </g>
    <text
       xml:space="preserve"
       style="font-size:23.5409px;line-height:4.23333px;font-family:Evolventa;-inkscape-font-specification:Evolventa;letter-spacing:0px;word-spacing:0px;fill:#ffffff;fill-opacity:1;stroke:none;stroke-width:1.4713px;stroke-linecap:butt;stroke-linejoin:miter;stroke-opacity:1"
       x="47.428768"
       y="131.39552"
       id="text4997-36"><tspan
         sodipodi:role="line"
         id="tspan4995-0"
         style="fill:#ffffff;fill-opacity:1;stroke:none;stroke-width:1.4713px"
         x="47.428768"
         y="131.39552">Free</tspan></text>
    <text
       xml:space="preserve"
       style="font-size:23.5409px;line-height:4.23333px;font-family:Evolventa;-inkscape-font-specification:Evolventa;letter-spacing:0px;word-spacing:0px;fill:#ffffff;fill-opacity:1;stroke:none;stroke-width:1.4713px;stroke-linecap:butt;stroke-linejoin:miter;stroke-opacity:1"
       x="95.978722"
       y="131.39552"
       id="text4997-3-6"><tspan
         sodipodi:role="line"
         id="tspan4995-6-2"
         style="font-style:normal;font-variant:normal;font-weight:bold;font-stretch:normal;font-family:Evolventa;-inkscape-font-specification:'Evolventa Bold';fill:#ffffff;fill-opacity:1;stroke:none;stroke-width:1.4713px"
         x="95.978722"
         y="131.39552">CAD</tspan></text>
    <text
       xml:space="preserve"
       style="font-size:5.93508px;line-height:4.23333px;font-family:Evolventa;-inkscape-font-specification:Evolventa;letter-spacing:0px;word-spacing:0px;fill:#ffffff;fill-opacity:1;stroke:none;stroke-width:0.370943px;stroke-linecap:butt;stroke-linejoin:miter;stroke-opacity:1"
       x="18.064951"
       y="140.67624"
       id="text11736-6"><tspan
         sodipodi:role="line"
         id="tspan11734-1"
         style="fill:#ffffff;fill-opacity:1;stroke:none;stroke-width:0.370943px"
         x="18.064951"
         y="140.67624">Open Source parametric 3D CAD modeler</tspan></text>
    <text
       xml:space="preserve"
       style="font-size:4.23333px;line-height:4.23333px;font-family:sans;-inkscape-font-specification:sans;letter-spacing:0px;word-spacing:0px;fill:#000000;fill-opacity:1;stroke:none;stroke-width:0.264583px;stroke-linecap:butt;stroke-linejoin:miter;stroke-opacity:1"
       x="13.815449"
       y="10.930362"
       id="text13996"><tspan
         sodipodi:role="line"
         style="fill:#000000;fill-opacity:1;stroke:none;stroke-width:0.264583px"
         x="13.815449"
         y="10.930362"
         id="tspan14716">FreeCAD official logo and mark. Font is Evolventa (GPL) - https://evolventa.github.io/</tspan></text>
    <text
       xml:space="preserve"
       style="font-size:4.23333px;line-height:4.23333px;font-family:sans;-inkscape-font-specification:sans;letter-spacing:0px;word-spacing:0px;fill:#000000;fill-opacity:1;stroke:none;stroke-width:0.264583px;stroke-linecap:butt;stroke-linejoin:miter;stroke-opacity:1"
       x="156.01865"
       y="42.120789"
       id="text13996-7"><tspan
         sodipodi:role="line"
         style="font-weight:bold;fill:#000000;fill-opacity:1;stroke:none;stroke-width:0.264583px"
         x="156.01865"
         y="42.120789"
         id="tspan14716-8">normal use</tspan><tspan
         sodipodi:role="line"
         style="fill:#000000;fill-opacity:1;stroke:none;stroke-width:0.264583px"
         x="156.01865"
         y="46.354118"
         id="tspan44342"> </tspan><tspan
         sodipodi:role="line"
         style="fill:#000000;fill-opacity:1;stroke:none;stroke-width:0.264583px"
         x="156.01865"
         y="50.587448"
         id="tspan41272">This is</tspan><tspan
         sodipodi:role="line"
         style="fill:#000000;fill-opacity:1;stroke:none;stroke-width:0.264583px"
         x="156.01865"
         y="54.820778"
         id="tspan32854">the one you should</tspan><tspan
         sodipodi:role="line"
         style="fill:#000000;fill-opacity:1;stroke:none;stroke-width:0.264583px"
         x="156.01865"
         y="59.054108"
         id="tspan32856">use unless you</tspan><tspan
         sodipodi:role="line"
         style="fill:#000000;fill-opacity:1;stroke:none;stroke-width:0.264583px"
         x="156.01865"
         y="63.287437"
         id="tspan33710">have a reason not</tspan><tspan
         sodipodi:role="line"
         style="fill:#000000;fill-opacity:1;stroke:none;stroke-width:0.264583px"
         x="156.01865"
         y="67.520767"
         id="tspan33712">to.</tspan><tspan
         sodipodi:role="line"
         style="fill:#000000;fill-opacity:1;stroke:none;stroke-width:0.264583px"
         x="156.01865"
         y="71.754097"
         id="tspan15822" /><tspan
         sodipodi:role="line"
         style="fill:#000000;fill-opacity:1;stroke:none;stroke-width:0.264583px"
         x="156.01865"
         y="75.987427"
         id="tspan1502" /><tspan
         sodipodi:role="line"
         style="fill:#000000;fill-opacity:1;stroke:none;stroke-width:0.264583px"
         x="156.01865"
         y="80.220757"
         id="tspan1504"><tspan
   style="font-weight:bold"
   id="tspan2434">Note</tspan>: the first logo </tspan><tspan
         sodipodi:role="line"
         style="fill:#000000;fill-opacity:1;stroke:none;stroke-width:0.264583px"
         x="156.01865"
         y="84.454086"
         id="tspan1508">doesn't use fonts so it </tspan><tspan
         sodipodi:role="line"
         style="fill:#000000;fill-opacity:1;stroke:none;stroke-width:0.264583px"
         x="156.01865"
         y="88.687416"
         id="tspan1512">renders correctly </tspan><tspan
         sodipodi:role="line"
         style="fill:#000000;fill-opacity:1;stroke:none;stroke-width:0.264583px"
         x="156.01865"
         y="92.920746"
         id="tspan14452">everywhere</tspan></text>
    <text
       xml:space="preserve"
       style="font-size:4.23333px;line-height:4.23333px;font-family:sans;-inkscape-font-specification:sans;letter-spacing:0px;word-spacing:0px;fill:#000000;fill-opacity:1;stroke:none;stroke-width:0.264583px;stroke-linecap:butt;stroke-linejoin:miter;stroke-opacity:1"
       x="156.01865"
       y="110.91244"
       id="text13996-7-71"><tspan
         sodipodi:role="line"
         style="font-weight:bold;fill:#000000;fill-opacity:1;stroke:none;stroke-width:0.264583px"
         x="156.01865"
         y="110.91244"
         id="tspan14716-8-1">inverted</tspan><tspan
         sodipodi:role="line"
         style="fill:#000000;fill-opacity:1;stroke:none;stroke-width:0.264583px"
         x="156.01865"
         y="115.14577"
         id="tspan44342-9"> </tspan><tspan
         sodipodi:role="line"
         style="fill:#000000;fill-opacity:1;stroke:none;stroke-width:0.264583px"
         x="156.01865"
         y="119.3791"
         id="tspan33712-3">Use this one on black</tspan><tspan
         sodipodi:role="line"
         style="fill:#000000;fill-opacity:1;stroke:none;stroke-width:0.264583px"
         x="156.01865"
         y="123.61242"
         id="tspan51531">or dark backgrounds</tspan></text>
    <text
       xml:space="preserve"
       style="font-size:4.23333px;line-height:4.23333px;font-family:sans;-inkscape-font-specification:sans;letter-spacing:0px;word-spacing:0px;fill:#000000;fill-opacity:1;stroke:none;stroke-width:0.264583px;stroke-linecap:butt;stroke-linejoin:miter;stroke-opacity:1"
       x="156.01865"
       y="167.53333"
       id="text13996-7-71-6"><tspan
         sodipodi:role="line"
         style="font-weight:bold;fill:#000000;fill-opacity:1;stroke:none;stroke-width:0.264583px"
         x="156.01865"
         y="167.53333"
         id="tspan14716-8-1-5">monochrome</tspan><tspan
         sodipodi:role="line"
         style="fill:#000000;fill-opacity:1;stroke:none;stroke-width:0.264583px"
         x="156.01865"
         y="171.76665"
         id="tspan44342-9-6"> </tspan><tspan
         sodipodi:role="line"
         style="fill:#000000;fill-opacity:1;stroke:none;stroke-width:0.264583px"
         x="156.01865"
         y="175.99998"
         id="tspan51531-9">Monochromatic </tspan><tspan
         sodipodi:role="line"
         style="fill:#000000;fill-opacity:1;stroke:none;stroke-width:0.264583px"
         x="156.01865"
         y="180.23332"
         id="tspan53731">version works too</tspan></text>
    <text
       xml:space="preserve"
       style="font-size:4.23333px;line-height:4.23333px;font-family:sans;-inkscape-font-specification:sans;letter-spacing:0px;word-spacing:0px;fill:#000000;fill-opacity:1;stroke:none;stroke-width:0.264583px;stroke-linecap:butt;stroke-linejoin:miter;stroke-opacity:1"
       x="156.01865"
       y="207.75006"
       id="text13996-7-71-6-4"><tspan
         sodipodi:role="line"
         style="font-weight:bold;fill:#000000;fill-opacity:1;stroke:none;stroke-width:0.264583px"
         x="156.01865"
         y="207.75006"
         id="tspan14716-8-1-5-8">reduced space</tspan><tspan
         sodipodi:role="line"
         style="fill:#000000;fill-opacity:1;stroke:none;stroke-width:0.264583px"
         x="156.01865"
         y="211.98338"
         id="tspan44342-9-6-1"> </tspan><tspan
         sodipodi:role="line"
         style="fill:#000000;fill-opacity:1;stroke:none;stroke-width:0.264583px"
         x="156.01865"
         y="216.21672"
         id="tspan53731-9">You can use it without</tspan><tspan
         sodipodi:role="line"
         style="fill:#000000;fill-opacity:1;stroke:none;stroke-width:0.264583px"
         x="156.01865"
         y="220.45006"
         id="tspan60201">the description text</tspan><tspan
         sodipodi:role="line"
         style="fill:#000000;fill-opacity:1;stroke:none;stroke-width:0.264583px"
         x="156.01865"
         y="224.68338"
         id="tspan60203">too. The icon size can</tspan><tspan
         sodipodi:role="line"
         style="fill:#000000;fill-opacity:1;stroke:none;stroke-width:0.264583px"
         x="156.01865"
         y="228.9167"
         id="tspan60205">be reduced a bit</tspan></text>
    <text
       xml:space="preserve"
       style="font-size:4.23333px;line-height:4.23333px;font-family:sans;-inkscape-font-specification:sans;letter-spacing:0px;word-spacing:0px;fill:#000000;fill-opacity:1;stroke:none;stroke-width:0.264583px;stroke-linecap:butt;stroke-linejoin:miter;stroke-opacity:1"
       x="156.01865"
       y="250.61255"
       id="text13996-7-71-6-4-5"><tspan
         sodipodi:role="line"
         style="font-weight:bold;fill:#000000;fill-opacity:1;stroke:none;stroke-width:0.264583px"
         x="156.01865"
         y="250.61255"
         id="tspan14716-8-1-5-8-9">alternative text</tspan><tspan
         sodipodi:role="line"
         style="fill:#000000;fill-opacity:1;stroke:none;stroke-width:0.264583px"
         x="156.01865"
         y="254.84587"
         id="tspan44342-9-6-1-8"> </tspan><tspan
         sodipodi:role="line"
         style="fill:#000000;fill-opacity:1;stroke:none;stroke-width:0.264583px"
         x="156.01865"
         y="259.07922"
         id="tspan60205-0">You prefer this less</tspan><tspan
         sodipodi:role="line"
         style="fill:#000000;fill-opacity:1;stroke:none;stroke-width:0.264583px"
         x="156.01865"
         y="263.31256"
         id="tspan64098">technical, friendlier</tspan><tspan
         sodipodi:role="line"
         style="fill:#000000;fill-opacity:1;stroke:none;stroke-width:0.264583px"
         x="156.01865"
         y="267.54587"
         id="tspan64100">description text? Go</tspan><tspan
         sodipodi:role="line"
         style="fill:#000000;fill-opacity:1;stroke:none;stroke-width:0.264583px"
         x="156.01865"
         y="271.77921"
         id="tspan64102">for it!</tspan></text>
    <g
       transform="matrix(0.42187476,0,0,0.42187476,105.92384,239.53438)"
       id="g3813-3-2-2-7">
      <path
         style="display:inline;overflow:visible;visibility:visible;fill:url(#linearGradient27341);fill-opacity:1;fill-rule:evenodd;stroke:#000137;stroke-width:2.35117;stroke-linecap:round;stroke-linejoin:round;stroke-miterlimit:4;stroke-dasharray:none;stroke-dashoffset:0;stroke-opacity:1;marker:none;enable-background:accumulate"
         d="m -159.14682,27.762572 -7.26628,4.168914 -3.20873,-1.113515 -3.06139,-7.823962 -4.81574,0.253068 -2.19659,8.090466 -3.07424,1.472191 -7.66769,-3.354213 -3.23863,3.598875 4.16893,7.266276 -1.13925,3.199324 -7.82397,3.061399 0.27879,4.825129 8.09048,2.196583 1.47219,3.074238 -3.37993,7.658303 3.59887,3.238623 7.26627,-4.168916 3.22506,1.148635 3.03567,7.81457 4.85085,-0.269405 2.17086,-8.099855 3.07425,-1.472193 7.68401,3.389334 3.23863,-3.598876 -4.16892,-7.266274 1.1229,-3.234445 7.81458,-3.035677 -0.24366,-4.841457 -8.09987,-2.170857 -1.4722,-3.074238 3.36361,-7.693423 z m -10.88267,11.915801 1.49161,0.865459 1.29232,1.171703 1.03462,1.398312 0.74426,1.554681 0.43759,1.67593 0.0725,1.71754 -0.24807,1.717095 -0.56614,1.630089 -0.90058,1.507949 -1.13658,1.275982 -1.39832,1.034618 -1.55468,0.744257 -1.67593,0.43758 -1.72693,0.09823 -1.71711,-0.248055 -1.63008,-0.566152 -1.50794,-0.900579 -1.26661,-1.162311 -1.04399,-1.372584 -0.74428,-1.554679 -0.42818,-1.701656 -0.0982,-1.726934 0.24806,-1.717099 0.56616,-1.630085 0.89118,-1.482225 1.14599,-1.301706 1.3983,-1.034618 1.55468,-0.744261 1.70165,-0.428183 1.71754,-0.0725 1.7171,0.248053 1.63009,0.566153 z"
         id="path3659-5-9-6-17"
         inkscape:connector-curvature="0" />
      <path
         style="display:inline;overflow:visible;visibility:visible;fill:none;stroke:#729fcf;stroke-width:2.35117;stroke-linecap:round;stroke-linejoin:round;stroke-miterlimit:4;stroke-dasharray:none;stroke-dashoffset:0;stroke-opacity:1;marker:none;enable-background:accumulate"
         d="m -159.40722,30.604211 -6.78206,3.885229 -5.11355,-1.83873 -2.97765,-7.211069 -1.43915,0.07782 -2.07148,7.584439 -4.99186,2.2766 -7.06968,-3.072549 -0.94649,1.083504 3.90414,6.857637 -1.95648,5.010571 -7.1355,2.845405 0.0822,1.531739 7.52777,2.062954 2.33329,4.991861 -3.11471,7.061187 1.0457,0.908702 6.7065,-3.828556 5.39281,1.889398 2.65209,7.164787 1.44166,-0.01704 2.09636,-7.536257 4.8974,-2.446633 7.38672,3.161002 0.88982,-0.951258 -3.90413,-6.687603 1.6772,-5.250163 7.33482,-2.916596 -0.0504,-1.508727 -7.44181,-1.907432 -2.46554,-5.048537 3.11884,-7.22521 z"
         id="path3659-5-6-1-1-27"
         inkscape:connector-curvature="0"
         sodipodi:nodetypes="ccccccccccccccccccccccccccccccccc" />
      <circle
         style="fill:none;stroke:#729fcf;stroke-width:1.81197;stroke-linecap:round;stroke-linejoin:round;stroke-miterlimit:4;stroke-dasharray:none;stroke-dashoffset:6;stroke-opacity:1"
         id="path3898-2-8-22"
         transform="matrix(1.2975787,0,0,1.2975787,-227.20403,-4.4100648)"
         cx="41.15683"
         cy="40.103004"
         r="8.6941996" />
      <path
         style="display:inline;overflow:visible;visibility:visible;fill:url(#linearGradient3806-5-6-0);fill-opacity:1;fill-rule:evenodd;stroke:#280000;stroke-width:2.35117;stroke-linecap:butt;stroke-linejoin:miter;stroke-miterlimit:4;stroke-dasharray:none;stroke-dashoffset:0;stroke-opacity:1;marker:none;enable-background:accumulate"
         d="m -217.27976,4.1846558 1e-5,68.1839092 14.10701,-2e-6 v -28.21403 h 14.10701 V 30.047518 h -14.10701 V 18.291671 h 23.51169 V 4.1846558 Z"
         id="rect3663-8-7-7-61"
         sodipodi:nodetypes="ccccccccccc"
         inkscape:connector-curvature="0" />
      <path
         style="display:inline;overflow:visible;visibility:visible;fill:none;stroke:#ef2929;stroke-width:2.35117;stroke-linecap:butt;stroke-linejoin:miter;stroke-miterlimit:4;stroke-dasharray:none;stroke-dashoffset:0;stroke-opacity:1;marker:none;enable-background:accumulate"
         d="m -214.92859,6.535825 v 63.481569 h 9.40468 v -28.21403 h 14.10701 v -9.404677 h -14.10701 V 15.940502 h 23.51169 V 6.535825 Z"
         id="rect3663-8-3-0-9-0"
         sodipodi:nodetypes="ccccccccccc"
         inkscape:connector-curvature="0" />
    </g>
    <text
       xml:space="preserve"
       style="font-size:23.5409px;line-height:4.23333px;font-family:Evolventa;-inkscape-font-specification:Evolventa;letter-spacing:0px;word-spacing:0px;fill:#000000;fill-opacity:1;stroke:none;stroke-width:1.4713px;stroke-linecap:butt;stroke-linejoin:miter;stroke-opacity:1"
       x="47.428768"
       y="270.27853"
       id="text4997-6"><tspan
         sodipodi:role="line"
         id="tspan4995-1"
         style="fill:#000000;fill-opacity:1;stroke:none;stroke-width:1.4713px"
         x="47.428768"
         y="270.27853">Free</tspan></text>
    <text
       xml:space="preserve"
       style="font-size:23.5409px;line-height:4.23333px;font-family:Evolventa;-inkscape-font-specification:Evolventa;letter-spacing:0px;word-spacing:0px;fill:#000000;fill-opacity:1;stroke:none;stroke-width:1.4713px;stroke-linecap:butt;stroke-linejoin:miter;stroke-opacity:1"
       x="95.978722"
       y="270.27853"
       id="text4997-3-5"><tspan
         sodipodi:role="line"
         id="tspan4995-6-9"
         style="font-style:normal;font-variant:normal;font-weight:bold;font-stretch:normal;font-family:Evolventa;-inkscape-font-specification:'Evolventa Bold';fill:#000000;fill-opacity:1;stroke:none;stroke-width:1.4713px"
         x="95.978722"
         y="270.27853">CAD</tspan></text>
    <g
       transform="matrix(0.33652332,0,0,0.33652332,91.181966,202.41975)"
       id="g3813-3-2-2-7-5">
      <path
         style="display:inline;overflow:visible;visibility:visible;fill:url(#linearGradient58625);fill-opacity:1;fill-rule:evenodd;stroke:#000137;stroke-width:2.35117;stroke-linecap:round;stroke-linejoin:round;stroke-miterlimit:4;stroke-dasharray:none;stroke-dashoffset:0;stroke-opacity:1;marker:none;enable-background:accumulate"
         d="m -159.14682,27.762572 -7.26628,4.168914 -3.20873,-1.113515 -3.06139,-7.823962 -4.81574,0.253068 -2.19659,8.090466 -3.07424,1.472191 -7.66769,-3.354213 -3.23863,3.598875 4.16893,7.266276 -1.13925,3.199324 -7.82397,3.061399 0.27879,4.825129 8.09048,2.196583 1.47219,3.074238 -3.37993,7.658303 3.59887,3.238623 7.26627,-4.168916 3.22506,1.148635 3.03567,7.81457 4.85085,-0.269405 2.17086,-8.099855 3.07425,-1.472193 7.68401,3.389334 3.23863,-3.598876 -4.16892,-7.266274 1.1229,-3.234445 7.81458,-3.035677 -0.24366,-4.841457 -8.09987,-2.170857 -1.4722,-3.074238 3.36361,-7.693423 z m -10.88267,11.915801 1.49161,0.865459 1.29232,1.171703 1.03462,1.398312 0.74426,1.554681 0.43759,1.67593 0.0725,1.71754 -0.24807,1.717095 -0.56614,1.630089 -0.90058,1.507949 -1.13658,1.275982 -1.39832,1.034618 -1.55468,0.744257 -1.67593,0.43758 -1.72693,0.09823 -1.71711,-0.248055 -1.63008,-0.566152 -1.50794,-0.900579 -1.26661,-1.162311 -1.04399,-1.372584 -0.74428,-1.554679 -0.42818,-1.701656 -0.0982,-1.726934 0.24806,-1.717099 0.56616,-1.630085 0.89118,-1.482225 1.14599,-1.301706 1.3983,-1.034618 1.55468,-0.744261 1.70165,-0.428183 1.71754,-0.0725 1.7171,0.248053 1.63009,0.566153 z"
         id="path3659-5-9-6-17-0"
         inkscape:connector-curvature="0" />
      <path
         style="display:inline;overflow:visible;visibility:visible;fill:none;stroke:#729fcf;stroke-width:2.35117;stroke-linecap:round;stroke-linejoin:round;stroke-miterlimit:4;stroke-dasharray:none;stroke-dashoffset:0;stroke-opacity:1;marker:none;enable-background:accumulate"
         d="m -159.40722,30.604211 -6.78206,3.885229 -5.11355,-1.83873 -2.97765,-7.211069 -1.43915,0.07782 -2.07148,7.584439 -4.99186,2.2766 -7.06968,-3.072549 -0.94649,1.083504 3.90414,6.857637 -1.95648,5.010571 -7.1355,2.845405 0.0822,1.531739 7.52777,2.062954 2.33329,4.991861 -3.11471,7.061187 1.0457,0.908702 6.7065,-3.828556 5.39281,1.889398 2.65209,7.164787 1.44166,-0.01704 2.09636,-7.536257 4.8974,-2.446633 7.38672,3.161002 0.88982,-0.951258 -3.90413,-6.687603 1.6772,-5.250163 7.33482,-2.916596 -0.0504,-1.508727 -7.44181,-1.907432 -2.46554,-5.048537 3.11884,-7.22521 z"
         id="path3659-5-6-1-1-27-9"
         inkscape:connector-curvature="0"
         sodipodi:nodetypes="ccccccccccccccccccccccccccccccccc" />
      <circle
         style="fill:none;stroke:#729fcf;stroke-width:1.81197;stroke-linecap:round;stroke-linejoin:round;stroke-miterlimit:4;stroke-dasharray:none;stroke-dashoffset:6;stroke-opacity:1"
         id="path3898-2-8-22-6"
         transform="matrix(1.2975787,0,0,1.2975787,-227.20403,-4.4100648)"
         cx="41.15683"
         cy="40.103004"
         r="8.6941996" />
      <path
         style="display:inline;overflow:visible;visibility:visible;fill:url(#linearGradient3806-5-6-0-0);fill-opacity:1;fill-rule:evenodd;stroke:#280000;stroke-width:2.35117;stroke-linecap:butt;stroke-linejoin:miter;stroke-miterlimit:4;stroke-dasharray:none;stroke-dashoffset:0;stroke-opacity:1;marker:none;enable-background:accumulate"
         d="m -217.27976,4.1846558 1e-5,68.1839092 14.10701,-2e-6 v -28.21403 h 14.10701 V 30.047518 h -14.10701 V 18.291671 h 23.51169 V 4.1846558 Z"
         id="rect3663-8-7-7-61-3"
         sodipodi:nodetypes="ccccccccccc"
         inkscape:connector-curvature="0" />
      <path
         style="display:inline;overflow:visible;visibility:visible;fill:none;stroke:#ef2929;stroke-width:2.35117;stroke-linecap:butt;stroke-linejoin:miter;stroke-miterlimit:4;stroke-dasharray:none;stroke-dashoffset:0;stroke-opacity:1;marker:none;enable-background:accumulate"
         d="m -214.92859,6.535825 v 63.481569 h 9.40468 v -28.21403 h 14.10701 v -9.404677 h -14.10701 V 15.940502 h 23.51169 V 6.535825 Z"
         id="rect3663-8-3-0-9-0-8"
         sodipodi:nodetypes="ccccccccccc"
         inkscape:connector-curvature="0" />
    </g>
    <text
       xml:space="preserve"
       style="font-size:23.5409px;line-height:4.23333px;font-family:Evolventa;-inkscape-font-specification:Evolventa;letter-spacing:0px;word-spacing:0px;fill:#000000;fill-opacity:1;stroke:none;stroke-width:1.4713px;stroke-linecap:butt;stroke-linejoin:miter;stroke-opacity:1"
       x="45.312099"
       y="226.88695"
       id="text4997-6-5"><tspan
         sodipodi:role="line"
         id="tspan4995-1-6"
         style="fill:#000000;fill-opacity:1;stroke:none;stroke-width:1.4713px"
         x="45.312099"
         y="226.88695">Free</tspan></text>
    <text
       xml:space="preserve"
       style="font-size:23.5409px;line-height:4.23333px;font-family:Evolventa;-inkscape-font-specification:Evolventa;letter-spacing:0px;word-spacing:0px;fill:#000000;fill-opacity:1;stroke:none;stroke-width:1.4713px;stroke-linecap:butt;stroke-linejoin:miter;stroke-opacity:1"
       x="93.862053"
       y="226.88695"
       id="text4997-3-5-1"><tspan
         sodipodi:role="line"
         id="tspan4995-6-9-1"
         style="font-style:normal;font-variant:normal;font-weight:bold;font-stretch:normal;font-family:Evolventa;-inkscape-font-specification:'Evolventa Bold';fill:#000000;fill-opacity:1;stroke:none;stroke-width:1.4713px"
         x="93.862053"
         y="226.88695">CAD</tspan></text>
    <text
       xml:space="preserve"
       style="font-size:7.36859px;line-height:4.23333px;font-family:Evolventa;-inkscape-font-specification:Evolventa;letter-spacing:0px;word-spacing:0px;fill:#000000;fill-opacity:1;stroke:none;stroke-width:0.460538px;stroke-linecap:butt;stroke-linejoin:miter;stroke-opacity:1"
       x="20.707918"
       y="280.10806"
       id="text11736-4"><tspan
         sodipodi:role="line"
         id="tspan11734-90"
         style="fill:#000000;fill-opacity:1;stroke:none;stroke-width:0.460538px"
         x="20.707918"
         y="280.10806">Your own 3D parametric modeler</tspan></text>
    <rect
       style="color:#000000;overflow:visible;fill:none;fill-opacity:1;stroke:#053f7e;stroke-width:0.107557;stroke-opacity:1;-inkscape-stroke:none;stop-color:#000000"
       id="rect16814-9"
       width="143.05531"
       height="46.737026"
       x="8.9694071"
       y="237.71922"
       rx="0.17650941"
       ry="0.15129384" />
    <text
       xml:space="preserve"
       style="font-size:4.23333px;line-height:4.23333px;font-family:sans;-inkscape-font-specification:sans;letter-spacing:0px;word-spacing:0px;fill:#000000;fill-opacity:1;stroke:none;stroke-width:0.264583px;stroke-linecap:butt;stroke-linejoin:miter;stroke-opacity:1"
       x="73.500351"
       y="27.524702"
       id="text13996-7-7"><tspan
         sodipodi:role="line"
         style="fill:#000000;fill-opacity:1;stroke:none;stroke-width:0.264583px"
         x="73.500351"
         y="27.524702"
         id="tspan14716-8-44">Evolventa normal</tspan></text>
    <text
       xml:space="preserve"
       style="font-size:4.23333px;line-height:4.23333px;font-family:sans;-inkscape-font-specification:sans;letter-spacing:0px;word-spacing:0px;fill:#000000;fill-opacity:1;stroke:none;stroke-width:0.264583px;stroke-linecap:butt;stroke-linejoin:miter;stroke-opacity:1"
       x="133.2961"
       y="27.524702"
       id="text13996-7-7-3"><tspan
         sodipodi:role="line"
         style="fill:#000000;fill-opacity:1;stroke:none;stroke-width:0.264583px"
         x="133.2961"
         y="27.524702"
         id="tspan14716-8-44-0">Evolventa bold</tspan></text>
    <text
       xml:space="preserve"
       style="font-size:4.23333px;line-height:4.23333px;font-family:sans;-inkscape-font-specification:sans;letter-spacing:0px;word-spacing:0px;fill:#000000;fill-opacity:1;stroke:none;stroke-width:0.264583px;stroke-linecap:butt;stroke-linejoin:miter;stroke-opacity:1"
       x="81.572845"
       y="87.484276"
       id="text13996-7-7-7"><tspan
         sodipodi:role="line"
         style="fill:#000000;fill-opacity:1;stroke:none;stroke-width:0.264583px"
         x="81.572845"
         y="87.484276"
         id="tspan14716-8-44-8"> Evolventa normal</tspan></text>
    <rect
       style="color:#000000;overflow:visible;fill:none;fill-opacity:1;stroke:#053f7e;stroke-width:0.107557;stroke-opacity:1;-inkscape-stroke:none;stop-color:#000000"
       id="rect16814-2"
       width="143.05531"
       height="32.731819"
       x="8.9694071"
       y="199.61914"
       rx="0.17650941"
       ry="0.15129384" />
    <path
       style="fill:none;fill-rule:evenodd;stroke:#000000;stroke-width:0.264583px;stroke-linecap:butt;stroke-linejoin:miter;stroke-opacity:1"
       d="M 8.9864574,12.346239 H 197.39745"
       id="path16653" />
    <path
       style="fill:none;fill-rule:evenodd;stroke:#000000;stroke-width:0.265;stroke-linecap:butt;stroke-linejoin:miter;stroke-miterlimit:4;stroke-dasharray:none;stroke-opacity:1;marker-end:url(#Arrow1Lend)"
       d="M 71.74915,25.814807 H 66.794603 V 47.943836"
       id="path26359" />
    <path
       style="fill:none;fill-rule:evenodd;stroke:#000000;stroke-width:0.265;stroke-linecap:butt;stroke-linejoin:miter;stroke-miterlimit:4;stroke-dasharray:none;stroke-opacity:1;marker-end:url(#Arrow1Lend-6)"
       d="m 131.54498,25.814807 h -4.95455 v 18.449975"
       id="path26359-8"
       sodipodi:nodetypes="ccc" />
    <path
       style="fill:none;fill-rule:evenodd;stroke:#000000;stroke-width:0.264583px;stroke-linecap:butt;stroke-linejoin:miter;stroke-opacity:1;marker-end:url(#Arrow1Lend-6)"
       d="m 80.015873,86.009138 h -8.644208 l 0,-9.376128"
       id="path27003"
       sodipodi:nodetypes="ccc" />
    <path
       style="fill:none;fill-rule:evenodd;stroke:#053f7e;stroke-width:0.107557;stroke-linecap:butt;stroke-linejoin:miter;stroke-opacity:1;font-variation-settings:normal;opacity:1;fill-opacity:1;stroke-miterlimit:4;stroke-dasharray:0.430228,0.215114;stroke-dashoffset:0;stop-color:#000000;stop-opacity:1"
       d="M 6.6219593,65.115929 H 154.38679"
       id="path68843" />
  </g>
</svg>
