<?xml version="1.0" encoding="UTF-8" standalone="no"?>
<!-- Created with Inkscape (http://www.inkscape.org/) -->

<svg
   width="133.4877mm"
   height="29.780699mm"
   viewBox="0 0 133.4877 29.780699"
   version="1.1"
   id="svg1121"
   inkscape:version="1.2.2 (b0a8486, 2022-12-01)"
   sodipodi:docname="FreeCADLogo2.svg"
   xmlns:inkscape="http://www.inkscape.org/namespaces/inkscape"
   xmlns:sodipodi="http://sodipodi.sourceforge.net/DTD/sodipodi-0.dtd"
   xmlns:xlink="http://www.w3.org/1999/xlink"
   xmlns="http://www.w3.org/2000/svg"
   xmlns:svg="http://www.w3.org/2000/svg"
   xmlns:rdf="http://www.w3.org/1999/02/22-rdf-syntax-ns#"
   xmlns:cc="http://creativecommons.org/ns#"
   xmlns:dc="http://purl.org/dc/elements/1.1/">
  <defs
     id="defs1115">
    <linearGradient
       xlink:href="#linearGradient3864-9"
       id="linearGradient3808-5"
       x1="-146.74467"
       y1="58.261547"
       x2="-157.32494"
       y2="26.520763"
       gradientUnits="userSpaceOnUse"
       gradientTransform="matrix(1.0094494,0,0,1.0094493,58.906453,391.02962)" />
    <linearGradient
       id="linearGradient3864-9">
      <stop
         style="stop-color:#204a87;stop-opacity:1"
         offset="0"
         id="stop3866-1" />
      <stop
         style="stop-color:#729fcf;stop-opacity:1"
         offset="1"
         id="stop3868-1" />
    </linearGradient>
    <linearGradient
       xlink:href="#linearGradient3682-0"
       id="linearGradient3806-5-6"
       x1="-206.69949"
       y1="68.841812"
       x2="-211.40184"
       y2="7.7114096"
       gradientUnits="userSpaceOnUse" />
    <linearGradient
       id="linearGradient3682-0">
      <stop
         id="stop3684-0"
         offset="0"
         style="stop-color:#a40000;stop-opacity:1" />
      <stop
         id="stop3686-0"
         offset="1"
         style="stop-color:#ef2929;stop-opacity:1" />
    </linearGradient>
    <linearGradient
       xlink:href="#linearGradient3682-0"
       id="linearGradient3806-5-6-7"
       x1="-206.69949"
       y1="68.841812"
       x2="-211.40184"
       y2="7.7114096"
       gradientUnits="userSpaceOnUse"
       gradientTransform="matrix(0.42187476,0,0,0.42187476,163.84534,280.54128)" />
    <linearGradient
       xlink:href="#linearGradient3682-0"
       id="linearGradient3806-5-6-0"
       x1="-206.69949"
       y1="68.841812"
       x2="-211.40184"
       y2="7.7114096"
       gradientUnits="userSpaceOnUse"
       gradientTransform="translate(79.214426,387.30361)" />
    <linearGradient
       xlink:href="#linearGradient3864-9"
       id="linearGradient3808-5-3"
       x1="-146.74467"
       y1="58.261547"
       x2="-157.32494"
       y2="26.520763"
       gradientUnits="userSpaceOnUse"
       gradientTransform="matrix(1.0094494,0,0,1.0094493,70.396611,219.46533)" />
    <linearGradient
       xlink:href="#linearGradient3682-0"
       id="linearGradient3806-5-6-0-5"
       x1="-206.69949"
       y1="68.841812"
       x2="-211.40184"
       y2="7.7114096"
       gradientUnits="userSpaceOnUse"
       gradientTransform="translate(90.704588,215.73932)" />
  </defs>
  <sodipodi:namedview
     id="base"
     pagecolor="#ffffff"
     bordercolor="#666666"
     borderopacity="1.0"
     inkscape:pageopacity="0.0"
     inkscape:pageshadow="2"
     inkscape:zoom="1.9171156"
     inkscape:cx="286.62852"
     inkscape:cy="154.13781"
     inkscape:document-units="mm"
     inkscape:current-layer="g3813-3-2-2"
     showgrid="false"
     showguides="true"
     inkscape:guide-bbox="true"
     inkscape:snap-global="false"
     inkscape:window-width="1850"
     inkscape:window-height="1016"
     inkscape:window-x="70"
     inkscape:window-y="27"
     inkscape:window-maximized="1"
     inkscape:showpageshadow="2"
     inkscape:pagecheckerboard="0"
     inkscape:deskcolor="#d1d1d1">
    <sodipodi:guide
       position="35.233145,-51.783364"
       orientation="1,0"
       id="guide2227"
       inkscape:locked="false" />
    <sodipodi:guide
       position="-0.46835764,-20.668273"
       orientation="0,1"
       id="guide2229"
       inkscape:locked="false" />
    <sodipodi:guide
       position="-10.295738,-96.641488"
       orientation="0,1"
       id="guide2231"
       inkscape:locked="false" />
    <sodipodi:guide
       position="-0.04643263,-54.723329"
       orientation="1,0"
       id="guide2237"
       inkscape:locked="false" />
  </sodipodi:namedview>
  <metadata
     id="metadata1118">
    <rdf:RDF>
      <cc:Work
         rdf:about="">
        <dc:format>image/svg+xml</dc:format>
        <dc:type
           rdf:resource="http://purl.org/dc/dcmitype/StillImage" />
      </cc:Work>
    </rdf:RDF>
  </metadata>
  <g
     inkscape:label="Layer 1"
     inkscape:groupmode="layer"
     id="layer1"
     transform="translate(-38.265975,-118.41709)">
    <g
       id="g2464"
       transform="translate(9.9389917,-21.084028)">
      <g
         transform="matrix(0.42187476,0,0,0.42187476,120.48778,138.23167)"
         id="g3813-3-2-2">
        <path
           style="display:inline;overflow:visible;visibility:visible;fill:url(#linearGradient3808-5-3);fill-opacity:1;fill-rule:evenodd;stroke:#000137;stroke-width:2.35117;stroke-linecap:round;stroke-linejoin:round;stroke-miterlimit:4;stroke-dasharray:none;stroke-dashoffset:0;stroke-opacity:1;marker:none;enable-background:accumulate"
           d="m -159.14682,27.762572 -7.26628,4.168914 -3.20873,-1.113515 -3.06139,-7.823962 -4.81574,0.253068 -2.19659,8.090466 -3.07424,1.472191 -7.66769,-3.354213 -3.23863,3.598875 4.16893,7.266276 -1.13925,3.199324 -7.82397,3.061399 0.27879,4.825129 8.09048,2.196583 1.47219,3.074238 -3.37993,7.658303 3.59887,3.238623 7.26627,-4.168916 3.22506,1.148635 3.03567,7.81457 4.85085,-0.269405 2.17086,-8.099855 3.07425,-1.472193 7.68401,3.389334 3.23863,-3.598876 -4.16892,-7.266274 1.1229,-3.234445 7.81458,-3.035677 -0.24366,-4.841457 -8.09987,-2.170857 -1.4722,-3.074238 3.36361,-7.693423 z m -10.88267,11.915801 1.49161,0.865459 1.29232,1.171703 1.03462,1.398312 0.74426,1.554681 0.43759,1.67593 0.0725,1.71754 -0.24807,1.717095 -0.56614,1.630089 -0.90058,1.507949 -1.13658,1.275982 -1.39832,1.034618 -1.55468,0.744257 -1.67593,0.43758 -1.72693,0.09823 -1.71711,-0.248055 -1.63008,-0.566152 -1.50794,-0.900579 -1.26661,-1.162311 -1.04399,-1.372584 -0.74428,-1.554679 -0.42818,-1.701656 -0.0982,-1.726934 0.24806,-1.717099 0.56616,-1.630085 0.89118,-1.482225 1.14599,-1.301706 1.3983,-1.034618 1.55468,-0.744261 1.70165,-0.428183 1.71754,-0.0725 1.7171,0.248053 1.63009,0.566153 z"
           id="path3659-5-9-6"
           inkscape:connector-curvature="0" />
        <path
           style="display:inline;overflow:visible;visibility:visible;fill:none;stroke:#729fcf;stroke-width:2.35117;stroke-linecap:round;stroke-linejoin:round;stroke-miterlimit:4;stroke-dasharray:none;stroke-dashoffset:0;stroke-opacity:1;marker:none;enable-background:accumulate"
           d="m -159.40722,30.604211 -6.78206,3.885229 -5.11355,-1.83873 -2.97765,-7.211069 -1.43915,0.07782 -2.07148,7.584439 -4.99186,2.2766 -7.06968,-3.072549 -0.94649,1.083504 3.90414,6.857637 -1.95648,5.010571 -7.1355,2.845405 0.0822,1.531739 7.52777,2.062954 2.33329,4.991861 -3.11471,7.061187 1.0457,0.908702 6.7065,-3.828556 5.39281,1.889398 2.65209,7.164787 1.44166,-0.01704 2.09636,-7.536257 4.8974,-2.446633 7.38672,3.161002 0.88982,-0.951258 -3.90413,-6.687603 1.6772,-5.250163 7.33482,-2.916596 -0.0504,-1.508727 -7.44181,-1.907432 -2.46554,-5.048537 3.11884,-7.22521 z"
           id="path3659-5-6-1-1"
           inkscape:connector-curvature="0" />
        <circle
           style="fill:none;stroke:#729fcf;stroke-width:1.81197;stroke-linecap:round;stroke-linejoin:round;stroke-miterlimit:4;stroke-dasharray:none;stroke-dashoffset:6;stroke-opacity:1"
           id="path3898-2-8"
           transform="matrix(1.2975787,0,0,1.2975787,-227.20403,-4.4100648)"
           cx="41.15683"
           cy="40.103004"
           r="8.6941996" />
        <path
           style="display:inline;overflow:visible;visibility:visible;fill:url(#linearGradient3806-5-6-0-5);fill-opacity:1;fill-rule:evenodd;stroke:#280000;stroke-width:2.35117;stroke-linecap:butt;stroke-linejoin:miter;stroke-miterlimit:4;stroke-dasharray:none;stroke-dashoffset:0;stroke-opacity:1;marker:none;enable-background:accumulate"
           d="m -217.27976,4.1846558 1e-5,68.1839092 14.10701,-2e-6 v -28.21403 h 14.10701 V 30.047518 h -14.10701 V 18.291671 h 23.51169 V 4.1846558 Z"
           id="rect3663-8-7-7"
           inkscape:connector-curvature="0" />
        <path
           style="display:inline;overflow:visible;visibility:visible;fill:none;stroke:#ef2929;stroke-width:2.35117;stroke-linecap:butt;stroke-linejoin:miter;stroke-miterlimit:4;stroke-dasharray:none;stroke-dashoffset:0;stroke-opacity:1;marker:none;enable-background:accumulate"
           d="m -214.92859,6.535825 v 63.481569 h 9.40468 v -28.21403 h 14.10701 v -9.404677 h -14.10701 V 15.940502 h 23.51169 V 6.535825 Z"
           id="rect3663-8-3-0-9"
           inkscape:connector-curvature="0" />
      </g>
      <g
         aria-label="Free"
         id="text4997"
         style="font-size:23.5409px;line-height:4.23333px;font-family:Evolventa;-inkscape-font-specification:Evolventa;letter-spacing:0px;word-spacing:0px;stroke-width:1.4713px;fill:#ffffff;fill-opacity:1"
         transform="translate(14.563948,104.01408)">
        <path
           d="m 49.217877,64.961708 h 1.742026 v -7.956824 h 6.826861 v -1.57724 h -6.826861 v -6.28542 h 7.085811 v -1.57724 h -8.827837 z"
           id="path985"
           inkscape:connector-curvature="0"
           style="fill:#ffffff;fill-opacity:1" />
        <path
           d="m 60.070163,64.961708 h 1.742027 v -7.509547 c 0,-2.401172 1.224127,-3.719462 3.648839,-3.954871 v -1.718486 c -1.859731,0.09416 -2.966153,0.729768 -3.648839,2.142222 v -1.83619 h -1.742027 z"
           id="path987"
           inkscape:connector-curvature="0"
           style="fill:#ffffff;fill-opacity:1" />
        <path
           d="m 79.397169,59.100024 c 0,-1.718485 -0.211868,-2.730744 -0.77685,-3.813626 -1.129963,-2.165762 -3.41343,-3.507594 -5.955847,-3.507594 -3.719462,0 -6.662075,2.942613 -6.662075,6.685616 0,3.813626 2.989694,6.80332 6.80332,6.80332 2.801367,0 5.320243,-1.83619 6.261879,-4.543394 h -1.812649 c -0.729768,1.765568 -2.542417,2.942613 -4.496312,2.942613 -2.660121,0 -4.872966,-2.024518 -5.014211,-4.566935 z m -11.605663,-1.57724 c 0.470818,-2.471795 2.424712,-4.143198 4.872966,-4.143198 2.495335,0 4.402148,1.57724 4.99067,4.143198 z"
           id="path989"
           inkscape:connector-curvature="0"
           style="fill:#ffffff;fill-opacity:1" />
        <path
           d="m 94.698744,59.100024 c 0,-1.718485 -0.211868,-2.730744 -0.77685,-3.813626 -1.129963,-2.165762 -3.41343,-3.507594 -5.955848,-3.507594 -3.719462,0 -6.662074,2.942613 -6.662074,6.685616 0,3.813626 2.989694,6.80332 6.80332,6.80332 2.801367,0 5.320243,-1.83619 6.261879,-4.543394 h -1.812649 c -0.729768,1.765568 -2.542417,2.942613 -4.496312,2.942613 -2.660122,0 -4.872966,-2.024518 -5.014211,-4.566935 z M 83.09308,57.522784 c 0.470818,-2.471795 2.424713,-4.143198 4.872966,-4.143198 2.495336,0 4.402149,1.57724 4.990671,4.143198 z"
           id="path991"
           inkscape:connector-curvature="0"
           style="fill:#ffffff;fill-opacity:1" />
      </g>
      <g
         aria-label="CAD"
         id="text4997-3"
         style="font-size:23.5409px;line-height:4.23333px;font-family:Evolventa;-inkscape-font-specification:Evolventa;letter-spacing:0px;word-spacing:0px;stroke-width:1.4713px;fill:#ffffff;fill-opacity:1"
         transform="translate(14.563948,104.01408)">
        <path
           d="m 110.22097,60.112283 c -1.436,1.483076 -2.63659,2.048058 -4.30799,2.048058 -3.2251,0 -5.83814,-2.683662 -5.83814,-5.932307 0,-1.412454 0.54144,-2.919071 1.43599,-3.954871 1.05934,-1.247667 2.54242,-1.906812 4.33153,-1.906812 2.02452,0 3.38989,0.659145 4.56693,2.189303 h 3.60176 c -0.65914,-1.459536 -1.22413,-2.236385 -2.33055,-3.178021 -1.62432,-1.365372 -3.71946,-2.118681 -5.90876,-2.118681 -4.92005,0 -8.945546,4.025494 -8.945546,8.945542 0,5.037752 4.072576,9.063246 9.157406,9.063246 3.57822,0 6.66208,-1.977436 8.02745,-5.155457 z"
           style="font-weight:bold;-inkscape-font-specification:'Evolventa Bold';fill:#ffffff;fill-opacity:1"
           id="path1012"
           inkscape:connector-curvature="0" />
        <path
           d="m 114.38765,64.961708 h 3.55468 l 1.93035,-4.496312 h 6.19126 l 1.85973,4.496312 h 3.55467 l -7.29768,-17.396724 h -2.54241 z m 6.66207,-7.580169 1.85974,-5.273162 1.85973,5.273162 z"
           style="font-weight:bold;-inkscape-font-specification:'Evolventa Bold';fill:#ffffff;fill-opacity:1"
           id="path1014"
           inkscape:connector-curvature="0" />
        <path
           d="m 133.31453,64.961708 h 4.04903 c 2.56596,0 4.09612,-0.25895 5.48503,-0.894554 2.75429,-1.29475 4.40215,-4.166739 4.40215,-7.768497 0,-3.225103 -1.29475,-5.885225 -3.60176,-7.368301 -1.41245,-0.918095 -3.50759,-1.365372 -6.35604,-1.365372 h -3.97841 z m 3.2251,-3.083858 V 50.648841 h 0.6356 c 2.00098,0 3.06032,0.164787 4.04904,0.635605 1.71849,0.847472 2.77783,2.730744 2.77783,5.014211 0,2.09514 -0.96518,3.954871 -2.51888,4.802344 -0.96518,0.517899 -2.30701,0.776849 -4.23736,0.776849 z"
           style="font-weight:bold;-inkscape-font-specification:'Evolventa Bold';fill:#ffffff;fill-opacity:1"
           id="path1016"
           inkscape:connector-curvature="0" />
      </g>
    </g>
  </g>
</svg>
