<?xml version="1.0" encoding="UTF-8" standalone="no"?>
<svg
   width="43cm"
   height="43cm"
   viewBox="128 31 850 855"
   version="1.1"
   id="svg197"
   sodipodi:docname="BNPTransactionProcessing.svg"
   inkscape:version="1.1.2 (0a00cf5339, 2022-02-04)"
   xmlns:inkscape="http://www.inkscape.org/namespaces/inkscape"
   xmlns:sodipodi="http://sodipodi.sourceforge.net/DTD/sodipodi-0.dtd"
   xmlns="http://www.w3.org/2000/svg"
   xmlns:svg="http://www.w3.org/2000/svg">
  <defs
     id="defs201" />
  <sodipodi:namedview
     id="namedview199"
     pagecolor="#ffffff"
     bordercolor="#666666"
     borderopacity="1.0"
     inkscape:pageshadow="2"
     inkscape:pageopacity="0.0"
     inkscape:pagecheckerboard="0"
     inkscape:document-units="cm"
     showgrid="false"
     inkscape:zoom="0.46271318"
     inkscape:cx="813.67901"
     inkscape:cy="811.51784"
     inkscape:window-width="1920"
     inkscape:window-height="1012"
     inkscape:window-x="0"
     inkscape:window-y="40"
     inkscape:window-maximized="1"
     inkscape:current-layer="svg197" />
  <g
     id="g8">
    <path
       style="fill:#ffffff;fill-opacity:1;stroke:#000000;stroke-width:2;stroke-opacity:1"
       fill-rule="evenodd"
       d="M 465.468,34 H 520 c -8.18,12.2 -10.907,18.3 -10.907,30.5 0,12.2 2.727,18.3 10.907,30.5 h -54.532 c -8.179,-12.2 -10.906,-18.3 -10.906,-30.5 0,-12.2 2.727,-18.3 10.906,-30.5 z"
       id="path2" />
    <text
       font-size="12.8px"
       style="font-style:normal;font-weight:normal;font-family:sans-serif;text-anchor:middle;fill:#000000;fill-opacity:1;stroke:none"
       x="487.28101"
       y="68.381203"
       id="text6"><tspan
         x="487.28101"
         y="68.381203"
         id="tspan4">csv</tspan></text>
  </g>
  <g
     id="g16">
    <polygon
       style="fill:#ffffff;fill-opacity:1;stroke:#000000;stroke-width:2;stroke-opacity:1"
       fill-rule="evenodd"
       points="492,163 396.088,239 587.913,239 "
       id="polygon10" />
    <text
       font-size="12.8px"
       style="font-style:normal;font-weight:normal;font-family:sans-serif;text-anchor:middle;fill:#000000;fill-opacity:1;stroke:none"
       x="492"
       y="223.881"
       id="text14"><tspan
         x="492"
         y="223.881"
         id="tspan12">streamsplitter</tspan></text>
  </g>
  <g
     id="g22">
    <line
       style="fill:none;stroke:#000000;stroke-width:2;stroke-opacity:1"
       x1="492.73401"
       y1="95"
       x2="492.33301"
       y2="152.929"
       id="line18" />
    <polygon
       style="fill:#000000;fill-opacity:1;stroke:#000000;stroke-width:2;stroke-opacity:1"
       fill-rule="evenodd"
       points="492.333,152.929 497.35,150.464 492.281,160.429 487.35,150.395 "
       id="polygon20" />
  </g>
  <g
     id="g30">
    <rect
       style="fill:#ffffff;fill-opacity:1;stroke:#000000;stroke-width:2;stroke-opacity:1"
       x="154.875"
       y="458"
       width="154.25"
       height="54"
       rx="0"
       ry="0"
       id="rect24" />
    <text
       font-size="12.8px"
       style="font-style:normal;font-weight:normal;font-family:sans-serif;text-anchor:middle;fill:#000000;fill-opacity:1;stroke:none"
       x="232"
       y="488.88101"
       id="text28"><tspan
         x="232"
         y="488.88101"
         id="tspan26">splitmaker_BNPDons</tspan></text>
  </g>
  <g
     id="g38">
    <path
       style="fill:#ffffff;fill-opacity:1;stroke:#000000;stroke-width:2;stroke-opacity:1"
       fill-rule="evenodd"
       d="m 153.6,320 h 113.5 c -17.025,10.9 -22.7,16.35 -22.7,27.25 0,10.9 5.675,16.35 22.7,27.25 H 153.6 c -17.025,-10.9 -22.7,-16.35 -22.7,-27.25 0,-10.9 5.675,-16.35 22.7,-27.25 z"
       id="path32" />
    <text
       font-size="12.8px"
       style="font-style:normal;font-weight:normal;font-family:sans-serif;text-anchor:middle;fill:#000000;fill-opacity:1;stroke:none"
       x="199"
       y="351.13101"
       id="text36"><tspan
         x="199"
         y="351.13101"
         id="tspan34">Donations In</tspan></text>
  </g>
  <g
     id="g46">
    <path
       style="fill:#ffffff;fill-opacity:1;stroke:#000000;stroke-width:2;stroke-opacity:1"
       fill-rule="evenodd"
       d="m 417.075,315 h 104.812 c -15.721,10.9 -20.962,16.35 -20.962,27.25 0,10.9 5.241,16.35 20.962,27.25 H 417.075 c -15.722,-10.9 -20.963,-16.35 -20.963,-27.25 0,-10.9 5.241,-16.35 20.963,-27.25 z"
       id="path40" />
    <text
       font-size="12.8px"
       style="font-style:normal;font-weight:normal;font-family:sans-serif;text-anchor:middle;fill:#000000;fill-opacity:1;stroke:none"
       x="459"
       y="346.13101"
       id="text44"><tspan
         x="459"
         y="346.13101"
         id="tspan42">Transfers in</tspan></text>
  </g>
  <g
     id="g54">
    <path
       style="fill:#ffffff;fill-opacity:1;stroke:#000000;stroke-width:2;stroke-opacity:1"
       fill-rule="evenodd"
       d="M 659.325,310 H 804.45 c -21.769,12.5 -29.025,18.75 -29.025,31.25 0,12.5 7.256,18.75 29.025,31.25 H 659.325 C 637.556,360 630.3,353.75 630.3,341.25 c 0,-12.5 7.256,-18.75 29.025,-31.25 z"
       id="path48" />
    <text
       font-size="12.8px"
       style="font-style:normal;font-weight:normal;font-family:sans-serif;text-anchor:middle;fill:#000000;fill-opacity:1;stroke:none"
       x="717.375"
       y="345.13101"
       id="text52"><tspan
         x="717.375"
         y="345.13101"
         id="tspan50">Withdrawals Out</tspan></text>
  </g>
  <g
     id="g70">
    <rect
       style="fill:#ffffff;fill-opacity:1;stroke:#000000;stroke-width:2;stroke-opacity:1"
       x="688.875"
       y="452.75"
       width="144.25"
       height="57"
       rx="0"
       ry="0"
       id="rect64" />
    <text
       font-size="12.8px"
       style="font-style:normal;font-weight:normal;font-family:sans-serif;text-anchor:middle;fill:#000000;fill-opacity:1;stroke:none"
       x="761"
       y="485.13101"
       id="text68"><tspan
         x="761"
         y="485.13101"
         id="tspan66">splitmaker_BNPFee</tspan></text>
  </g>
  <g
     id="g78">
    <path
       style="fill:#ffffff;fill-opacity:1;stroke:#000000;stroke-width:2;stroke-opacity:1"
       fill-rule="evenodd"
       d="m 199.375,606.974 h 129.063 c -19.36,11.4 -25.813,17.1 -25.813,28.5 0,11.4 6.453,17.1 25.813,28.5 H 199.375 c -19.359,-11.4 -25.812,-17.1 -25.812,-28.5 0,-11.4 6.453,-17.1 25.812,-28.5 z"
       id="path72" />
    <text
       font-size="12.8px"
       style="font-style:normal;font-weight:normal;font-family:sans-serif;text-anchor:middle;fill:#000000;fill-opacity:1;stroke:none"
       x="251"
       y="639.35498"
       id="text76"><tspan
         x="251"
         y="639.35498"
         id="tspan74">Donation Splits</tspan></text>
  </g>
  <g
     id="g94">
    <path
       style="fill:#ffffff;fill-opacity:1;stroke:#000000;stroke-width:2;stroke-opacity:1"
       fill-rule="evenodd"
       d="m 652.226,605.474 h 154.438 c -23.166,10.8 -30.888,16.2 -30.888,27 0,10.8 7.722,16.2 30.888,27 H 652.226 c -23.166,-10.8 -30.887,-16.2 -30.887,-27 0,-10.8 7.721,-16.2 30.887,-27 z"
       id="path88" />
    <text
       font-size="12.8px"
       style="font-style:normal;font-weight:normal;font-family:sans-serif;text-anchor:middle;fill:#000000;fill-opacity:1;stroke:none"
       x="714.00098"
       y="636.35498"
       id="text92"><tspan
         x="714.00098"
         y="636.35498"
         id="tspan90">Banking Fee Splits</tspan></text>
  </g>
  <g
     id="g104"
     transform="translate(-426.79313,-139.12043)">
    <path
       style="fill:#ffffff;fill-opacity:1;stroke:#000000;stroke-width:2;stroke-opacity:1"
       fill-rule="evenodd"
       d="m 863.175,597.024 h 113.65 v 64.8 c -22.73,-10.8 -34.095,-10.8 -56.825,0 -22.73,10.8 -34.095,10.8 -56.825,0 z"
       id="path96" />
    <text
       font-size="12.8px"
       style="font-style:normal;font-weight:normal;font-family:sans-serif;text-anchor:middle;fill:#000000;fill-opacity:1;stroke:none"
       x="920"
       y="619.90503"
       id="text102"><tspan
         x="920"
         y="619.90503"
         id="tspan98">Manual Handling</tspan><tspan
         x="920"
         y="635.90503"
         id="tspan100">Report</tspan></text>
  </g>
  <g
     id="g110">
    <line
       style="fill:none;stroke:#000000;stroke-width:2;stroke-opacity:1"
       x1="232"
       y1="512"
       x2="231.69501"
       y2="597.23798"
       id="line106" />
    <polygon
       style="fill:#000000;fill-opacity:1;stroke:#000000;stroke-width:2;stroke-opacity:1"
       fill-rule="evenodd"
       points="231.695,597.238 236.704,594.756 231.668,604.738 226.704,594.72 "
       id="polygon108" />
  </g>
  <g
     id="g122">
    <line
       style="fill:none;stroke:#000000;stroke-width:2;stroke-opacity:1"
       x1="760.87"
       y1="510.758"
       x2="760.49902"
       y2="594.74298"
       id="line118" />
    <polygon
       style="fill:#000000;fill-opacity:1;stroke:#000000;stroke-width:2;stroke-opacity:1"
       fill-rule="evenodd"
       points="760.499,594.743 765.51,592.266 760.466,602.243 755.51,592.221 "
       id="polygon120" />
  </g>
  <g
     id="g128"
     transform="matrix(-0.72653328,-0.68713128,-0.68713128,0.72653328,1607.6685,649.76749)">
    <line
       style="fill:none;stroke:#000000;stroke-width:2;stroke-opacity:1"
       x1="791.53101"
       y1="510.73901"
       x2="872.84003"
       y2="589.27301"
       id="line124" />
    <polygon
       style="fill:#000000;fill-opacity:1;stroke:#000000;stroke-width:2;stroke-opacity:1"
       fill-rule="evenodd"
       points="867.568,591.132 872.84,589.273 874.515,583.94 878.234,594.483 "
       id="polygon126" />
  </g>
  <g
     id="g140">
    <rect
       style="fill:#ffffff;fill-opacity:1;stroke:#000000;stroke-width:2;stroke-opacity:1"
       x="426.34399"
       y="801.25"
       width="129.65601"
       height="83"
       rx="0"
       ry="0"
       id="rect130" />
    <line
       style="fill:none;stroke:#000000;stroke-width:2;stroke-opacity:1"
       x1="439.31"
       y1="801.25"
       x2="439.31"
       y2="884.25"
       id="line132" />
    <line
       style="fill:none;stroke:#000000;stroke-width:2;stroke-opacity:1"
       x1="543.03497"
       y1="801.25"
       x2="543.03497"
       y2="884.25"
       id="line134" />
    <text
       font-size="12.8px"
       style="font-style:normal;font-weight:normal;font-family:sans-serif;text-anchor:middle;fill:#000000;fill-opacity:1;stroke:none"
       x="491.172"
       y="846.63098"
       id="text138"><tspan
         x="491.172"
         y="846.63098"
         id="tspan136">gnuCash</tspan></text>
  </g>
  <g
     id="g146">
    <line
       style="fill:none;stroke:#000000;stroke-width:2;stroke-opacity:1"
       x1="318.36801"
       y1="664.95099"
       x2="443.26999"
       y2="793.46301"
       id="line142" />
    <polygon
       style="fill:#000000;fill-opacity:1;stroke:#000000;stroke-width:2;stroke-opacity:1"
       fill-rule="evenodd"
       points="443.27,793.463 445.113,788.185 448.497,798.841 437.942,795.155 "
       id="polygon144" />
  </g>
  <g
     id="g158">
    <line
       style="fill:none;stroke:#000000;stroke-width:2;stroke-opacity:1"
       x1="724.50201"
       y1="660.46503"
       x2="553.12299"
       y2="794.35199"
       id="line154" />
    <polygon
       style="fill:#000000;fill-opacity:1;stroke:#000000;stroke-width:2;stroke-opacity:1"
       fill-rule="evenodd"
       points="553.123,794.352 558.172,796.753 547.213,798.969 552.015,788.873 "
       id="polygon156" />
  </g>
  <g
     id="g164">
    <line
       style="fill:none;stroke:#000000;stroke-width:2;stroke-opacity:1"
       x1="422.948"
       y1="239.99899"
       x2="255.325"
       y2="334.66901"
       id="line160" />
    <polygon
       style="fill:#000000;fill-opacity:1;stroke:#000000;stroke-width:2;stroke-opacity:1"
       fill-rule="evenodd"
       points="255.325,334.669 259.961,337.794 248.795,338.358 255.043,329.086 "
       id="polygon162" />
  </g>
  <g
     id="g170">
    <line
       style="fill:none;stroke:#000000;stroke-width:2;stroke-opacity:1"
       x1="491.57101"
       y1="239.985"
       x2="490.862"
       y2="304.263"
       id="line166" />
    <polygon
       style="fill:#000000;fill-opacity:1;stroke:#000000;stroke-width:2;stroke-opacity:1"
       fill-rule="evenodd"
       points="490.862,304.263 495.89,301.818 490.78,311.762 485.89,301.708 "
       id="polygon168" />
  </g>
  <g
     id="g176">
    <line
       style="fill:none;stroke:#000000;stroke-width:2;stroke-opacity:1"
       x1="566.745"
       y1="239.983"
       x2="690.50098"
       y2="304.52701"
       id="line172" />
    <polygon
       style="fill:#000000;fill-opacity:1;stroke:#000000;stroke-width:2;stroke-opacity:1"
       fill-rule="evenodd"
       points="690.501,304.527 690.596,298.938 697.151,307.995 685.972,307.804 "
       id="polygon174" />
  </g>
  <g
     id="g182">
    <line
       style="fill:none;stroke:#000000;stroke-width:2;stroke-opacity:1"
       x1="232.83501"
       y1="375.508"
       x2="232.28799"
       y2="447.267"
       id="line178" />
    <polygon
       style="fill:#000000;fill-opacity:1;stroke:#000000;stroke-width:2;stroke-opacity:1"
       fill-rule="evenodd"
       points="232.288,447.267 237.307,444.805 232.23,454.767 227.307,444.729 "
       id="polygon180" />
  </g>
  <g
     id="g188">
    <line
       style="fill:none;stroke:#000000;stroke-width:2;stroke-opacity:1"
       x1="489.966"
       y1="370.48999"
       x2="488.655"
       y2="448.008"
       id="line184" />
    <polygon
       style="fill:#000000;fill-opacity:1;stroke:#000000;stroke-width:2;stroke-opacity:1"
       fill-rule="evenodd"
       points="488.655,448.008 493.697,445.593 488.528,455.507 483.698,445.424 "
       id="polygon186" />
  </g>
  <g
     id="g194">
    <line
       style="fill:none;stroke:#000000;stroke-width:2;stroke-opacity:1"
       x1="760.93201"
       y1="373.242"
       x2="760.97498"
       y2="442.008"
       id="line190" />
    <polygon
       style="fill:#000000;fill-opacity:1;stroke:#000000;stroke-width:2;stroke-opacity:1"
       fill-rule="evenodd"
       points="760.975,442.008 765.974,439.505 760.98,449.508 755.974,439.511 "
       id="polygon192" />
  </g>
</svg>
