<?xml version="1.0" encoding="UTF-8" standalone="no"?>
<!DOCTYPE svg PUBLIC "-//W3C//DTD SVG 1.0//EN" "http://www.w3.org/TR/2001/PR-SVG-20010719/DTD/svg10.dtd">
<svg width="26cm" height="31cm" viewBox="381 133 518 606" xmlns="http://www.w3.org/2000/svg" xmlns:xlink="http://www.w3.org/1999/xlink">
  <g id="Background">
    <g>
      <path style="fill: #ffffff; fill-opacity: 1; stroke-opacity: 1; stroke-width: 2; stroke: #000000" fill-rule="evenodd" d="M 521.137 135.161 L 555.262,135.161 C 550.143,143.161 548.437,147.161 548.437,155.161 C 548.437,163.161 550.143,167.161 555.262,175.161 L 521.137,175.161 C 516.018,167.161 514.312,163.161 514.312,155.161 C 514.312,147.161 516.018,143.161 521.137,135.161z"/>
      <text font-size="12.8" style="fill: #000000; fill-opacity: 1; stroke: none;text-anchor:middle;font-family:sans-serif;font-style:normal;font-weight:normal" x="534.787" y="159.042">
        <tspan x="534.787" y="159.042">csv</tspan>
      </text>
    </g>
    <g>
      <rect style="fill: #ffffff; fill-opacity: 1; stroke-opacity: 1; stroke-width: 2; stroke: #000000" x="444.312" y="463.162" width="196.6" height="38" rx="0" ry="0"/>
      <text font-size="12.8" style="fill: #000000; fill-opacity: 1; stroke: none;text-anchor:middle;font-family:sans-serif;font-style:normal;font-weight:normal" x="542.612" y="486.043">
        <tspan x="542.612" y="486.043">splitmaker_PPDonation</tspan>
      </text>
    </g>
    <g>
      <path style="fill: #ffffff; fill-opacity: 1; stroke-opacity: 1; stroke-width: 2; stroke: #000000" fill-rule="evenodd" d="M 438.85 576.032 L 590.287,576.032 C 567.571,584.032 560,588.032 560,596.032 C 560,604.032 567.571,608.032 590.287,616.032 L 438.85,616.032 C 416.134,608.032 408.562,604.032 408.562,596.032 C 408.562,588.032 416.134,584.032 438.85,576.032z"/>
      <text font-size="12.8" style="fill: #000000; fill-opacity: 1; stroke: none;text-anchor:middle;font-family:sans-serif;font-style:normal;font-weight:normal" x="499.425" y="599.913">
        <tspan x="499.425" y="599.913">donation splits</tspan>
      </text>
    </g>
    <g>
      <rect style="fill: #ffffff; fill-opacity: 1; stroke-opacity: 1; stroke-width: 2; stroke: #000000" x="507.754" y="696.818" width="77.375" height="40" rx="0" ry="0"/>
      <line style="fill: none; stroke-opacity: 1; stroke-width: 2; stroke: #000000" x1="515.491" y1="696.818" x2="515.491" y2="736.818"/>
      <line style="fill: none; stroke-opacity: 1; stroke-width: 2; stroke: #000000" x1="577.391" y1="696.818" x2="577.391" y2="736.818"/>
      <text font-size="12.8" style="fill: #000000; fill-opacity: 1; stroke: none;text-anchor:middle;font-family:sans-serif;font-style:normal;font-weight:normal" x="546.441" y="720.699">
        <tspan x="546.441" y="720.699">gnuCash</tspan>
      </text>
    </g>
    <g>
      <line style="fill: none; stroke-opacity: 1; stroke-width: 2; stroke: #000000" x1="545.131" y1="617.035" x2="546.038" y2="686.079"/>
      <polygon style="fill: #000000; fill-opacity: 1; stroke-opacity: 1; stroke-width: 2; stroke: #000000" fill-rule="evenodd" points="546.136,693.579 541.006,683.645 546.038,686.079 551.005,683.514 "/>
    </g>
    <g>
      <polygon style="fill: #ffffff; fill-opacity: 1; stroke-opacity: 1; stroke-width: 2; stroke: #000000" fill-rule="evenodd" points="417.912,273.162 653.312,273.162 535.612,209.162 "/>
      <text font-size="12.8" style="fill: #000000; fill-opacity: 1; stroke: none;text-anchor:middle;font-family:sans-serif;font-style:normal;font-weight:normal" x="535.612" y="261.043">
        <tspan x="535.612" y="261.043">streamsplitter_PP</tspan>
      </text>
    </g>
    <g>
      <line style="fill: none; stroke-opacity: 1; stroke-width: 2; stroke: #000000" x1="529.668" y1="175.161" x2="531.894" y2="199.875"/>
      <polygon style="fill: #000000; fill-opacity: 1; stroke-opacity: 1; stroke-width: 2; stroke: #000000" fill-rule="evenodd" points="532.566,207.344 526.69,197.833 531.894,199.875 536.649,196.936 "/>
    </g>
    <g>
      <path style="fill: #ffffff; fill-opacity: 1; stroke-opacity: 1; stroke-width: 2; stroke: #000000" fill-rule="evenodd" d="M 418.006 351.92 L 588.038,351.92 C 562.533,359.92 554.032,363.92 554.032,371.92 C 554.032,379.92 562.533,383.92 588.038,391.92 L 418.006,391.92 C 392.502,383.92 384,379.92 384,371.92 C 384,363.92 392.502,359.92 418.006,351.92z"/>
      <text font-size="12.8" style="fill: #000000; fill-opacity: 1; stroke: none;text-anchor:middle;font-family:sans-serif;font-style:normal;font-weight:normal" x="486.019" y="375.801">
        <tspan x="486.019" y="375.801">donations in</tspan>
      </text>
    </g>
    <g>
      <line style="fill: none; stroke-opacity: 1; stroke-width: 2; stroke: #000000" x1="538.092" y1="392.92" x2="541.106" y2="452.434"/>
      <polygon style="fill: #000000; fill-opacity: 1; stroke-opacity: 1; stroke-width: 2; stroke: #000000" fill-rule="evenodd" points="541.486,459.925 535.986,450.19 541.106,452.434 545.973,449.684 "/>
    </g>
    <g>
      <line style="fill: none; stroke-opacity: 1; stroke-width: 2; stroke: #000000" x1="543.002" y1="501.956" x2="544.251" y2="565.336"/>
      <polygon style="fill: #000000; fill-opacity: 1; stroke-opacity: 1; stroke-width: 2; stroke: #000000" fill-rule="evenodd" points="544.399,572.835 539.203,562.935 544.251,565.336 549.201,562.738 "/>
    </g>
    <g>
      <line style="fill: none; stroke-opacity: 1; stroke-width: 2; stroke: #000000" x1="579.578" y1="273.863" x2="689.258" y2="355.442"/>
      <polygon style="fill: #000000; fill-opacity: 1; stroke-opacity: 1; stroke-width: 2; stroke: #000000" fill-rule="evenodd" points="695.275,359.918 684.268,357.962 689.258,355.442 690.236,349.938 "/>
    </g>
    <text font-size="12.8" style="fill: #000000; fill-opacity: 1; stroke: none;text-anchor:start;font-family:sans-serif;font-style:normal;font-weight:normal" x="537.028" y="371.92">
      <tspan x="537.028" y="371.92"></tspan>
    </text>
    <g>
      <line style="fill: none; stroke-opacity: 1; stroke-width: 2; stroke: #000000" x1="535.969" y1="274.139" x2="536.696" y2="341.211"/>
      <polygon style="fill: #000000; fill-opacity: 1; stroke-opacity: 1; stroke-width: 2; stroke: #000000" fill-rule="evenodd" points="536.777,348.71 531.669,338.765 536.696,341.211 541.668,338.657 "/>
    </g>
    <g>
      <path style="fill: #ffffff; fill-opacity: 1; stroke-opacity: 1; stroke-width: 2; stroke: #000000" fill-rule="evenodd" d="M 602.624 362.25 L 897.374,362.25 L 897.374,428.028 C 838.424,417.065 808.949,417.065 749.999,428.028 C 691.049,438.991 661.574,438.991 602.624,428.028 L 602.624,362.25z"/>
      <text font-size="12.8" style="fill: #000000; fill-opacity: 1; stroke: none;text-anchor:middle;font-family:sans-serif;font-style:normal;font-weight:normal" x="749.999" y="385.539">
        <tspan x="749.999" y="385.539">transfers, currency conversions, payouts</tspan>
        <tspan x="749.999" y="401.539">requiring manual handling</tspan>
      </text>
    </g>
  </g>
</svg>
