<svg width="1024" height="1024" viewBox="0 0 1024 1024" fill="none" xmlns="http://www.w3.org/2000/svg">
<rect width="1024" height="1024" fill="white"/>
<g clip-path="url(#clip0_200_618)">
<path fill-rule="evenodd" clip-rule="evenodd" d="M320 128H832V256L704 384V256H320V768H448L320 896H192V256L320 128Z" fill="#FF585D"/>
<path d="M320 640L192 768V256L320 128H704L576 256H320V640Z" fill="#CB333B"/>
<path fill-rule="evenodd" clip-rule="evenodd" d="M832 256L704.008 384.008H448.008V480.002H576V608.01H448.008V768L320 896.008H449.612C459.317 896.008 467.913 889.76 470.911 880.53L494.079 809.225C496.295 802.406 501.646 797.071 508.465 794.855L526.275 789.067C533.095 786.851 540.566 788.028 546.367 792.242L607.006 836.312C614.856 842.015 625.498 842.015 633.348 836.312L687.703 796.806C695.555 791.103 698.838 781 695.839 771.77L672.672 700.465C670.455 693.646 671.649 686.175 675.863 680.374L686.877 665.226C691.091 659.425 697.814 655.983 704.984 655.982L779.96 655.999C789.665 655.999 798.26 649.734 801.259 640.504L822.029 576.607C825.027 567.378 821.744 557.259 813.893 551.555L753.237 507.486C747.436 503.271 744.01 496.549 744.01 489.378V470.642C744.011 463.472 747.436 456.733 753.237 452.519L822.773 402C828.574 397.785 832 391.046 832 383.876V256Z" fill="#418FDE"/>
<path fill-rule="evenodd" clip-rule="evenodd" d="M320 256H704V384H448L448 480.002H576L576 608H448L448 768H320V256Z" fill="white"/>
</g>
<defs>
<clipPath id="clip0_200_618">
<rect width="640" height="768" fill="white" transform="translate(192 128)"/>
</clipPath>
</defs>
</svg>
