<svg width="256" height="256" viewBox="0 0 256 256" fill="none" xmlns="http://www.w3.org/2000/svg">
<rect width="256" height="256" fill="white"/>
<g clip-path="url(#clip0_234_1596)">
<path fill-rule="evenodd" clip-rule="evenodd" d="M17 95H61V106L50 117V106H17V150H28L17 161H6V106L17 95Z" fill="#FF585D"/>
<path d="M17 139L6 150V106L17 95H50L39 106H17V139Z" fill="#CB333B"/>
<path fill-rule="evenodd" clip-rule="evenodd" d="M61 106L50.0007 117.001H28.0007V125.25H39V136.251H28.0007V150L17 161.001H28.1386C28.9725 161.001 29.7112 160.464 29.9689 159.671L31.9599 153.543C32.1503 152.957 32.6102 152.498 33.1962 152.308L34.7268 151.81C35.3128 151.62 35.9549 151.721 36.4534 152.083L41.6646 155.871C42.3392 156.361 43.2537 156.361 43.9284 155.871L48.5995 152.476C49.2743 151.985 49.5564 151.117 49.2987 150.324L47.3077 144.196C47.1173 143.61 47.2198 142.968 47.582 142.47L48.5285 141.168C48.8906 140.669 49.4684 140.374 50.0846 140.373L56.5278 140.375C57.3618 140.375 58.1005 139.837 58.3582 139.043L60.1431 133.552C60.4008 132.759 60.1186 131.889 59.4439 131.399L54.2313 127.612C53.7328 127.25 53.4383 126.672 53.4384 126.056V124.446C53.4384 123.83 53.7328 123.25 54.2313 122.888L60.207 118.547C60.7055 118.185 61 117.606 61 116.989V106Z" fill="#418FDE"/>
<path fill-rule="evenodd" clip-rule="evenodd" d="M17 106H50V117H28L28 125.25H39L39 136.25H28L28 150H17V106Z" fill="white"/>
</g>
<path d="M75.1977 143.5V112.407H90.9758V115.226H78.3113V126.46H90.513V129.279H78.3113V143.5H75.1977ZM94.6199 143.5V120.485H97.7335V123.767C98.9536 121.242 100.931 120.106 104.255 119.938V123.009C99.9214 123.43 97.7335 125.786 97.7335 130.078V143.5H94.6199ZM129.141 133.023H108.314C108.566 137.567 112.521 141.186 117.276 141.186C120.768 141.186 124.008 139.082 125.312 135.926H128.552C126.869 140.765 122.367 144.047 117.36 144.047C110.544 144.047 105.2 138.703 105.2 131.887C105.2 125.197 110.46 119.938 117.107 119.938C121.651 119.938 125.733 122.336 127.752 126.207C128.762 128.143 129.141 129.952 129.141 133.023ZM108.398 130.204H126.027C124.975 125.618 121.567 122.799 117.107 122.799C112.732 122.799 109.239 125.786 108.398 130.204ZM156.506 133.023H135.679C135.931 137.567 139.886 141.186 144.641 141.186C148.133 141.186 151.373 139.082 152.677 135.926H155.917C154.234 140.765 149.732 144.047 144.725 144.047C137.909 144.047 132.565 138.703 132.565 131.887C132.565 125.197 137.825 119.938 144.473 119.938C149.017 119.938 153.098 122.336 155.118 126.207C156.127 128.143 156.506 129.952 156.506 133.023ZM135.763 130.204H153.392C152.341 125.618 148.932 122.799 144.473 122.799C140.097 122.799 136.605 125.786 135.763 130.204ZM183.619 134.833H190.393C187.952 140.513 182.441 144.047 176.045 144.047C166.957 144.047 159.678 136.852 159.678 127.848C159.678 119.054 166.873 111.86 175.667 111.86C179.58 111.86 183.324 113.206 186.227 115.646C188.205 117.329 189.215 118.718 190.393 121.326H183.955C181.852 118.592 179.411 117.413 175.793 117.413C172.595 117.413 169.944 118.592 168.051 120.822C166.452 122.673 165.484 125.366 165.484 127.89C165.484 133.697 170.155 138.493 175.919 138.493C178.906 138.493 181.052 137.483 183.619 134.833ZM191.041 143.5L204 112.407H208.545L221.588 143.5H215.234L211.911 135.464H200.845L197.395 143.5H191.041ZM202.949 129.952H209.596L206.273 120.527L202.949 129.952ZM224.88 143.5V112.407H231.99C237.081 112.407 240.826 113.206 243.35 114.847C247.474 117.498 249.788 122.252 249.788 128.016C249.788 134.454 246.843 139.587 241.92 141.901C239.437 143.037 236.703 143.5 232.116 143.5H224.88ZM230.644 137.988H231.906C235.356 137.988 237.754 137.525 239.48 136.6C242.256 135.085 243.982 131.761 243.982 128.016C243.982 123.935 242.088 120.569 239.017 119.054C237.25 118.213 235.356 117.918 231.78 117.918H230.644V137.988Z" fill="#2D2926"/>
<defs>
<clipPath id="clip0_234_1596">
<rect width="55" height="66" fill="white" transform="translate(6 95)"/>
</clipPath>
</defs>
</svg>
