<svg width="1024" height="1024" viewBox="0 0 1024 1024" fill="none" xmlns="http://www.w3.org/2000/svg">
<rect width="1024" height="1024" fill="white"/>
<g clip-path="url(#clip0_234_1536)">
<path fill-rule="evenodd" clip-rule="evenodd" d="M68 380H244V424L200 468V424H68V600H112L68 644H24V424L68 380Z" fill="#FF585D"/>
<path d="M68 556L24 600V424L68 380H200L156 424H68V556Z" fill="#CB333B"/>
<path fill-rule="evenodd" clip-rule="evenodd" d="M244 424L200.003 468.003H112.003V501.001H156V545.004H112.003V600L68 644.003H112.554C115.89 644.003 118.845 641.855 119.876 638.682L127.84 614.171C128.601 611.827 130.441 609.993 132.785 609.231L138.907 607.242C141.251 606.48 143.819 606.885 145.814 608.333L166.658 623.482C169.357 625.443 173.015 625.443 175.713 623.482L194.398 609.902C197.097 607.942 198.226 604.469 197.195 601.296L189.231 576.785C188.469 574.441 188.879 571.873 190.328 569.878L194.114 564.672C195.563 562.677 197.874 561.494 200.338 561.494L226.111 561.5C229.447 561.5 232.402 559.346 233.433 556.173L240.572 534.209C241.603 531.036 240.474 527.558 237.776 525.597L216.925 510.448C214.931 508.999 213.753 506.689 213.753 504.224V497.783C213.754 495.319 214.931 493.002 216.925 491.553L240.828 474.187C242.822 472.739 244 470.422 244 467.957V424Z" fill="#418FDE"/>
<path fill-rule="evenodd" clip-rule="evenodd" d="M68 424H200V468H112L112 501.001H156L156 545H112L112 600H68V424Z" fill="white"/>
</g>
<path d="M300.791 574V449.626H363.903V460.902H313.245V505.838H362.052V517.115H313.245V574H300.791ZM378.48 574V481.94H390.934V495.067C395.815 484.969 403.725 480.425 417.02 479.752V492.038C399.685 493.721 390.934 503.146 390.934 520.312V574H378.48ZM516.563 532.093H433.255C434.265 550.27 450.085 564.743 469.103 564.743C483.072 564.743 496.031 556.328 501.248 543.706H514.207C507.475 563.06 489.467 576.188 469.439 576.188C442.175 576.188 420.801 554.814 420.801 527.549C420.801 500.789 441.838 479.752 468.429 479.752C486.606 479.752 502.931 489.345 511.009 504.829C515.049 512.57 516.563 519.807 516.563 532.093ZM433.591 520.817H504.109C499.902 502.472 486.269 491.196 468.429 491.196C450.926 491.196 436.957 503.146 433.591 520.817ZM626.024 532.093H542.715C543.725 550.27 559.545 564.743 578.563 564.743C592.532 564.743 605.491 556.328 610.709 543.706H623.668C616.936 563.06 598.928 576.188 578.9 576.188C551.635 576.188 530.261 554.814 530.261 527.549C530.261 500.789 551.299 479.752 577.89 479.752C596.067 479.752 612.392 489.345 620.47 504.829C624.509 512.57 626.024 519.807 626.024 532.093ZM543.052 520.817H613.57C609.362 502.472 595.73 491.196 577.89 491.196C560.387 491.196 546.418 503.146 543.052 520.817ZM734.475 539.33H761.571C751.81 562.051 729.763 576.188 704.181 576.188C667.828 576.188 638.712 547.409 638.712 511.392C638.712 476.218 667.492 447.438 702.666 447.438C718.318 447.438 733.297 452.824 744.91 462.585C752.82 469.317 756.859 474.871 761.571 485.306H735.821C727.406 474.366 717.645 469.654 703.171 469.654C690.38 469.654 679.777 474.366 672.204 483.286C665.809 490.691 661.938 501.463 661.938 511.561C661.938 534.786 680.619 553.972 703.676 553.972C715.625 553.972 724.209 549.933 734.475 539.33ZM764.165 574L816.002 449.626H834.178L886.351 574H860.938L847.642 541.855H803.379L789.579 574H764.165ZM811.794 519.807H838.386L825.09 482.108L811.794 519.807ZM899.518 574V449.626H927.961C948.325 449.626 963.304 452.824 973.402 459.388C989.895 469.991 999.152 489.008 999.152 512.066C999.152 537.815 987.371 558.348 967.68 567.605C957.75 572.149 946.81 574 928.466 574H899.518ZM922.575 551.953H927.624C941.425 551.953 951.018 550.101 957.918 546.399C969.026 540.34 975.926 527.044 975.926 512.066C975.926 495.74 968.353 482.276 956.067 476.218C948.998 472.852 941.425 471.674 927.119 471.674H922.575V551.953Z" fill="#2D2926"/>
<defs>
<clipPath id="clip0_234_1536">
<rect width="220" height="264" fill="white" transform="translate(24 380)"/>
</clipPath>
</defs>
</svg>
