<svg width="128" height="128" viewBox="0 0 128 128" fill="none" xmlns="http://www.w3.org/2000/svg">
<g clip-path="url(#clip0_235_2394)">
<path fill-rule="evenodd" clip-rule="evenodd" d="M8.5 46H30.5V51.5L25 57V51.5H8.5V73.5H14L8.5 79H3V51.5L8.5 46Z" fill="#FF585D"/>
<path d="M8.5 68L3 73.5V51.5L8.5 46H25L19.5 51.5H8.5V68Z" fill="#CB333B"/>
<path fill-rule="evenodd" clip-rule="evenodd" d="M30.5 51.5L25.0004 57.0004H14.0004V61.1251H19.5V66.6254H14.0004V73.5L8.5 79.0004H14.0693C14.4863 79.0004 14.8556 78.7319 14.9845 78.3353L15.9799 75.2714C16.0752 74.9784 16.3051 74.7491 16.5981 74.6539L17.3634 74.4052C17.6564 74.31 17.9774 74.3606 18.2267 74.5417L20.8323 76.4353C21.1696 76.6803 21.6269 76.6803 21.9642 76.4353L24.2998 74.7378C24.6371 74.4927 24.7782 74.0586 24.6493 73.662L23.6539 70.5981C23.5586 70.3051 23.6099 69.9841 23.791 69.7348L24.2642 69.0839C24.4453 68.8347 24.7342 68.6868 25.0423 68.6867L28.2639 68.6874C28.6809 68.6875 29.0503 68.4183 29.1791 68.0217L30.0715 65.2761C30.2004 64.8795 30.0593 64.4447 29.722 64.1996L27.1157 62.306C26.8664 62.1249 26.7192 61.8361 26.7192 61.528V60.7229C26.7192 60.4148 26.8664 60.1252 27.1157 59.9442L30.1035 57.7734C30.3528 57.5923 30.5 57.3028 30.5 56.9947V51.5Z" fill="#418FDE"/>
<path fill-rule="evenodd" clip-rule="evenodd" d="M8.5 51.5H25V57H14L14 61.1251H19.5L19.5 66.625H14L14 73.5H8.5V51.5Z" fill="white"/>
</g>
<path d="M37.5989 70.5V54.9533H45.4879V56.3628H39.1556V61.9798H45.2565V63.3893H39.1556V70.5H37.5989ZM47.31 70.5V58.9925H48.8667V60.6334C49.4768 59.3712 50.4656 58.8031 52.1275 58.719V60.2547C49.9607 60.4651 48.8667 61.6432 48.8667 63.789V70.5H47.31ZM64.5704 65.2617H54.1568C54.2831 67.5337 56.2606 69.3429 58.6378 69.3429C60.3839 69.3429 62.0038 68.2911 62.656 66.7132H64.2759C63.4344 69.1326 61.1834 70.7735 58.6799 70.7735C55.2718 70.7735 52.6001 68.1017 52.6001 64.6936C52.6001 61.3487 55.2298 58.719 58.5537 58.719C60.8257 58.719 62.8664 59.9181 63.8762 61.8536C64.3811 62.8213 64.5704 63.7259 64.5704 65.2617ZM54.1989 63.8521H63.0136C62.4877 61.5591 60.7837 60.1495 58.5537 60.1495C56.3658 60.1495 54.6197 61.6432 54.1989 63.8521ZM78.253 65.2617H67.8394C67.9657 67.5337 69.9432 69.3429 72.3204 69.3429C74.0665 69.3429 75.6864 68.2911 76.3386 66.7132H77.9585C77.117 69.1326 74.866 70.7735 72.3625 70.7735C68.9544 70.7735 66.2827 68.1017 66.2827 64.6936C66.2827 61.3487 68.9123 58.719 72.2363 58.719C74.5083 58.719 76.549 59.9181 77.5588 61.8536C78.0637 62.8213 78.253 63.7259 78.253 65.2617ZM67.8815 63.8521H76.6962C76.1703 61.5591 74.4662 60.1495 72.2363 60.1495C70.0484 60.1495 68.3023 61.6432 67.8815 63.8521ZM91.8094 66.1663H95.1964C93.9762 69.0063 91.2203 70.7735 88.0226 70.7735C83.4785 70.7735 79.839 67.1761 79.839 62.674C79.839 58.2772 83.4364 54.6798 87.8333 54.6798C89.7898 54.6798 91.6621 55.353 93.1137 56.5732C94.1025 57.4147 94.6074 58.1089 95.1964 59.4132H91.9777C90.9258 58.0458 89.7056 57.4567 87.8964 57.4567C86.2975 57.4567 84.9722 58.0458 84.0255 59.1608C83.2261 60.0864 82.7422 61.4328 82.7422 62.6951C82.7422 65.5983 85.0774 67.9965 87.9595 67.9965C89.4532 67.9965 90.5261 67.4916 91.8094 66.1663ZM95.5207 70.5L102 54.9533H104.272L110.794 70.5H107.617L105.955 66.4818H100.422L98.6973 70.5H95.5207ZM101.474 63.7259H104.798L103.136 59.0135L101.474 63.7259ZM112.44 70.5V54.9533H115.995C118.541 54.9533 120.413 55.353 121.675 56.1735C123.737 57.4988 124.894 59.8761 124.894 62.7582C124.894 65.9769 123.421 68.5435 120.96 69.7006C119.719 70.2686 118.351 70.5 116.058 70.5H112.44ZM115.322 67.7441H115.953C117.678 67.7441 118.877 67.5127 119.74 67.0498C121.128 66.2925 121.991 64.6305 121.991 62.7582C121.991 60.7176 121.044 59.0346 119.508 58.2772C118.625 57.8565 117.678 57.7092 115.89 57.7092H115.322V67.7441Z" fill="#2D2926"/>
<defs>
<clipPath id="clip0_235_2394">
<rect width="27.5" height="33" fill="white" transform="translate(3 46)"/>
</clipPath>
</defs>
</svg>
