<svg width="128" height="128" viewBox="0 0 128 128" fill="none" xmlns="http://www.w3.org/2000/svg">
<rect width="128" height="128" fill="white"/>
<g clip-path="url(#clip0_200_672)">
<path fill-rule="evenodd" clip-rule="evenodd" d="M40 16H104V32L88 48V32H40V96H56L40 112H24V32L40 16Z" fill="#FF585D"/>
<path d="M40 80L24 96V32L40 16H88L72 32H40V80Z" fill="#CB333B"/>
<path fill-rule="evenodd" clip-rule="evenodd" d="M104 32L88.001 48.001H56.001V60.0003H72V76.0013H56.001V96L40 112.001H56.2015C57.4146 112.001 58.4891 111.22 58.8639 110.066L61.7598 101.153C62.0368 100.301 62.7058 99.6338 63.5582 99.3569L65.7844 98.6334C66.6368 98.3564 67.5707 98.5035 68.2958 99.0303L75.8757 104.539C76.857 105.252 78.1872 105.252 79.1685 104.539L85.9629 99.6008C86.9444 98.8878 87.3548 97.625 86.9799 96.4713L84.084 87.5582C83.8069 86.7057 83.9561 85.7719 84.4829 85.0467L85.8596 83.1533C86.3864 82.4282 87.2267 81.9979 88.123 81.9978L97.495 81.9998C98.7081 81.9999 99.7826 81.2168 100.157 80.063L102.754 72.0759C103.128 70.9223 102.718 69.6573 101.737 68.9444L94.1547 63.4357C93.4295 62.9089 93.0012 62.0686 93.0012 61.1723V58.8303C93.0013 57.934 93.4295 57.0916 94.1547 56.5648L102.847 50.25C103.572 49.7232 104 48.8808 104 47.9845V32Z" fill="#418FDE"/>
<path fill-rule="evenodd" clip-rule="evenodd" d="M40 32H88.0001V48H56L56 60.0002H72L72 76H56L56 96H40V32Z" fill="white"/>
</g>
<defs>
<clipPath id="clip0_200_672">
<rect width="80" height="96" fill="white" transform="translate(24 16)"/>
</clipPath>
</defs>
</svg>
