<svg width="512" height="512" viewBox="0 0 512 512" fill="none" xmlns="http://www.w3.org/2000/svg">
<g clip-path="url(#clip0_235_2392)">
<path fill-rule="evenodd" clip-rule="evenodd" d="M34 190H122V212L100 234V212H34V300H56L34 322H12V212L34 190Z" fill="#FF585D"/>
<path d="M34 278L12 300V212L34 190H100L78 212H34V278Z" fill="#CB333B"/>
<path fill-rule="evenodd" clip-rule="evenodd" d="M122 212L100.001 234.001H56.0014V250.5H78V272.502H56.0014V300L34 322.001H56.2771C57.945 322.001 59.4225 320.927 59.9379 319.341L63.9198 307.086C64.3006 305.914 65.2205 304.996 66.3925 304.616L69.4535 303.621C70.6256 303.24 71.9097 303.442 72.9068 304.167L83.3291 311.741C84.6784 312.721 86.5074 312.721 87.8567 311.741L97.199 304.951C98.5485 303.971 99.1128 302.234 98.5974 300.648L94.6155 288.392C94.2345 287.22 94.4396 285.936 95.164 284.939L97.0569 282.336C97.7813 281.339 98.9368 280.747 100.169 280.747L113.056 280.75C114.724 280.75 116.201 279.673 116.716 278.087L120.286 267.104C120.802 265.518 120.237 263.779 118.888 262.798L108.463 255.224C107.466 254.5 106.877 253.344 106.877 252.112V248.892C106.877 247.659 107.466 246.501 108.463 245.777L120.414 237.094C121.411 236.369 122 235.211 122 233.979V212Z" fill="#418FDE"/>
<path fill-rule="evenodd" clip-rule="evenodd" d="M34 212H100V234H56L56 250.5H78.0001L78.0001 272.5H56L56 300H34V212Z" fill="white"/>
</g>
<path d="M150.395 287V224.813H181.952V230.451H156.623V252.919H181.026V258.557H156.623V287H150.395ZM189.24 287V240.97H195.467V247.534C197.907 242.485 201.862 240.213 208.51 239.876V246.019C199.843 246.86 195.467 251.573 195.467 260.156V287H189.24ZM258.282 266.047H216.627C217.132 275.135 225.042 282.372 234.551 282.372C241.536 282.372 248.015 278.164 250.624 271.853H257.104C253.738 281.53 244.733 288.094 234.72 288.094C221.087 288.094 210.4 277.407 210.4 263.775C210.4 250.395 220.919 239.876 234.215 239.876C243.303 239.876 251.465 244.673 255.505 252.414C257.524 256.285 258.282 259.904 258.282 266.047ZM216.796 260.409H252.055C249.951 251.236 243.135 245.598 234.215 245.598C225.463 245.598 218.479 251.573 216.796 260.409ZM313.012 266.047H271.358C271.863 275.135 279.773 282.372 289.282 282.372C296.266 282.372 302.746 278.164 305.354 271.853H311.834C308.468 281.53 299.464 288.094 289.45 288.094C275.818 288.094 265.131 277.407 265.131 263.775C265.131 250.395 275.649 239.876 288.945 239.876C298.033 239.876 306.196 244.673 310.235 252.414C312.255 256.285 313.012 259.904 313.012 266.047ZM271.526 260.409H306.785C304.681 251.236 297.865 245.598 288.945 245.598C280.193 245.598 273.209 251.573 271.526 260.409ZM367.237 269.665H380.786C375.905 281.025 364.881 288.094 352.09 288.094C333.914 288.094 319.356 273.704 319.356 255.696C319.356 238.109 333.746 223.719 351.333 223.719C359.159 223.719 366.648 226.412 372.455 231.293C376.41 234.659 378.429 237.436 380.786 242.653H367.911C363.703 237.183 358.822 234.827 351.586 234.827C345.19 234.827 339.889 237.183 336.102 241.643C332.904 245.346 330.969 250.731 330.969 255.78C330.969 267.393 340.309 276.986 351.838 276.986C357.813 276.986 362.104 274.967 367.237 269.665ZM382.083 287L408.001 224.813H417.089L443.176 287H430.469L423.821 270.927H401.69L394.789 287H382.083ZM405.897 259.904H419.193L412.545 241.054L405.897 259.904ZM449.759 287V224.813H463.98C474.163 224.813 481.652 226.412 486.701 229.694C494.948 234.995 499.576 244.504 499.576 256.033C499.576 268.908 493.685 279.174 483.84 283.802C478.875 286.074 473.405 287 464.233 287H449.759ZM461.288 275.976H463.812C470.712 275.976 475.509 275.051 478.959 273.199C484.513 270.17 487.963 263.522 487.963 256.033C487.963 247.87 484.176 241.138 478.033 238.109C474.499 236.426 470.712 235.837 463.56 235.837H461.288V275.976Z" fill="#212529"/>
<defs>
<clipPath id="clip0_235_2392">
<rect width="110" height="132" fill="white" transform="translate(12 190)"/>
</clipPath>
</defs>
</svg>
