<svg width="256" height="256" viewBox="0 0 256 256" fill="none" xmlns="http://www.w3.org/2000/svg">
<rect width="256" height="256" fill="white"/>
<g clip-path="url(#clip0_200_654)">
<path fill-rule="evenodd" clip-rule="evenodd" d="M80 32H208V64L176 96V64H80V192H112L80 224H48V64L80 32Z" fill="#FF585D"/>
<path d="M80 160L48 192V64L80 32H176L144 64H80V160Z" fill="#CB333B"/>
<path fill-rule="evenodd" clip-rule="evenodd" d="M208 64L176.002 96.0021H112.002V120.001H144V152.003H112.002V192L80 224.002H112.403C114.829 224.002 116.978 222.44 117.728 220.133L123.52 202.306C124.074 200.602 125.412 199.268 127.116 198.714L131.569 197.267C133.274 196.713 135.141 197.007 136.592 198.061L151.751 209.078C153.714 210.504 156.374 210.504 158.337 209.078L171.926 199.202C173.889 197.776 174.71 195.25 173.96 192.943L168.168 175.116C167.614 173.411 167.912 171.544 168.966 170.093L171.719 166.307C172.773 164.856 174.453 163.996 176.246 163.996L194.99 164C197.416 164 199.565 162.434 200.315 160.126L205.507 144.152C206.257 141.845 205.436 139.315 203.473 137.889L188.309 126.871C186.859 125.818 186.002 124.137 186.002 122.345V117.661C186.003 115.868 186.859 114.183 188.309 113.13L205.693 100.5C207.143 99.4463 208 97.7616 208 95.969V64Z" fill="#418FDE"/>
<path fill-rule="evenodd" clip-rule="evenodd" d="M80 64H176V96H112L112 120H144L144 152H112L112 192H80V64Z" fill="white"/>
</g>
<defs>
<clipPath id="clip0_200_654">
<rect width="160" height="192" fill="white" transform="translate(48 32)"/>
</clipPath>
</defs>
</svg>
