<svg width="512" height="512" viewBox="0 0 512 512" fill="none" xmlns="http://www.w3.org/2000/svg">
<rect width="512" height="512" fill="#212529"/>
<g clip-path="url(#clip0_235_2181)">
<path fill-rule="evenodd" clip-rule="evenodd" d="M160 64H416V128L352 192V128H160V384H224L160 448H96V128L160 64Z" fill="#FF585D"/>
<path d="M160 320L96 384V128L160 64H352L288 128H160V320Z" fill="#CB333B"/>
<path fill-rule="evenodd" clip-rule="evenodd" d="M416 128L352.004 192.004H224.004V240.001H288V304.005H224.004V384L160 448.004H224.806C229.658 448.004 233.956 444.88 235.456 440.265L247.039 404.613C248.147 401.203 250.823 398.535 254.233 397.428L263.138 394.534C266.547 393.426 270.283 394.014 273.183 396.121L303.503 418.156C307.428 421.008 312.749 421.008 316.674 418.156L343.852 398.403C347.777 395.551 349.419 390.5 347.92 385.885L336.336 350.233C335.228 346.823 335.824 343.087 337.932 340.187L343.438 332.613C345.546 329.713 348.907 327.991 352.492 327.991L389.98 327.999C394.832 328 399.13 324.867 400.629 320.252L411.014 288.304C412.514 283.689 410.872 278.629 406.946 275.777L376.619 253.743C373.718 251.635 372.005 248.274 372.005 244.689V235.321C372.005 231.736 373.718 228.366 376.619 226.259L411.386 201C414.287 198.893 416 195.523 416 191.938V128Z" fill="#418FDE"/>
<path fill-rule="evenodd" clip-rule="evenodd" d="M160 128H352V192H224L224 240.001H288L288 304H224L224 384H160V128Z" fill="white"/>
</g>
<defs>
<clipPath id="clip0_235_2181">
<rect width="320" height="384" fill="white" transform="translate(96 64)"/>
</clipPath>
</defs>
</svg>
