<svg width="512" height="512" viewBox="0 0 512 512" fill="none" xmlns="http://www.w3.org/2000/svg">
<g clip-path="url(#clip0_194_9930)">
<path fill-rule="evenodd" clip-rule="evenodd" d="M172 88H396V144L340 200V144H172V368H228L172 424H116V144L172 88Z" fill="#FF585D"/>
<path d="M172 312L116 368V144L172 88H340L284 144H172V312Z" fill="#CB333B"/>
<path fill-rule="evenodd" clip-rule="evenodd" d="M396 144L340.004 200.004H228.004V242.001H284V298.005H228.004V368L172 424.004H228.705C232.951 424.004 236.712 421.27 238.024 417.232L248.159 386.036C249.129 383.053 251.47 380.718 254.454 379.749L262.245 377.217C265.229 376.247 268.497 376.762 271.035 378.606L297.565 397.886C301 400.382 305.655 400.382 309.09 397.886L332.87 380.603C336.305 378.107 337.742 373.688 336.43 369.65L326.294 338.454C325.324 335.47 325.846 332.202 327.69 329.663L332.509 323.036C334.352 320.499 337.294 318.993 340.431 318.992L373.233 318.999C377.478 319 381.239 316.259 382.551 312.221L391.638 284.266C392.949 280.228 391.513 275.801 388.078 273.305L361.541 254.025C359.003 252.181 357.504 249.24 357.504 246.103V237.906C357.505 234.769 359.003 231.821 361.541 229.977L391.963 207.875C394.501 206.031 396 203.083 396 199.946V144Z" fill="#418FDE"/>
<path fill-rule="evenodd" clip-rule="evenodd" d="M172 144H340V200H228L228 242.001H284L284 298H228L228 368H172V144Z" fill="white"/>
</g>
<defs>
<clipPath id="clip0_194_9930">
<rect width="280" height="336" fill="white" transform="translate(116 88)"/>
</clipPath>
</defs>
</svg>
