<svg width="64" height="64" viewBox="0 0 64 64" fill="none" xmlns="http://www.w3.org/2000/svg">
<rect width="64" height="64" fill="white"/>
<g clip-path="url(#clip0_205_1854)">
<path fill-rule="evenodd" clip-rule="evenodd" d="M21 11H49V18L42 25V18H21V46H28L21 53H14V18L21 11Z" fill="#FF585D"/>
<path d="M21 39L14 46V18L21 11H42L35 18H21V39Z" fill="#CB333B"/>
<path fill-rule="evenodd" clip-rule="evenodd" d="M49 18L42.0005 25.0005H28.0005V30.2501H35V37.2506H28.0005V46L21 53.0005H28.0882C28.6189 53.0004 29.089 52.6587 29.253 52.154L30.5199 48.2545C30.6411 47.8816 30.9338 47.5898 31.3067 47.4686L32.2807 47.1521C32.6536 47.0309 33.0622 47.0953 33.3794 47.3258L36.6956 49.7358C37.125 50.0477 37.7069 50.0477 38.1362 49.7358L41.1088 47.5753C41.5382 47.2634 41.7177 46.7109 41.5537 46.2062L40.2867 42.3067C40.1655 41.9338 40.2308 41.5252 40.4613 41.2079L41.0636 40.3796C41.294 40.0623 41.6617 39.8741 42.0538 39.874L46.1541 39.8749C46.6848 39.875 47.1549 39.5323 47.3189 39.0276L48.4547 35.5332C48.6187 35.0285 48.4391 34.4751 48.0098 34.1632L44.6927 31.7531C44.3754 31.5226 44.188 31.155 44.188 30.7629V29.7383C44.1881 29.3461 44.3754 28.9776 44.6927 28.7471L48.4954 25.9844C48.8126 25.7539 49 25.3853 49 24.9932V18Z" fill="#418FDE"/>
<path fill-rule="evenodd" clip-rule="evenodd" d="M21 18H42V25H28L28 30.2501H35L35 37.25H28L28 46H21V18Z" fill="white"/>
</g>
<defs>
<clipPath id="clip0_205_1854">
<rect width="35" height="42" fill="white" transform="translate(14 11)"/>
</clipPath>
</defs>
</svg>
