<svg width="256" height="256" viewBox="0 0 256 256" fill="none" xmlns="http://www.w3.org/2000/svg">
<rect width="256" height="256" fill="white"/>
<g clip-path="url(#clip0_190_2328)">
<path fill-rule="evenodd" clip-rule="evenodd" d="M86 44H198V72L170 100V72H86V184H114L86 212H58V72L86 44Z" fill="#FF585D"/>
<path d="M86 156L58 184V72L86 44H170L142 72H86V156Z" fill="#CB333B"/>
<path fill-rule="evenodd" clip-rule="evenodd" d="M198 72L170.002 100.002H114.002V121H142V149.002H114.002V184L86 212.002H114.353C116.476 212.002 118.356 210.635 119.012 208.616L124.08 193.018C124.564 191.526 125.735 190.359 127.227 189.875L131.123 188.608C132.614 188.124 134.249 188.381 135.518 189.303L148.783 198.943C150.5 200.191 152.828 200.191 154.545 198.943L166.435 190.301C168.153 189.054 168.871 186.844 168.215 184.825L163.147 169.227C162.662 167.735 162.923 166.101 163.845 164.832L166.254 161.518C167.176 160.249 168.647 159.496 170.215 159.496L186.616 159.5C188.739 159.5 190.619 158.129 191.275 156.11L195.819 142.133C196.475 140.114 195.756 137.9 194.039 136.653L180.771 127.012C179.502 126.091 178.752 124.62 178.752 123.051V118.953C178.752 117.385 179.502 115.91 180.771 114.988L195.982 103.937C197.25 103.016 198 101.541 198 99.9729V72Z" fill="#418FDE"/>
<path fill-rule="evenodd" clip-rule="evenodd" d="M86 72H170V100H114L114 121H142L142 149H114L114 184H86V72Z" fill="white"/>
</g>
<defs>
<clipPath id="clip0_190_2328">
<rect width="140" height="168" fill="white" transform="translate(58 44)"/>
</clipPath>
</defs>
</svg>
