<svg width="256" height="256" viewBox="0 0 256 256" fill="none" xmlns="http://www.w3.org/2000/svg">
<g clip-path="url(#clip0_235_1810)">
<path fill-rule="evenodd" clip-rule="evenodd" d="M36 101H72V110L63 119V110H36V146H45L36 155H27V110L36 101Z" fill="#FF585D"/>
<path d="M36 137L27 146V110L36 101H63L54 110H36V137Z" fill="#CB333B"/>
<path fill-rule="evenodd" clip-rule="evenodd" d="M72 110L63.0006 119.001H45.0006V125.75H54V134.751H45.0006V146L36 155.001H45.1134C45.7957 155.001 46.4001 154.561 46.6109 153.912L48.2399 148.899C48.3957 148.419 48.772 148.044 49.2515 147.888L50.5037 147.481C50.9832 147.325 51.5085 147.408 51.9164 147.705L56.1801 150.803C56.7321 151.204 57.4803 151.204 58.0323 150.803L61.8541 148.025C62.4062 147.624 62.6371 146.914 62.4262 146.265L60.7972 141.251C60.6414 140.772 60.7253 140.247 61.0216 139.839L61.796 138.774C62.0923 138.366 62.565 138.124 63.0692 138.124L68.3409 138.125C69.0233 138.125 69.6277 137.684 69.8385 137.035L71.2989 132.543C71.5097 131.894 71.2789 131.182 70.7268 130.781L66.462 127.683C66.0541 127.386 65.8132 126.914 65.8132 126.409V125.092C65.8132 124.588 66.0541 124.114 66.462 123.818L71.3512 120.266C71.7591 119.969 72 119.495 72 118.991V110Z" fill="#418FDE"/>
<path fill-rule="evenodd" clip-rule="evenodd" d="M36 110H63V119H45L45 125.75H54L54 134.75H45L45 146H36V110Z" fill="white"/>
</g>
<path d="M83.6163 140.5V115.06H96.5257V117.366H86.1638V126.558H96.147V128.864H86.1638V140.5H83.6163ZM99.5072 140.5V121.67H102.055V124.355C103.053 122.289 104.671 121.36 107.391 121.222V123.735C103.845 124.079 102.055 126.007 102.055 129.518V140.5H99.5072ZM127.752 131.928H110.711C110.918 135.646 114.154 138.607 118.044 138.607C120.901 138.607 123.552 136.885 124.619 134.303H127.27C125.893 138.262 122.209 140.948 118.113 140.948C112.536 140.948 108.164 136.576 108.164 130.999C108.164 125.525 112.467 121.222 117.906 121.222C121.624 121.222 124.963 123.184 126.616 126.351C127.442 127.935 127.752 129.415 127.752 131.928ZM110.78 129.622H125.204C124.343 125.869 121.555 123.563 117.906 123.563C114.326 123.563 111.469 126.007 110.78 129.622ZM150.141 131.928H133.101C133.307 135.646 136.543 138.607 140.433 138.607C143.291 138.607 145.941 136.885 147.009 134.303H149.659C148.282 138.262 144.599 140.948 140.502 140.948C134.925 140.948 130.553 136.576 130.553 130.999C130.553 125.525 134.857 121.222 140.296 121.222C144.014 121.222 147.353 123.184 149.005 126.351C149.831 127.935 150.141 129.415 150.141 131.928ZM133.17 129.622H147.594C146.733 125.869 143.945 123.563 140.296 123.563C136.716 123.563 133.858 126.007 133.17 129.622ZM172.324 133.408H177.867C175.87 138.056 171.361 140.948 166.128 140.948C158.692 140.948 152.737 135.061 152.737 127.694C152.737 120.499 158.623 114.612 165.818 114.612C169.02 114.612 172.083 115.714 174.459 117.711C176.077 119.088 176.903 120.224 177.867 122.358H172.6C170.879 120.12 168.882 119.157 165.921 119.157C163.305 119.157 161.136 120.12 159.587 121.945C158.279 123.46 157.487 125.663 157.487 127.728C157.487 132.479 161.308 136.403 166.025 136.403C168.469 136.403 170.224 135.577 172.324 133.408ZM178.397 140.5L189 115.06H192.718L203.39 140.5H198.192L195.472 133.925H186.418L183.596 140.5H178.397ZM188.14 129.415H193.579L190.859 121.704L188.14 129.415ZM206.083 140.5V115.06H211.901C216.066 115.06 219.13 115.714 221.196 117.057C224.569 119.225 226.463 123.115 226.463 127.832C226.463 133.099 224.053 137.298 220.025 139.192C217.994 140.121 215.757 140.5 212.004 140.5H206.083ZM210.799 135.99H211.832C214.655 135.99 216.617 135.612 218.029 134.854C220.301 133.615 221.712 130.895 221.712 127.832C221.712 124.492 220.163 121.738 217.65 120.499C216.204 119.811 214.655 119.57 211.729 119.57H210.799V135.99Z" fill="#2D2926"/>
<defs>
<clipPath id="clip0_235_1810">
<rect width="45" height="54" fill="white" transform="translate(27 101)"/>
</clipPath>
</defs>
</svg>
