<svg width="128" height="128" viewBox="0 0 128 128" fill="none" xmlns="http://www.w3.org/2000/svg">
<rect width="128" height="128" fill="white"/>
<g clip-path="url(#clip0_235_1789)">
<path fill-rule="evenodd" clip-rule="evenodd" d="M18.5 50H36.5V54.5L32 59V54.5H18.5V72.5H23L18.5 77H14V54.5L18.5 50Z" fill="#FF585D"/>
<path d="M18.5 68L14 72.5V54.5L18.5 50H32L27.5 54.5H18.5V68Z" fill="#CB333B"/>
<path fill-rule="evenodd" clip-rule="evenodd" d="M36.5 54.5L32.0003 59.0003H23.0003V62.3751H27.5V66.8754H23.0003V72.5L18.5 77.0003H23.0567C23.3978 77.0003 23.7001 76.7806 23.8055 76.4561L24.62 73.9493C24.6979 73.7096 24.886 73.522 25.1257 73.4441L25.7519 73.2406C25.9916 73.1627 26.2543 73.2041 26.4582 73.3523L28.59 74.9016C28.866 75.1021 29.2402 75.1021 29.5161 74.9016L31.4271 73.5127C31.7031 73.3122 31.8185 72.957 31.7131 72.6326L30.8986 70.1257C30.8207 69.886 30.8627 69.6233 31.0108 69.4194L31.398 68.8869C31.5462 68.6829 31.7825 68.5619 32.0346 68.5619L34.6705 68.5625C35.0117 68.5625 35.3138 68.3422 35.4193 68.0177L36.1494 65.7714C36.2549 65.4469 36.1394 65.0911 35.8634 64.8906L33.731 63.3413C33.5271 63.1931 33.4066 62.9568 33.4066 62.7047V62.046C33.4066 61.7939 33.527 61.557 33.731 61.4089L36.1756 59.6328C36.3795 59.4846 36.5 59.2477 36.5 58.9956V54.5Z" fill="#418FDE"/>
<path fill-rule="evenodd" clip-rule="evenodd" d="M18.5 54.5H32V59H23L23 62.3751H27.5L27.5 66.875H23L23 72.5H18.5V54.5Z" fill="white"/>
</g>
<path d="M42.3082 70V57.28H48.7628V58.4332H43.5819V63.0289H48.5735V64.1822H43.5819V70H42.3082ZM50.2536 70V60.5848H51.5273V61.9273C52.0265 60.8946 52.8355 60.4298 54.1953 60.361V61.6175C52.4224 61.7896 51.5273 62.7535 51.5273 64.5092V70H50.2536ZM64.3758 65.7141H55.8556C55.9589 67.573 57.5768 69.0533 59.5219 69.0533C60.9505 69.0533 62.2759 68.1927 62.8094 66.9017H64.1348C63.4463 68.8812 61.6046 70.2238 59.5563 70.2238C56.7679 70.2238 54.5819 68.0378 54.5819 65.2493C54.5819 62.5126 56.7334 60.361 59.453 60.361C61.312 60.361 62.9816 61.3421 63.8078 62.9257C64.2209 63.7174 64.3758 64.4576 64.3758 65.7141ZM55.89 64.5608H63.1021C62.6717 62.6847 61.2775 61.5314 59.453 61.5314C57.6629 61.5314 56.2343 62.7535 55.89 64.5608ZM75.5706 65.7141H67.0504C67.1537 67.573 68.7717 69.0533 70.7167 69.0533C72.1453 69.0533 73.4707 68.1927 74.0043 66.9017H75.3297C74.6412 68.8812 72.7994 70.2238 70.7511 70.2238C67.9627 70.2238 65.7767 68.0378 65.7767 65.2493C65.7767 62.5126 67.9283 60.361 70.6479 60.361C72.5068 60.361 74.1764 61.3421 75.0026 62.9257C75.4157 63.7174 75.5706 64.4576 75.5706 65.7141ZM67.0849 64.5608H74.2969C73.8666 62.6847 72.4724 61.5314 70.6479 61.5314C68.8578 61.5314 67.4291 62.7535 67.0849 64.5608ZM86.6622 66.4542H89.4334C88.4351 68.7779 86.1803 70.2238 83.564 70.2238C79.8461 70.2238 76.8683 67.2804 76.8683 63.5969C76.8683 59.9995 79.8116 57.0562 83.409 57.0562C85.0098 57.0562 86.5417 57.607 87.7294 58.6053C88.5384 59.2938 88.9515 59.8618 89.4334 60.929H86.7999C85.9393 59.8102 84.941 59.3283 83.4607 59.3283C82.1525 59.3283 81.0681 59.8102 80.2936 60.7225C79.6395 61.4798 79.2436 62.5814 79.2436 63.6142C79.2436 65.9895 81.1542 67.9517 83.5123 67.9517C84.7344 67.9517 85.6122 67.5386 86.6622 66.4542ZM89.6987 70L95.0002 57.28H96.8591L102.195 70H99.5959L98.2361 66.7124H93.7092L92.2978 70H89.6987ZM94.5699 64.4576H97.2894L95.9297 60.602L94.5699 64.4576ZM103.542 70V57.28H106.451C108.533 57.28 110.065 57.607 111.098 58.2783C112.785 59.3627 113.731 61.3077 113.731 63.6658C113.731 66.2993 112.527 68.3992 110.513 69.3459C109.497 69.8107 108.378 70 106.502 70H103.542ZM105.9 67.7452H106.416C107.828 67.7452 108.809 67.5558 109.514 67.1771C110.65 66.5575 111.356 65.1977 111.356 63.6658C111.356 61.9962 110.582 60.6192 109.325 59.9995C108.602 59.6553 107.828 59.5348 106.364 59.5348H105.9V67.7452Z" fill="#2D2926"/>
<defs>
<clipPath id="clip0_235_1789">
<rect width="22.5" height="27" fill="white" transform="translate(14 50)"/>
</clipPath>
</defs>
</svg>
