<svg width="512" height="512" viewBox="0 0 512 512" fill="none" xmlns="http://www.w3.org/2000/svg">
<rect width="512" height="512" fill="#212529"/>
<g clip-path="url(#clip0_235_2141)">
<path fill-rule="evenodd" clip-rule="evenodd" d="M71 202H143V220L125 238V220H71V292H89L71 310H53V220L71 202Z" fill="#FF585D"/>
<path d="M71 274L53 292V220L71 202H125L107 220H71V274Z" fill="#CB333B"/>
<path fill-rule="evenodd" clip-rule="evenodd" d="M143 220L125.001 238.001H89.0012V251.5H107V269.501H89.0012V292L71 310.001H89.2267C90.5914 310.001 91.8002 309.122 92.2219 307.825L95.4798 297.797C95.7914 296.838 96.544 296.088 97.5029 295.776L100.007 294.963C100.966 294.651 102.017 294.816 102.833 295.409L111.36 301.606C112.464 302.408 113.961 302.408 115.065 301.606L122.708 296.051C123.812 295.249 124.274 293.828 123.852 292.53L120.594 282.503C120.283 281.544 120.451 280.493 121.043 279.678L122.592 277.547C123.185 276.732 124.13 276.248 125.138 276.248L135.682 276.25C137.047 276.25 138.255 275.369 138.677 274.071L141.598 265.085C142.019 263.788 141.558 262.365 140.454 261.562L131.924 255.365C131.108 254.772 130.626 253.827 130.626 252.819V250.184C130.626 249.176 131.108 248.228 131.924 247.635L141.702 240.531C142.518 239.939 143 238.991 143 237.983V220Z" fill="#418FDE"/>
<path fill-rule="evenodd" clip-rule="evenodd" d="M71 220H125V238H89L89 251.5H107L107 269.5H89L89 292H71V220Z" fill="white"/>
</g>
<path d="M166.233 281.5V230.62H192.051V235.233H171.328V253.616H191.294V258.229H171.328V281.5H166.233ZM198.014 281.5V243.839H203.109V249.209C205.106 245.078 208.342 243.219 213.781 242.944V247.97C206.69 248.659 203.109 252.514 203.109 259.537V281.5H198.014ZM254.503 264.356H220.422C220.835 271.792 227.307 277.713 235.087 277.713C240.802 277.713 246.103 274.271 248.238 269.107H253.539C250.785 277.025 243.418 282.395 235.225 282.395C224.071 282.395 215.327 273.651 215.327 262.497C215.327 251.55 223.934 242.944 234.812 242.944C242.248 242.944 248.926 246.868 252.231 253.203C253.883 256.37 254.503 259.33 254.503 264.356ZM220.56 259.743H249.408C247.687 252.239 242.11 247.626 234.812 247.626C227.652 247.626 221.937 252.514 220.56 259.743ZM299.283 264.356H265.202C265.615 271.792 272.087 277.713 279.867 277.713C285.581 277.713 290.883 274.271 293.017 269.107H298.319C295.565 277.025 288.198 282.395 280.005 282.395C268.851 282.395 260.107 273.651 260.107 262.497C260.107 251.55 268.713 242.944 279.591 242.944C287.027 242.944 293.706 246.868 297.01 253.203C298.663 256.37 299.283 259.33 299.283 264.356ZM265.339 259.743H294.188C292.466 252.239 286.89 247.626 279.591 247.626C272.431 247.626 266.716 252.514 265.339 259.743ZM343.649 267.317H354.734C350.74 276.612 341.721 282.395 331.256 282.395C316.384 282.395 304.473 270.622 304.473 255.888C304.473 241.498 316.247 229.725 330.636 229.725C337.039 229.725 343.167 231.928 347.918 235.921C351.153 238.675 352.806 240.947 354.734 245.216H344.2C340.757 240.741 336.764 238.813 330.843 238.813C325.61 238.813 321.273 240.741 318.174 244.39C315.558 247.419 313.974 251.826 313.974 255.957C313.974 265.458 321.617 273.307 331.049 273.307C335.938 273.307 339.449 271.654 343.649 267.317ZM355.795 281.5L377.001 230.62H384.437L405.78 281.5H395.384L389.945 268.35H371.837L366.191 281.5H355.795ZM375.279 259.33H386.158L380.719 243.908L375.279 259.33ZM411.166 281.5V230.62H422.802C431.133 230.62 437.261 231.928 441.392 234.613C448.139 238.951 451.926 246.731 451.926 256.163C451.926 266.697 447.106 275.097 439.051 278.884C434.989 280.743 430.513 281.5 423.009 281.5H411.166ZM420.599 272.481H422.664C428.31 272.481 432.235 271.723 435.057 270.209C439.602 267.73 442.424 262.291 442.424 256.163C442.424 249.485 439.326 243.977 434.3 241.498C431.408 240.121 428.31 239.639 422.458 239.639H420.599V272.481Z" fill="white"/>
<defs>
<clipPath id="clip0_235_2141">
<rect width="90" height="108" fill="white" transform="translate(53 202)"/>
</clipPath>
</defs>
</svg>
