<svg width="1024" height="1024" viewBox="0 0 1024 1024" fill="none" xmlns="http://www.w3.org/2000/svg">
<rect width="1024" height="1024" fill="#2D2926"/>
<g clip-path="url(#clip0_235_2122)">
<path fill-rule="evenodd" clip-rule="evenodd" d="M142 404H286V440L250 476V440H142V584H178L142 620H106V440L142 404Z" fill="#FF585D"/>
<path d="M142 548L106 584V440L142 404H250L214 440H142V548Z" fill="#CB333B"/>
<path fill-rule="evenodd" clip-rule="evenodd" d="M286 440L250.002 476.002H178.002V503.001H214V539.003H178.002V584L142 620.002H178.453C181.183 620.002 183.6 618.245 184.444 615.649L190.96 595.595C191.583 593.677 193.088 592.176 195.006 591.553L200.015 589.925C201.933 589.302 204.034 589.633 205.666 590.818L222.72 603.213C224.928 604.817 227.921 604.817 230.129 603.213L245.417 592.102C247.625 590.498 248.548 587.656 247.705 585.06L241.189 565.006C240.566 563.088 240.901 560.987 242.087 559.355L245.184 555.095C246.369 553.463 248.26 552.495 250.277 552.495L271.364 552.5C274.093 552.5 276.511 550.738 277.354 548.142L283.196 530.171C284.039 527.575 283.115 524.729 280.907 523.125L263.848 510.73C262.216 509.545 261.253 507.654 261.253 505.638V500.368C261.253 498.352 262.216 496.456 263.848 495.271L283.405 481.062C285.036 479.877 286 477.982 286 475.965V440Z" fill="#418FDE"/>
<path fill-rule="evenodd" clip-rule="evenodd" d="M142 440H250V476H178L178 503H214L214 539H178L178 584H142V440Z" fill="white"/>
</g>
<path d="M332.465 563V461.24H384.103V470.466H342.655V507.231H382.588V516.457H342.655V563H332.465ZM396.029 563V487.678H406.219V498.419C410.212 490.157 416.684 486.439 427.562 485.888V495.94C413.379 497.317 406.219 505.028 406.219 519.074V563H396.029ZM509.006 528.713H440.845C441.671 543.584 454.615 555.426 470.175 555.426C481.604 555.426 492.207 548.541 496.476 538.214H507.078C501.57 554.049 486.837 564.79 470.45 564.79C448.143 564.79 430.655 547.302 430.655 524.995C430.655 503.1 447.867 485.888 469.624 485.888C484.496 485.888 497.853 493.737 504.462 506.405C507.767 512.739 509.006 518.661 509.006 528.713ZM441.12 519.487H498.816C495.374 504.477 484.22 495.252 469.624 495.252C455.303 495.252 443.874 505.028 441.12 519.487ZM598.565 528.713H530.404C531.23 543.584 544.174 555.426 559.734 555.426C571.163 555.426 581.766 548.541 586.034 538.214H596.637C591.129 554.049 576.395 564.79 560.009 564.79C537.702 564.79 520.214 547.302 520.214 524.995C520.214 503.1 537.426 485.888 559.183 485.888C574.054 485.888 587.411 493.737 594.021 506.405C597.326 512.739 598.565 518.661 598.565 528.713ZM530.679 519.487H588.375C584.933 504.477 573.779 495.252 559.183 495.252C544.862 495.252 533.433 505.028 530.679 519.487ZM687.298 534.634H709.467C701.481 553.223 683.442 564.79 662.512 564.79C632.768 564.79 608.946 541.243 608.946 511.776C608.946 482.996 632.493 459.45 661.272 459.45C674.078 459.45 686.334 463.856 695.835 471.843C702.307 477.351 705.612 481.895 709.467 490.432H688.399C681.514 481.482 673.528 477.626 661.685 477.626C651.22 477.626 642.545 481.482 636.349 488.78C631.116 494.838 627.949 503.651 627.949 511.913C627.949 530.916 643.234 546.614 662.099 546.614C671.875 546.614 678.898 543.309 687.298 534.634ZM711.59 563L754.001 461.24H768.873L811.56 563H790.767L779.889 536.699H743.674L732.383 563H711.59ZM750.559 518.661H772.316L761.437 487.816L750.559 518.661ZM822.333 563V461.24H845.604C862.266 461.24 874.521 463.856 882.783 469.226C896.278 477.901 903.851 493.462 903.851 512.326C903.851 533.395 894.212 550.194 878.101 557.767C869.977 561.485 861.027 563 846.017 563H822.333ZM841.198 544.961H845.329C856.62 544.961 864.469 543.447 870.115 540.417C879.203 535.46 884.849 524.582 884.849 512.326C884.849 498.969 878.652 487.953 868.6 482.996C862.817 480.242 856.62 479.278 844.916 479.278H841.198V544.961Z" fill="white"/>
<defs>
<clipPath id="clip0_235_2122">
<rect width="180" height="216" fill="white" transform="translate(106 404)"/>
</clipPath>
</defs>
</svg>
