<svg width="128" height="128" viewBox="0 0 128 128" fill="none" xmlns="http://www.w3.org/2000/svg">
<rect width="128" height="128" fill="#2D2926"/>
<g clip-path="url(#clip0_235_1884)">
<path fill-rule="evenodd" clip-rule="evenodd" d="M43 22H99V36L85 50V36H43V92H57L43 106H29V36L43 22Z" fill="#FF585D"/>
<path d="M43 78L29 92V36L43 22H85L71 36H43V78Z" fill="#CB333B"/>
<path fill-rule="evenodd" clip-rule="evenodd" d="M99 36L85.0009 50.0009H57.0009V60.5002H71V74.5011H57.0009V92L43 106.001H57.1763C58.2378 106.001 59.1779 105.317 59.5059 104.308L62.0399 96.509C62.2822 95.7632 62.8676 95.1796 63.6134 94.9373L65.5613 94.3042C66.3072 94.0618 67.1244 94.1906 67.7589 94.6515L74.3913 99.4716C75.2499 100.095 76.4138 100.095 77.2725 99.4716L83.2176 95.1507C84.0763 94.5269 84.4354 93.4219 84.1074 92.4124L81.5735 84.6134C81.3311 83.8675 81.4616 83.0504 81.9226 82.4159L83.1271 80.7591C83.5881 80.1247 84.3234 79.7481 85.1076 79.7481L93.3081 79.7499C94.3696 79.7499 95.3097 79.0647 95.6377 78.0551L97.9094 71.0664C98.2373 70.057 97.8782 68.9502 97.0195 68.3263L90.3853 63.5062C89.7508 63.0453 89.3761 62.31 89.3761 61.5257V59.4765C89.3762 58.6923 89.7508 57.9551 90.3853 57.4942L97.9908 51.9687C98.6252 51.5078 99 50.7707 99 49.9864V36Z" fill="#418FDE"/>
<path fill-rule="evenodd" clip-rule="evenodd" d="M43 36H85V50H57L57 60.5002H71L71 74.5H57L57 92H43V36Z" fill="white"/>
</g>
<defs>
<clipPath id="clip0_235_1884">
<rect width="70" height="84" fill="white" transform="translate(29 22)"/>
</clipPath>
</defs>
</svg>
