<svg width="1024" height="1024" viewBox="0 0 1024 1024" fill="none" xmlns="http://www.w3.org/2000/svg">
<g clip-path="url(#clip0_194_9931)">
<path fill-rule="evenodd" clip-rule="evenodd" d="M344 176H792V288L680 400V288H344V736H456L344 848H232V288L344 176Z" fill="#FF585D"/>
<path d="M344 624L232 736V288L344 176H680L568 288H344V624Z" fill="#CB333B"/>
<path fill-rule="evenodd" clip-rule="evenodd" d="M792 288L680.007 400.007H456.007V484.002H568V596.009H456.007V736L344 848.007H457.411C465.902 848.007 473.423 842.54 476.047 834.464L496.319 772.072C498.258 766.106 502.941 761.437 508.907 759.498L524.491 754.434C530.458 752.495 536.995 753.524 542.071 757.212L595.13 795.773C601.999 800.763 611.31 800.763 618.18 795.773L665.74 761.206C672.611 756.215 675.483 747.375 672.859 739.299L652.588 676.907C650.649 670.94 651.693 664.403 655.381 659.327L665.017 646.073C668.705 640.997 674.587 637.985 680.861 637.985L746.465 637.999C754.957 637.999 762.478 632.517 765.102 624.441L783.275 568.532C785.899 560.456 783.026 551.601 776.156 546.61L723.083 508.05C718.007 504.362 715.009 498.48 715.009 492.206V475.812C715.009 469.538 718.006 463.641 723.083 459.954L783.926 415.75C789.002 412.062 792 406.165 792 399.891V288Z" fill="#418FDE"/>
<path fill-rule="evenodd" clip-rule="evenodd" d="M344 288H680V400H456L456 484.001H568L568 596H456L456 736H344V288Z" fill="white"/>
</g>
<defs>
<clipPath id="clip0_194_9931">
<rect width="560" height="672" fill="white" transform="translate(232 176)"/>
</clipPath>
</defs>
</svg>
