<svg width="64" height="64" viewBox="0 0 64 64" fill="none" xmlns="http://www.w3.org/2000/svg">
<g clip-path="url(#clip0_205_1975)">
<path fill-rule="evenodd" clip-rule="evenodd" d="M15.6667 0H58.3333V10.6667L47.6667 21.3333V10.6667H15.6667V53.3333H26.3333L15.6667 64H5V10.6667L15.6667 0Z" fill="#FF585D"/>
<path d="M15.6667 42.6667L5 53.3333V10.6667L15.6667 0H47.6667L37 10.6667H15.6667V42.6667Z" fill="#CB333B"/>
<path fill-rule="evenodd" clip-rule="evenodd" d="M58.3332 10.6666L47.6672 21.334H26.3339V29.3335H36.9998V40.0008H26.3339V53.3333L15.6665 64.0006H26.4675C27.2762 64.0006 27.9926 63.4799 28.2424 62.7108L30.1731 56.7687C30.3577 56.2005 30.8037 55.7558 31.3719 55.5712L32.8561 55.0889C33.4244 54.9042 34.047 55.0023 34.5304 55.3535L39.5836 59.026C40.2379 59.5012 41.1246 59.5012 41.7789 59.026L46.3085 55.7338C46.9628 55.2585 47.2364 54.4166 46.9864 53.6475L45.0558 47.7054C44.8711 47.1371 44.9706 46.5145 45.3218 46.0311L46.2396 44.7688C46.5908 44.2854 47.151 43.9985 47.7485 43.9985L53.9965 43.9999C54.8053 43.9999 55.5215 43.4778 55.7714 42.7086L57.5022 37.3839C57.7521 36.6148 57.4785 35.7715 56.8242 35.2962L51.7696 31.6238C51.2862 31.2725 51.0007 30.7124 51.0007 30.1148V28.5535C51.0007 27.956 51.2862 27.3944 51.7696 27.0432L57.5642 22.8333C58.0476 22.4821 58.3332 21.9205 58.3332 21.323V10.6666Z" fill="#418FDE"/>
<path fill-rule="evenodd" clip-rule="evenodd" d="M15.6665 10.6666H47.6665V21.3333H26.3332L26.3332 29.3334H36.9999L36.9999 40H26.3332L26.3332 53.3333H15.6665V10.6666Z" fill="white"/>
</g>
<defs>
<clipPath id="clip0_205_1975">
<rect width="53.3333" height="64" fill="white" transform="translate(5)"/>
</clipPath>
</defs>
</svg>
