<svg width="128" height="128" viewBox="0 0 128 128" fill="none" xmlns="http://www.w3.org/2000/svg">
<g clip-path="url(#clip0_205_1966)">
<path fill-rule="evenodd" clip-rule="evenodd" d="M33 1H117V22L96 43V22H33V106H54L33 127H12V22L33 1Z" fill="#FF585D"/>
<path d="M33 85L12 106V22L33 1H96L75 22H33V85Z" fill="#CB333B"/>
<path fill-rule="evenodd" clip-rule="evenodd" d="M117 22L96.0014 43.0014H54.0014V58.7503H75V79.7517H54.0014V106L33 127.001H54.2645C55.8566 127.001 57.2669 125.976 57.7589 124.462L61.5598 112.764C61.9233 111.645 62.8014 110.769 63.9201 110.406L66.842 109.456C67.9608 109.093 69.1865 109.286 70.1383 109.977L80.0869 117.207C81.3749 118.143 83.1207 118.143 84.4087 117.207L93.3263 110.726C94.6145 109.79 95.1531 108.133 94.6611 106.619L90.8602 94.9201C90.4966 93.8013 90.6924 92.5756 91.3838 91.6238L93.1907 89.1387C93.8821 88.187 94.9851 87.6222 96.1614 87.6221L108.462 87.6248C110.054 87.6249 111.465 86.597 111.957 85.0827L115.364 74.5997C115.856 73.0855 115.317 71.4253 114.029 70.4895L104.078 63.2594C103.126 62.5679 102.564 61.465 102.564 60.2886V57.2148C102.564 56.0384 103.126 54.9327 104.078 54.2413L115.486 45.9531C116.438 45.2616 117 44.156 117 42.9796V22Z" fill="#418FDE"/>
<path fill-rule="evenodd" clip-rule="evenodd" d="M33 22H96.0001V43H54L54 58.7503H75.0001L75.0001 79.75H54L54 106H33V22Z" fill="white"/>
</g>
<defs>
<clipPath id="clip0_205_1966">
<rect width="105" height="126" fill="white" transform="translate(12 1)"/>
</clipPath>
</defs>
</svg>
