<svg width="32" height="32" viewBox="0 0 32 32" fill="none" xmlns="http://www.w3.org/2000/svg">
<g clip-path="url(#clip0_205_1984)">
<path fill-rule="evenodd" clip-rule="evenodd" d="M8.33333 0H29.6667V5.33333L24.3333 10.6667V5.33333H8.33333V26.6667H13.6667L8.33333 32H3V5.33333L8.33333 0Z" fill="#FF585D"/>
<path d="M8.33333 21.3333L3 26.6667V5.33333L8.33333 0H24.3333L19 5.33333H8.33333V21.3333Z" fill="#CB333B"/>
<path fill-rule="evenodd" clip-rule="evenodd" d="M29.6668 5.33337L24.3338 10.6671H13.6672V14.6668H19.0002V20.0005H13.6672V26.6667L8.3335 32.0004H13.734C14.1384 32.0004 14.4965 31.74 14.6215 31.3555L15.5868 28.3844C15.6791 28.1003 15.9021 27.878 16.1862 27.7857L16.9283 27.5445C17.2124 27.4522 17.5237 27.5012 17.7654 27.6768L20.2921 29.513C20.6192 29.7507 21.0626 29.7507 21.3897 29.513L23.6545 27.867C23.9816 27.6293 24.1184 27.2084 23.9935 26.8238L23.0282 23.8528C22.9358 23.5686 22.9855 23.2573 23.1611 23.0156L23.62 22.3845C23.7956 22.1428 24.0757 21.9993 24.3745 21.9993L27.4985 22C27.9029 22 28.261 21.739 28.386 21.3544L29.2514 18.692C29.3763 18.3075 29.2395 17.8858 28.9124 17.6482L26.385 15.8119C26.1433 15.6363 26.0006 15.3562 26.0006 15.0575V14.2768C26.0006 13.978 26.1433 13.6972 26.385 13.5216L29.2824 11.4167C29.5241 11.2411 29.6668 10.9603 29.6668 10.6615V5.33337Z" fill="#418FDE"/>
<path fill-rule="evenodd" clip-rule="evenodd" d="M8.3335 5.33337H24.3335V10.6667H13.6668L13.6668 14.6668H19.0002L19.0002 20H13.6668L13.6668 26.6667H8.3335V5.33337Z" fill="white"/>
</g>
<defs>
<clipPath id="clip0_205_1984">
<rect width="26.6667" height="32" fill="white" transform="translate(3)"/>
</clipPath>
</defs>
</svg>
