<svg width="1024" height="1024" viewBox="0 0 1024 1024" fill="none" xmlns="http://www.w3.org/2000/svg">
<g clip-path="url(#clip0_239_2590)">
<path fill-rule="evenodd" clip-rule="evenodd" d="M256 2H936V172L766 342V172H256V852H426L256 1022H86V172L256 2Z" fill="#FF585D"/>
<path d="M256 682L86 852V172L256 2H766L596 172H256V682Z" fill="#CB333B"/>
<path fill-rule="evenodd" clip-rule="evenodd" d="M936 172L766.011 342.011H426.011V469.503H596V639.514H426.011V852L256 1022.01H428.141C441.03 1022.01 452.446 1013.71 456.429 1001.45L487.198 906.752C490.141 897.696 497.249 890.609 506.306 887.667L529.959 879.98C539.016 877.037 548.939 878.6 556.643 884.197L637.179 942.727C647.606 950.302 661.739 950.302 672.166 942.727L744.356 890.259C754.784 882.683 759.144 869.266 755.162 857.008L724.392 762.306C721.449 753.248 723.033 743.326 728.631 735.621L743.258 715.504C748.855 707.799 757.784 703.227 767.307 703.227L866.884 703.248C879.774 703.249 891.19 694.928 895.172 682.67L922.757 597.807C926.739 585.549 922.379 572.109 911.951 564.534L831.393 506.004C823.689 500.407 819.138 491.479 819.138 481.955V457.072C819.139 447.549 823.688 438.598 831.393 433.001L923.745 365.906C931.449 360.309 936 351.358 936 341.835V172Z" fill="#418FDE"/>
<path fill-rule="evenodd" clip-rule="evenodd" d="M256 172H766.001V342H426L426 469.502H596L596 639.5H426L426 852H256V172Z" fill="white"/>
</g>
<defs>
<clipPath id="clip0_239_2590">
<rect width="850" height="1020" fill="white" transform="translate(86 2)"/>
</clipPath>
</defs>
</svg>
