<svg width="16" height="16" viewBox="0 0 16 16" fill="none" xmlns="http://www.w3.org/2000/svg">
<g clip-path="url(#clip0_205_1993)">
<path fill-rule="evenodd" clip-rule="evenodd" d="M3.66667 0H14.3333V2.66667L11.6667 5.33333V2.66667H3.66667V13.3333H6.33333L3.66667 16H1V2.66667L3.66667 0Z" fill="#FF585D"/>
<path d="M3.66667 10.6667L1 13.3333V2.66667L3.66667 0H11.6667L9 2.66667H3.66667V10.6667Z" fill="#CB333B"/>
<path fill-rule="evenodd" clip-rule="evenodd" d="M14.3332 2.66663L11.6667 5.33346H6.33334V7.33334H8.99984V10.0002H6.33334V13.3333L3.6665 16.0001H6.36676C6.56893 16.0001 6.74802 15.87 6.81049 15.6777L7.29314 14.1922C7.33931 14.0501 7.4508 13.9389 7.59287 13.8928L7.9639 13.7722C8.10597 13.726 8.26162 13.7505 8.38248 13.8383L9.64579 14.7565C9.80934 14.8753 10.031 14.8753 10.1946 14.7565L11.327 13.9334C11.4906 13.8146 11.559 13.6041 11.4965 13.4118L11.0138 11.9263C10.9677 11.7842 10.9925 11.6286 11.0803 11.5077L11.3098 11.1922C11.3976 11.0713 11.5376 10.9996 11.687 10.9996L13.249 10.9999C13.4512 10.9999 13.6303 10.8694 13.6927 10.6771L14.1254 9.34595C14.1879 9.15367 14.1195 8.94285 13.9559 8.82402L12.6923 7.90591C12.5714 7.8181 12.5 7.67806 12.5 7.52867V7.13834C12.5001 6.98896 12.5714 6.84856 12.6923 6.76076L14.1409 5.70829C14.2618 5.62049 14.3332 5.48009 14.3332 5.33071V2.66663Z" fill="#418FDE"/>
<path fill-rule="evenodd" clip-rule="evenodd" d="M3.6665 2.66663H11.6665V5.33329H6.33317L6.33317 7.33333H8.99984L8.99985 9.99996H6.33317L6.33317 13.3333H3.6665V2.66663Z" fill="white"/>
</g>
<defs>
<clipPath id="clip0_205_1993">
<rect width="13.3333" height="16" fill="white" transform="translate(1)"/>
</clipPath>
</defs>
</svg>
