<svg width="512" height="512" viewBox="0 0 512 512" fill="none" xmlns="http://www.w3.org/2000/svg">
<g clip-path="url(#clip0_194_9878)">
<path fill-rule="evenodd" clip-rule="evenodd" d="M128 1H468V86L383 171V86H128V426H213L128 511H43V86L128 1Z" fill="#FF585D"/>
<path d="M128 341L43 426V86L128 1H383L298 86H128V341Z" fill="#CB333B"/>
<path fill-rule="evenodd" clip-rule="evenodd" d="M468 86L383.005 171.005H213.006V234.751H298V319.757H213.006V426L128 511.006H214.071C220.515 511.005 226.223 506.856 228.214 500.727L243.599 453.376C245.071 448.848 248.625 445.305 253.153 443.833L264.98 439.99C269.508 438.518 274.469 439.3 278.322 442.098L318.59 471.363C323.803 475.151 330.87 475.151 336.083 471.363L372.178 445.129C377.392 441.342 379.572 434.633 377.581 428.504L362.196 381.153C360.724 376.624 361.517 371.663 364.316 367.811L371.629 357.752C374.428 353.9 378.892 351.614 383.653 351.613L433.442 351.624C439.887 351.624 445.595 347.464 447.586 341.335L461.378 298.903C463.37 292.775 461.189 286.055 455.976 282.267L415.697 253.002C411.844 250.203 409.569 245.739 409.569 240.978V228.536C409.57 223.775 411.844 219.299 415.697 216.501L461.872 182.953C465.725 180.154 468 175.679 468 170.918V86Z" fill="#418FDE"/>
<path fill-rule="evenodd" clip-rule="evenodd" d="M128 86H383V171H213L213 234.751H298L298 319.75H213L213 426H128V86Z" fill="white"/>
</g>
<defs>
<clipPath id="clip0_194_9878">
<rect width="425" height="510" fill="white" transform="translate(43 1)"/>
</clipPath>
</defs>
</svg>
