<svg width="256" height="256" viewBox="0 0 256 256" fill="none" xmlns="http://www.w3.org/2000/svg">
<g clip-path="url(#clip0_205_1957)">
<path fill-rule="evenodd" clip-rule="evenodd" d="M65 2H233V44L191 86V44H65V212H107L65 254H23V44L65 2Z" fill="#FF585D"/>
<path d="M65 170L23 212V44L65 2H191L149 44H65V170Z" fill="#CB333B"/>
<path fill-rule="evenodd" clip-rule="evenodd" d="M233 44L191.003 86.0027H107.003V117.501H149V159.503H107.003V212L65 254.003H107.529C110.713 254.003 113.534 251.952 114.518 248.924L122.12 225.527C122.847 223.29 124.603 221.539 126.84 220.812L132.684 218.913C134.922 218.186 137.373 218.572 139.277 219.955L159.174 234.415C161.75 236.286 165.241 236.286 167.817 234.415L185.653 221.452C188.229 219.581 189.306 216.266 188.322 213.237L180.72 189.84C179.993 187.603 180.385 185.151 181.768 183.248L185.381 178.277C186.764 176.374 188.97 175.244 191.323 175.244L215.924 175.25C219.109 175.25 221.929 173.194 222.913 170.165L229.728 149.199C230.712 146.171 229.635 142.851 227.059 140.979L207.156 126.519C205.253 125.136 204.128 122.93 204.128 120.577V114.43C204.128 112.077 205.252 109.865 207.156 108.483L229.972 91.9062C231.876 90.5233 233 88.3121 233 85.9593V44Z" fill="#418FDE"/>
<path fill-rule="evenodd" clip-rule="evenodd" d="M65 44H191V86H107L107 117.501H149L149 159.5H107L107 212H65V44Z" fill="white"/>
</g>
<defs>
<clipPath id="clip0_205_1957">
<rect width="210" height="252" fill="white" transform="translate(23 2)"/>
</clipPath>
</defs>
</svg>
