<?xml version="1.0" encoding="UTF-8" standalone="no"?>
<svg
   width="512"
   height="512"
   viewBox="0 0 512 512"
   fill="none"
   version="1.1"
   id="svg4"
   xmlns="http://www.w3.org/2000/svg"
   xmlns:svg="http://www.w3.org/2000/svg">
  <defs
     id="defs4" />
  <path
     d="m 468.5,86 -85,85 h -170 v 63.75 h 85 v 85 h -85 V 426 l -85,85 h 86.07057 c 6.44428,0 12.15267,-4.14949 14.14379,-10.27841 l 15.38479,-47.35095 c 1.4705,-4.52817 5.02541,-8.07139 9.55358,-9.54274 l 11.8269,-3.84328 c 4.52837,-1.47262 9.48961,-0.69062 13.34202,2.108 l 40.26811,29.26487 c 5.21327,3.78738 12.27974,3.78738 17.493,0 l 36.09525,-26.23419 c 5.2139,-3.7876 7.39415,-10.49623 5.40281,-16.62536 l -15.38478,-47.35117 c -1.47263,-4.52837 -0.68,-9.48961 2.11862,-13.34202 l 7.31361,-10.0589 c 2.79842,-3.85199 7.26304,-6.13806 12.02432,-6.13849 l 49.78875,0.0108 c 6.4447,2.1e-4 12.15266,-4.16011 14.14378,-10.28925 l 13.79253,-42.43136 c 1.99113,-6.12893 -0.19125,-12.84882 -5.40281,-16.63663 l -40.27917,-29.26465 c -3.8522,-2.79884 -6.12743,-7.26282 -6.12743,-12.02452 v -12.44167 c 4.2e-4,-4.76148 2.27502,-9.23695 6.12743,-12.03536 l 46.17604,-33.54759 C 466.22455,180.14872 468.5,175.67368 468.5,170.9122 Z"
     style="fill:#418fde;fill-opacity:1;fill-rule:evenodd;stroke:none;stroke-width:0;stroke-linecap:square;stroke-dasharray:none"
     id="path8-4-4" />
  <path
     id="path7-7-2"
     style="display:inline;fill:#ff585d;fill-opacity:1;fill-rule:evenodd;stroke:none;stroke-width:0;stroke-linecap:square;stroke-dasharray:none"
     d="m 383.5,1 -85,85 h 85 v 85 l 85,-85 V 1 Z m -255,340 -85,85 v 85 h 85 l 85,-85 h -85 z" />
  <path
     d="m 128.5,1 -85,85 v 340 l 85,-85 V 86 h 170 l 85,-85 z"
     style="fill:#cb333b;fill-rule:evenodd;stroke:none;stroke-width:0;stroke-linecap:square;stroke-dasharray:none"
     id="path3-1-7" />
  <path
     d="m 128.5,426 h 85 V 319.75 h 85 v -85 h -85 V 171 h 170 V 86 h -255 z"
     style="fill:#ffffff;fill-opacity:1;fill-rule:evenodd;stroke:none;stroke-width:0;stroke-linecap:square;stroke-dasharray:none"
     id="path9-4-0" />
</svg>
