<?xml version="1.0" encoding="UTF-8" standalone="no"?>
<!-- Created with Inkscape (http://www.inkscape.org/) -->

<svg
   width="25.393265"
   height="26"
   viewBox="0 0 25.393265 26"
   version="1.1"
   id="svg1"
   xml:space="preserve"
   xmlns="http://www.w3.org/2000/svg"
   xmlns:svg="http://www.w3.org/2000/svg"
   xmlns:rdf="http://www.w3.org/1999/02/22-rdf-syntax-ns#"
   xmlns:cc="http://creativecommons.org/ns#"
   xmlns:dc="http://purl.org/dc/elements/1.1/"><title
     id="title11">FreeCAD</title><defs
     id="defs1" /><metadata
     id="metadata11"><rdf:RDF><cc:Work
         rdf:about=""><dc:title>FreeCAD</dc:title><dc:publisher><cc:Agent><dc:title>The FreeCAD project association AISBL (FPA)</dc:title></cc:Agent></dc:publisher><dc:creator><cc:Agent><dc:title>Max Wilfinger (maxwxyz)</dc:title></cc:Agent></dc:creator></cc:Work></rdf:RDF></metadata><path
     d="M 11.647631,0 A 0.69860794,0.7 0 0 0 10.983569,0.484375 L 10.260912,2.7109375 A 0.69860794,0.7 0 0 1 9.8136467,3.1621094 L 9.2570061,3.3417969 a 0.69860794,0.7 0 0 1 -0.625,-0.099609 L 6.739428,1.8652344 a 0.69860794,0.7 0 0 0 -0.8203125,0 L 4.2218498,3.0996094 A 0.69860794,0.7 0 0 0 3.9679436,3.8828125 L 4.6905998,6.1113281 A 0.69860794,0.7 0 0 1 4.5929436,6.7382812 L 4.2491935,7.2128906 A 0.69860794,0.7 0 0 1 3.6827873,7.5 H 1.3448967 A 0.69860794,0.7 0 0 0 0.68083418,7.984375 l -0.6464844,1.9960937 a 0.69860794,0.7 0 0 0 0,0.4335943 0.69860794,0.7 0 0 0 0.2539063,0.349609 l 1.89062502,1.376953 a 0.69860794,0.7 0 0 1 0.2871094,0.566406 v 0.585938 a 0.69860794,0.7 0 0 1 -0.2871094,0.566406 l -1.89062502,1.376953 a 0.69860794,0.7 0 0 0 -0.2539063,0.783203 l 0.6464844,1.996094 A 0.69860794,0.7 0 0 0 1.3448967,18.5 h 2.3378906 a 0.69860794,0.7 0 0 1 0.5664062,0.287109 l 0.3437501,0.47461 a 0.69860794,0.7 0 0 1 0.097656,0.626953 l -0.7226563,2.228515 a 0.69860794,0.7 0 0 0 0.2539062,0.783204 l 1.6972658,1.234375 a 0.69860794,0.7 0 0 0 0.8203125,0 l 1.892578,-1.376954 a 0.69860794,0.7 0 0 1 0.625,-0.09961 l 0.5566406,0.179688 a 0.69860794,0.7 0 0 1 0.4472653,0.451171 l 0.722657,2.226563 A 0.69860794,0.7 0 0 0 11.647631,26 h 2.097656 a 0.69860794,0.7 0 0 0 0.664063,-0.484375 l 0.722656,-2.226563 a 0.69860794,0.7 0 0 1 0.447266,-0.451171 l 0.55664,-0.179688 a 0.69860794,0.7 0 0 1 0.625,0.09961 l 1.892578,1.376954 a 0.69860794,0.7 0 0 0 0.820313,0 l 1.697265,-1.234375 a 0.69860794,0.7 0 0 0 0.253907,-0.783204 l -0.722657,-2.228515 a 0.69860794,0.7 0 0 1 0.09766,-0.626953 l 0.34375,-0.47461 A 0.69860794,0.7 0 0 1 21.710131,18.5 h 2.33789 a 0.69860794,0.7 0 0 0 0.664063,-0.484375 l 0.646484,-1.996094 a 0.69860794,0.7 0 0 0 -0.251953,-0.783203 l -1.892578,-1.376953 a 0.69860794,0.7 0 0 1 -0.287109,-0.566406 v -0.585938 a 0.69860794,0.7 0 0 1 0.287109,-0.566406 l 1.890625,-1.376953 A 0.69860794,0.7 0 0 0 25.358568,9.9804687 L 24.712084,7.984375 A 0.69860794,0.7 0 0 0 24.048021,7.5 h -2.33789 A 0.69860794,0.7 0 0 1 21.143725,7.2128906 L 20.799975,6.7382812 A 0.69860794,0.7 0 0 1 20.702318,6.1113281 L 21.424975,3.8828125 A 0.69860794,0.7 0 0 0 21.171068,3.0996094 l -1.697265,-1.234375 a 0.69860794,0.7 0 0 0 -0.820313,0 l -1.892578,1.3769531 a 0.69860794,0.7 0 0 1 -0.625,0.099609 L 15.579272,3.1621094 A 0.69860794,0.7 0 0 1 15.132006,2.7109375 L 14.40935,0.484375 A 0.69860794,0.7 0 0 0 13.745287,0 Z"
     style="fill:#418fde;fill-rule:evenodd;stroke-width:2.64831;stroke-linecap:square"
     id="path1" /></svg>
