<?xml version="1.0" encoding="UTF-8" standalone="no"?>
<svg
   width="40mm"
   height="40mm"
   viewBox="0 0 151.18109 151.1811"
   fill="none"
   version="1.1"
   id="svg4"
   sodipodi:docname="FreeCAD-symbol-sticker-40x40mm.svg"
   inkscape:version="1.2.2 (b0a8486541, 2022-12-01)"
   xmlns:inkscape="http://www.inkscape.org/namespaces/inkscape"
   xmlns:sodipodi="http://sodipodi.sourceforge.net/DTD/sodipodi-0.dtd"
   xmlns="http://www.w3.org/2000/svg"
   xmlns:svg="http://www.w3.org/2000/svg"
   xmlns:rdf="http://www.w3.org/1999/02/22-rdf-syntax-ns#"
   xmlns:cc="http://creativecommons.org/ns#"
   xmlns:dc="http://purl.org/dc/elements/1.1/">
  <sodipodi:namedview
     id="namedview10"
     pagecolor="#ffffff"
     bordercolor="#000000"
     borderopacity="0.25"
     inkscape:showpageshadow="2"
     inkscape:pageopacity="0.0"
     inkscape:pagecheckerboard="0"
     inkscape:deskcolor="#d1d1d1"
     showgrid="true"
     inkscape:zoom="3.4958333"
     inkscape:cx="91.966627"
     inkscape:cy="84.958284"
     inkscape:window-width="1920"
     inkscape:window-height="1011"
     inkscape:window-x="0"
     inkscape:window-y="32"
     inkscape:window-maximized="1"
     inkscape:current-layer="svg4"
     inkscape:document-units="mm">
    <inkscape:grid
       type="xygrid"
       id="grid1247"
       units="mm"
       spacingx="3.7795273"
       spacingy="3.7795273" />
  </sodipodi:namedview>
  <title
     id="title4">FreeCAD-symbol</title>
  <defs
     id="defs4" />
  <metadata
     id="metadata4">
    <rdf:RDF>
      <cc:Work
         rdf:about="">
        <dc:title>FreeCAD-symbol</dc:title>
        <dc:creator>
          <cc:Agent>
            <dc:title>Sebastian Tabares Amaya (sytabaresa), Max Wilfinger (maxwxyz)</dc:title>
          </cc:Agent>
        </dc:creator>
        <dc:publisher>
          <cc:Agent>
            <dc:title>The FreeCAD project association AISBL (FPA)</dc:title>
          </cc:Agent>
        </dc:publisher>
        <dc:date>2024-06-01</dc:date>
        <dc:description>A white letter F on a background that is split diagonally in half, blue on the bottom with a shape of a gear and red on the top.</dc:description>
        <dc:rights>
          <cc:Agent>
            <dc:title>Copyright (c) 2024 The FreeCAD Project Association AISBL.</dc:title>
          </cc:Agent>
        </dc:rights>
        <cc:license
           rdf:resource="http://creativecommons.org/licenses/by/4.0/" />
      </cc:Work>
      <cc:License
         rdf:about="http://creativecommons.org/licenses/by/4.0/">
        <cc:permits
           rdf:resource="http://creativecommons.org/ns#Reproduction" />
        <cc:permits
           rdf:resource="http://creativecommons.org/ns#Distribution" />
        <cc:requires
           rdf:resource="http://creativecommons.org/ns#Notice" />
        <cc:requires
           rdf:resource="http://creativecommons.org/ns#Attribution" />
        <cc:permits
           rdf:resource="http://creativecommons.org/ns#DerivativeWorks" />
      </cc:License>
    </rdf:RDF>
  </metadata>
  <path
     id="path8-4-3"
     style="fill:none;fill-opacity:1;fill-rule:evenodd;stroke:#ff00ff;stroke-width:0.946397;stroke-linecap:square;stroke-dasharray:none;stroke-opacity:1"
     sodipodi:type="inkscape:offset"
     inkscape:radius="10.537896"
     inkscape:original="M 45.214844 18.179688 L 26.078125 37.316406 L 26.078125 113.86523 L 26.078125 133.00195 L 45.214844 133.00195 L 64.591797 133.00195 C 66.042658 133.00195 67.32711 132.06735 67.775391 130.6875 L 71.240234 120.02734 C 71.571294 119.00787 72.371155 118.21018 73.390625 117.87891 L 76.052734 117.01367 C 77.072243 116.68213 78.189314 116.8582 79.056641 117.48828 L 88.123047 124.07617 C 89.296755 124.92886 90.888792 124.92886 92.0625 124.07617 L 100.1875 118.16992 C 101.36135 117.31718 101.85262 115.80764 101.4043 114.42773 L 97.941406 103.76562 C 97.609862 102.74612 97.787891 101.62905 98.417969 100.76172 L 100.06445 98.498047 C 100.69449 97.630817 101.69953 97.115334 102.77148 97.115234 L 113.98047 97.117188 C 115.43142 97.117238 116.71774 96.180681 117.16602 94.800781 L 120.27148 85.248047 C 120.71976 83.868187 120.22799 82.354733 119.05469 81.501953 L 109.98633 74.914062 C 109.11905 74.283934 108.60547 73.279081 108.60547 72.207031 L 108.60547 69.40625 C 108.60557 68.33426 109.119 67.325343 109.98633 66.695312 L 120.38086 59.142578 C 121.24828 58.512548 121.76172 57.505594 121.76172 56.433594 L 121.76172 37.316406 L 121.76172 18.179688 L 102.625 18.179688 L 45.214844 18.179688 z "
     d="M 45.214844,7.6425781 A 10.53895,10.53895 0 0 0 37.763672,10.728516 L 18.626953,29.865234 a 10.53895,10.53895 0 0 0 -3.085937,7.451172 v 76.548824 19.13672 a 10.53895,10.53895 0 0 0 10.537109,10.53711 h 19.136719 19.376953 c 5.975727,0 11.360632,-3.91888 13.205078,-9.59375 v -0.002 l 1.142578,-3.51367 2.988281,2.17187 a 10.53895,10.53895 0 0 0 0.002,0 c 4.839694,3.516 11.486477,3.516 16.326171,0 a 10.53895,10.53895 0 0 0 0.002,-0.002 l 8.123048,-5.9043 0.002,-0.002 c 4.8255,-3.50699 6.88788,-9.84292 5.04297,-15.52148 h 0.002 l -1.14257,-3.51758 h 3.69336 a 10.53895,10.53895 0 0 0 0.002,0 c 5.98523,2e-4 11.36091,-3.91546 13.20703,-9.595706 v -0.002 l 3.10547,-9.550782 a 10.53895,10.53895 0 0 0 0,-0.002 c 1.84765,-5.687278 -0.20596,-12.009749 -5.04297,-15.52539 a 10.53895,10.53895 0 0 0 -0.002,-0.002 l -2.98828,-2.171874 4.31445,-3.136719 c 3.5873,-2.605548 5.72461,-6.797588 5.72461,-11.234375 V 37.316406 18.179688 A 10.53895,10.53895 0 0 0 121.76172,7.6425781 H 102.625 Z"
     transform="matrix(1.0566389,0,0,1.0566389,-2.5161144,-4.295087)" />
  <path
     d="M 126.14228,35.134749 105.92157,55.355458 H 65.480155 V 70.52099 H 85.700864 V 90.741698 H 65.480155 V 116.01759 L 45.259447,136.2383 h 20.475389 c 1.533033,0 2.891005,-0.98712 3.364675,-2.44514 l 3.659897,-11.26435 c 0.349818,-1.07721 1.195499,-1.9201 2.272707,-2.27013 l 2.813509,-0.91428 c 1.077258,-0.35032 2.257491,-0.16429 3.173943,0.50148 l 9.579409,6.96183 c 1.240187,0.90099 2.921236,0.90099 4.161422,0 l 8.586722,-6.24086 c 1.24034,-0.90104 1.759,-2.49696 1.28529,-3.95503 l -3.65991,-11.2644 c -0.35032,-1.07725 -0.16176,-2.25749 0.504,-3.17394 l 1.73984,-2.39292 c 0.66573,-0.91635 1.72782,-1.46019 2.86048,-1.46029 l 11.84428,0.003 c 1.53313,5e-5 2.89101,-0.989654 3.36468,-2.44772 l 3.2811,-10.094026 c 0.47367,-1.458013 -0.0455,-3.056612 -1.28527,-3.957698 l -9.58203,-6.961787 c -0.91641,-0.665817 -1.45767,-1.727758 -1.45767,-2.860523 v -2.959755 c 1.1e-4,-1.132714 0.54121,-2.197385 1.45767,-2.863101 l 10.98484,-7.980659 c 0.91655,-0.665716 1.45786,-1.730286 1.45786,-2.862999 z"
     style="fill:#418fde;fill-opacity:1;fill-rule:evenodd;stroke:none;stroke-width:0;stroke-linecap:square;stroke-dasharray:none"
     id="path8-4" />
  <path
     id="path7-7"
     style="display:inline;fill:#ff585d;fill-opacity:1;fill-rule:evenodd;stroke:none;stroke-width:0;stroke-linecap:square;stroke-dasharray:none"
     d="M 105.92157,14.914041 85.700864,35.134749 H 105.92157 V 55.355458 L 126.14228,35.134749 V 14.914041 Z M 45.259447,95.796875 25.038739,116.01759 V 136.2383 H 45.259447 L 65.480155,116.01759 H 45.259447 Z" />
  <path
     d="M 45.259447,14.914041 25.038739,35.134749 V 116.01759 L 45.259447,95.796875 V 35.134749 H 85.700864 L 105.92157,14.914041 Z"
     style="fill:#cb333b;fill-rule:evenodd;stroke:none;stroke-width:0;stroke-linecap:square;stroke-dasharray:none"
     id="path3-1" />
  <path
     d="M 45.259447,116.01759 H 65.480155 V 90.741698 H 85.700864 V 70.52099 H 65.480155 V 55.355458 H 105.92157 V 35.134749 H 45.259447 Z"
     style="fill:#ffffff;fill-opacity:1;fill-rule:evenodd;stroke:none;stroke-width:0;stroke-linecap:square;stroke-dasharray:none"
     id="path9-4" />
</svg>
